<?xml version="1.0" standalone="no"?>
<!DOCTYPE svg PUBLIC "-//W3C//DTD SVG 1.1//EN" "http://www.w3.org/Graphics/SVG/1.1/DTD/svg11.dtd" >
<svg xmlns="http://www.w3.org/2000/svg">
<metadata>
This is a custom SVG webfont generated by Font Squirrel.
Copyright   : c Copyright 2009 Chank Co All rights reserved Do not redistribute or alter this font without permission wwwchankcom 
Designer    : Chank Diesel
Foundry     : Chank Co
Foundry URL : httpwwwchankcom
</metadata>
<defs>
<font id="MinglerBold" horiz-adv-x="545" >
<font-face units-per-em="1000" ascent="800" descent="-200" />
<missing-glyph horiz-adv-x="314" />
<glyph unicode=" "  horiz-adv-x="314" />
<glyph unicode="&#x09;" horiz-adv-x="314" />
<glyph unicode="&#xa0;" horiz-adv-x="314" />
<glyph unicode="!" horiz-adv-x="245" d="M195 724q-23 -219 -30 -475l-121 -20q-9 262 -26 495q95 20 177 0zM197 83q0 -36 -26 -61.5t-63 -25.5t-63 25.5t-26 61.5t26 61.5t63 25.5t63 -25.5t26 -61.5z" />
<glyph unicode="&#x22;" horiz-adv-x="445" d="M401 724q-28 -211 -30 -355h-101q-6 157 -30 335q74 16 161 20zM172 724q-23 -160 -30 -355h-101q-9 163 -30 335q70 20 161 20z" />
<glyph unicode="#" horiz-adv-x="574" d="M543 506l-14 -109l-82 3q-5 -37 -13 -109l82 2l-13 -109l-81 3l-12 -117h-109q3 17 17 118q-55 2 -109 0q-7 -63 -12 -118h-109q3 18 17 117l-82 -3l14 109q48 -2 82 -2l13 109l-82 -3l13 109q50 -2 81 -2q7 54 12 111h109l-17 -112h109q7 56 12 112h109q-1 -5 -7 -46.5 t-9 -64.5zM346 401q-57 1 -112 0l-14 -111h112z" />
<glyph unicode="$" horiz-adv-x="495" d="M448 255q0 -55 -39.5 -95.5t-96.5 -59.5v-100h-124v81q-85 6 -141 75l40 98q37 -64 128 -64q32 0 54.5 14.5t22.5 48.5q0 23 -26.5 45t-64 42t-75.5 43t-64.5 57t-26.5 75q0 136 153 164v121h124v-119q37 -8 73.5 -30.5t49.5 -56.5l-38 -101q-25 35 -62.5 62t-73.5 27 q-25 0 -50.5 -18t-25.5 -42q0 -25 27 -43.5t65.5 -34t77.5 -35.5t66 -59.5t27 -94.5z" />
<glyph unicode="%" horiz-adv-x="637" d="M276 545q0 -68 -36.5 -116t-87.5 -48q-52 0 -88.5 48t-36.5 116t36.5 116t88.5 48q51 0 87.5 -48t36.5 -116zM525 662q-219 -366 -351 -621l-89 32q209 344 350 618zM588 192q0 -68 -36.5 -116t-88.5 -48q-51 0 -87.5 48t-36.5 116t36.5 116t87.5 48q52 0 88.5 -48 t36.5 -116zM194 544q0 31 -13 52.5t-32 21.5t-32.5 -21.5t-13.5 -52.5q0 -30 13.5 -51.5t32.5 -21.5t32 21.5t13 51.5zM506 191q0 31 -13.5 52.5t-32.5 21.5t-32 -21.5t-13 -52.5q0 -30 13 -51.5t32 -21.5t32.5 21.5t13.5 51.5z" />
<glyph unicode="&#x26;" horiz-adv-x="615" d="M592 66l-96 -79q-45 73 -74 100q-35 -43 -81.5 -71t-93.5 -28q-36 0 -68 5t-66 19.5t-58 37.5t-39.5 62t-15.5 90q0 85 43.5 152t92.5 97q-61 72 -61 134q0 82 49.5 122.5t124.5 40.5q68 0 115 -40.5t47 -122.5q0 -48 -27 -97t-62 -76q9 -20 42.5 -68t54.5 -71 q17 29 42 117l89 -63q-19 -65 -67 -141q3 -7 10.5 -17t17 -21t20.5 -22.5l21.5 -22l19 -18.5t14.5 -13zM298 592q0 56 -48 56q-16 0 -25.5 -6.5t-13 -19.5t-4 -19t-0.5 -18q0 -31 38 -76q20 13 36.5 38t16.5 45zM350 176q-23 37 -127 164q-59 -52 -59 -123q0 -50 27.5 -76 t67.5 -26q21 0 47 17.5t44 43.5z" />
<glyph unicode="'" horiz-adv-x="208" d="M172 724q-23 -162 -30 -355h-101q-4 152 -30 335q90 17 161 20z" />
<glyph unicode="(" horiz-adv-x="317" d="M278 0l-136 -31q-49 88 -83.5 207.5t-33.5 224.5q1 90 37 189.5t90 168.5l126 -35q-82 -180 -87 -314q-8 -154 87 -410z" />
<glyph unicode=")" horiz-adv-x="317" d="M282 401q1 -105 -33.5 -224.5t-83.5 -207.5l-136 31q94 253 87 410q-7 138 -87 314l126 35q54 -68 90 -167.5t37 -190.5z" />
<glyph unicode="*" horiz-adv-x="409" d="M384 423l-51 -91q-48 56 -98 99q-2 -40 13 -158l-89 1q15 93 18 160q-12 -10 -36 -34t-42 -44l-18 -19l-50 92q71 29 118 69q-13 10 -43 28.5l-53 31.5l-23 14l50 91q71 -81 95 -101q-3 70 -14 164l91 -1q-14 -116 -15 -167l90 94l50 -92q-101 -56 -114 -64 q13 -10 43.5 -28l52.5 -31t25 -14z" />
<glyph unicode="+" horiz-adv-x="552" d="M492 286h-165v-211h-138v211h-166v139h166v199h138v-199h165v-139z" />
<glyph unicode="," horiz-adv-x="234" d="M191 73q0 -33 -6 -53t-22 -48q-24 -43 -90 -93l-58 43q44 41 48 86q-38 18 -38 69q0 34 24 55.5t60 21.5t59 -23.5t23 -57.5z" />
<glyph unicode="-" horiz-adv-x="394" d="M368 369l-20 -138q-180 7 -325 0l20 138q140 -3 325 0z" />
<glyph unicode="." horiz-adv-x="245" d="M202 83q0 -36 -25.5 -61.5t-62.5 -25.5t-63 25.5t-26 61.5t26 61.5t63 25.5t62.5 -25.5t25.5 -61.5z" />
<glyph unicode="/" horiz-adv-x="528" d="M473 724q-46 -180 -150 -366q-128 -226 -142 -358h-157q16 142 164 401q87 156 128 323h157z" />
<glyph unicode="0" horiz-adv-x="565" d="M544 361q0 -181 -74 -274t-186 -93t-186.5 95t-74.5 272q0 165 76 266t185 101t184.5 -98.5t75.5 -268.5zM387 357q0 95 -30.5 150t-72.5 55q-43 0 -73.5 -54.5t-30.5 -150.5q0 -104 30 -154.5t74 -50.5q42 0 72.5 53.5t30.5 151.5z" />
<glyph unicode="1" horiz-adv-x="463" d="M356 0h-160q11 248 0 462q-29 -37 -55 -96l-86 111q96 122 159 247l142 -31q-10 -299 0 -693z" />
<glyph unicode="2" horiz-adv-x="513" d="M472 543q0 -49 -20 -90.5t-51 -74l-63.5 -65t-62 -78t-42.5 -97.5h228v-137l-410 -1l-20 80q9 95 77 197q15 22 49 56l62.5 61t51.5 63.5t23 69.5q0 30 -18 50t-51 20q-30 0 -53 -10t-40 -31t-25.5 -36.5t-20.5 -42.5l-72 109q24 70 88 110.5t140 40.5q54 0 105.5 -20.5 t88 -66.5t36.5 -107z" />
<glyph unicode="3" horiz-adv-x="510" d="M462 237q0 -111 -64.5 -179t-170.5 -68q-62 0 -110.5 31.5t-76.5 79.5l47 112q17 -32 52 -52.5t78 -20.5q32 0 56.5 35.5t24.5 86.5q0 43 -31 76t-75 33q-25 0 -57 -9q79 121 128 235q-128 8 -215 0v127q214 -11 390 0l21 -72q-4 -7 -34.5 -56.5l-50 -82.5t-28.5 -55 q34 -7 58.5 -31t36 -57.5t16.5 -65.5t5 -67z" />
<glyph unicode="4" d="M534 292l-18 -112h-62q4 -126 8 -180h-157q6 105 7 180l-264 -1l-22 84q41 51 155.5 220.5t151.5 240.5h129q-11 -199 -9 -432h81zM314 292q0 149 -2 228l-56 -84l-58 -86.5t-31 -57.5h147z" />
<glyph unicode="5" horiz-adv-x="480" d="M452 268q0 -122 -59.5 -193.5t-180.5 -71.5q-108 0 -177 85l41 112q17 -18 56.5 -39t69.5 -21q36 0 58.5 34.5t22.5 74.5q0 50 -22 79.5t-61 29.5q-28 0 -49 -9.5t-43 -28.5t-24 -20l-59 41q14 75 27.5 193.5t14.5 187.5h327l30 -125h-241q-17 -59 -17 -132q37 24 90 24 q93 0 144.5 -62.5t51.5 -158.5z" />
<glyph unicode="6" horiz-adv-x="502" d="M462 258q2 -113 -67 -193q-62 -71 -149 -72q-133 -3 -184 108q-39 81 -37 270q1 39 13.5 112.5t27.5 102.5q16 31 31 52t40 43.5t61.5 34t84.5 11.5q61 0 105 -21l-29 -116q-50 19 -81 19q-59 0 -87 -75q-13 -42 -14 -62q42 26 76 28q88 3 146 -65q62 -69 63 -177z M315 255q-1 52 -20 84.5t-52 35.5q-39 3 -57 -29.5t-18 -93.5q0 -54 18.5 -92t58.5 -38q36 0 53.5 38t16.5 95z" />
<glyph unicode="7" horiz-adv-x="483" d="M462 635q-98 -203 -138 -318q-63 -183 -54 -317h-144q-14 144 56 344q38 107 111 253h-271l20 127h402z" />
<glyph unicode="8" horiz-adv-x="512" d="M481 196q0 -91 -67.5 -149.5t-160.5 -58.5q-92 0 -156 59t-64 149q0 52 23 99t63 71q-38 18 -62 62t-24 99q0 92 63.5 151t156.5 59q92 0 156 -58.5t64 -151.5q0 -90 -79 -158q38 -27 62.5 -74t24.5 -99zM331 527q0 35 -21 62t-57 27q-33 0 -47.5 -25.5t-14.5 -63.5 q0 -72 69 -102q71 33 71 102zM323 195q0 76 -77 108q-65 -30 -65 -108q0 -32 19 -57.5t53 -25.5q35 0 52.5 23.5t17.5 59.5z" />
<glyph unicode="9" horiz-adv-x="522" d="M485 359q0 -71 -13 -132.5t-42 -115.5t-82 -85.5t-126 -31.5q-61 0 -119 22l28 120q52 -22 99 -22q85 0 101 135q-47 -31 -92 -31q-95 0 -152 69t-57 167q0 111 63 192.5t169 81.5q43 0 78 -12.5t58 -32t39.5 -50.5t25.5 -60.5t14 -70t6.5 -71.5t1.5 -72zM335 460 q0 50 -18 90.5t-60 40.5q-36 0 -55.5 -38.5t-19.5 -77.5q0 -44 20 -84.5t56 -40.5q77 0 77 110z" />
<glyph unicode=":" horiz-adv-x="265" d="M211 418q0 -35 -23.5 -59.5t-57.5 -24.5t-58 24.5t-24 59.5t24 59t58 24t57.5 -24t23.5 -59zM210 87q0 -34 -23.5 -57.5t-56.5 -23.5t-56.5 23.5t-23.5 57.5t23.5 57.5t56.5 23.5t56.5 -23.5t23.5 -57.5z" />
<glyph unicode=";" horiz-adv-x="265" d="M211 418q0 -35 -23.5 -59.5t-57.5 -24.5t-58 24.5t-24 59.5t24 59t58 24t57.5 -24t23.5 -59zM203 73q0 -33 -6 -53t-22 -48q-24 -43 -90 -93l-58 43q44 41 48 86q-38 18 -38 69q0 34 24 55.5t60 21.5t59 -23.5t23 -57.5z" />
<glyph unicode="&#x3c;" horiz-adv-x="478" d="M430 149l-87 -105q-63 64 -159 147.5t-167 134.5q64 54 159 146.5t148 152.5l105 -88q-95 -88 -201 -212q64 -74 202 -176z" />
<glyph unicode="=" horiz-adv-x="452" d="M412 517l-4 -138q-184 8 -385 0l4 138q143 -3 385 0zM409 275l-4 -139q-224 10 -385 0l4 139q161 -9 385 0z" />
<glyph unicode="&#x3e;" horiz-adv-x="478" d="M429 330q-90 -70 -182 -150.5t-144 -133.5l-87 105q168 136 202 176q-46 60 -201 212l104 88q56 -61 151 -153t157 -144z" />
<glyph unicode="?" horiz-adv-x="476" d="M455 533q0 -43 -14.5 -78.5t-36.5 -57.5t-47 -44t-47 -38t-36.5 -38t-14.5 -46q0 -12 4 -38l-140 22q-4 28 -4 43q0 34 13.5 60.5t33 43t43 33.5l43 31.5t33 37.5t13.5 51q0 35 -23.5 59.5t-57.5 24.5q-41 0 -84 -35.5t-71 -78.5l-57 87q24 70 87.5 110t140.5 40 q92 0 157 -49.5t65 -139.5zM275 75q0 -33 -23.5 -57.5t-56.5 -24.5t-56.5 24.5t-23.5 57.5t23.5 57.5t56.5 24.5t56.5 -24.5t23.5 -57.5z" />
<glyph unicode="@" horiz-adv-x="726" d="M686 309q-2 -73 -50 -136t-119 -63q-39 0 -75 21t-45 56q-35 -44 -53 -55q-21 -13 -48 -13q-60 0 -96 61.5t-33 127.5q3 77 52 137.5t113 60.5q26 0 48.5 -17t30.5 -37q5 27 21 63l86 -67q-25 -77 -28 -147q0 -4 -0.5 -16t-0.5 -17.5v-17.5t1.5 -18.5t3 -16.5t5 -15.5 t8 -11t11.5 -8t15 -2.5q32 0 55 43t25 84q4 111 -65.5 186.5t-181.5 75.5q-105 0 -181.5 -75t-80.5 -180q-4 -106 68 -184t177 -78q48 0 105 25l45 -51q-53 -44 -154 -44q-137 0 -229.5 98t-87.5 235t104.5 234t236.5 97q138 0 230 -98.5t87 -236.5zM382 327q9 81 -42 77 q-54 -6 -63 -75q-4 -39 7 -68.5t37 -27.5q25 2 41 29t20 65z" />
<glyph unicode="A" horiz-adv-x="611" d="M579 10l-191 -28q-1 11 -6 61t-8 72h-162q-1 -8 -10 -62.5t-10 -73.5l-167 31l163 714h208q69 -296 183 -714zM356 232q-36 226 -57 283q-18 -52 -39 -141t-28 -142h124z" />
<glyph unicode="B" horiz-adv-x="529" d="M485 507q0 -35 -24.5 -79t-52.5 -63q25 -8 50.5 -50t25.5 -78q0 -107 -68 -172t-163 -65h-226q12 395 0 724h226q95 0 163.5 -59t68.5 -158zM317 495q0 85 -121 85l-2 -179q52 -1 87.5 24.5t35.5 69.5zM316 212q0 84 -122 82l2 -175q57 -2 88.5 22.5t31.5 70.5z" />
<glyph unicode="C" horiz-adv-x="546" d="M525 578l-104 -86q-32 89 -116 89q-47 0 -86.5 -62.5t-39.5 -147.5q0 -102 37.5 -168t90.5 -66q27 0 60 19t48 52l110 -75q-26 -65 -83 -107t-141 -42q-119 0 -203 110.5t-84 267.5q0 156 84 266.5t203 110.5q84 0 147 -42t77 -119z" />
<glyph unicode="D" horiz-adv-x="564" d="M532 357q0 -47 -9 -94.5t-30.5 -96t-53.5 -85t-81.5 -59.5t-109.5 -23q-5 1 -208 1q14 332 0 724h206q63 0 114 -24t82.5 -62t52.5 -88t29 -97.5t8 -95.5zM354 356q0 27 -7 61.5t-22 71t-44 60t-66 20.5q-19 -224 0 -421q32 -5 60 17.5t44.5 58t25.5 71.5t9 61z" />
<glyph unicode="E" horiz-adv-x="482" d="M440 0h-401q20 310 0 724h401v-146h-224q-4 -68 -4 -149h185l-26 -134h-159l4 -149h224v-146z" />
<glyph unicode="F" horiz-adv-x="482" d="M447 578h-244q-8 -69 -4 -149h185l-33 -138h-152q-5 -70 4 -291h-177q16 332 0 724h421v-146z" />
<glyph unicode="G" horiz-adv-x="627" d="M604 429l-22 -138h-31q12 -82 -13 -152q-24 -64 -79 -105.5t-145 -41.5q-125 0 -212 108t-87 261q0 151 90.5 260t208.5 109q137 0 200 -86l-73 -116q-15 26 -45.5 42t-70.5 16q-53 0 -97 -64t-44 -155q0 -100 40 -163t101 -63q58 0 76 68q8 33 8 82h-121l16 140z" />
<glyph unicode="H" horiz-adv-x="577" d="M528 0h-177q8 127 9 277h-152q1 -153 9 -277h-177q10 145 9.5 349.5t-9.5 374.5h177q-5 -105 -9 -305h151q-2 174 -8 305h177q-9 -177 -9.5 -381t9.5 -343z" />
<glyph unicode="I" horiz-adv-x="274" d="M224 0h-177q10 145 9.5 349.5t-9.5 374.5h177q-9 -174 -9 -381t9 -343z" />
<glyph unicode="J" horiz-adv-x="438" d="M395 284q0 -112 -17 -156q-24 -65 -65.5 -100.5t-134.5 -36.5q-27 0 -50 4t-37 8.5t-28.5 14.5t-20 15.5t-16.5 17.5t-13 14l44 141q50 -60 110 -57q26 1 42.5 25t18.5 57q5 22 3.5 118t-3 134.5t-5.5 131t-5 109.5h177q0 -6 -2 -66.5l-3 -93t-1.5 -89t1 -103.5t5.5 -88z " />
<glyph unicode="K" horiz-adv-x="570" d="M527 0l-164 -10q-24 225 -94 317q-58 -70 -73 -92q1 -117 8 -215h-177q10 145 9.5 349.5t-9.5 374.5h177q-7 -139 -9 -308q54 66 102 156.5t61 163.5l147 -12q-28 -167 -130 -296l14 -15q96 -104 138 -413z" />
<glyph unicode="L" horiz-adv-x="497" d="M478 156l-28 -156h-411q18 316 0 724h177q-5 -112 -5.5 -285.5t5.5 -282.5h262z" />
<glyph unicode="M" horiz-adv-x="831" d="M785 9l-174 -16q-25 265 -45 403l-31.5 -109l-37.5 -131t-23 -101l-124 -4q-35 138 -120 363q-32 -236 -29 -422l-175 15q105 534 125 718h159q22 -121 101 -324q71 176 106 324h150q52 -421 118 -716z" />
<glyph unicode="N" horiz-adv-x="598" d="M548 0h-146q-46 77 -212 303l-2 -2q2 -181 9 -301h-157q10 145 9.5 349.5t-9.5 374.5h102q31 -62 119.5 -210t135.5 -220l2 2q3 187 -8 428h157q-9 -177 -9.5 -381t9.5 -343z" />
<glyph unicode="O" horiz-adv-x="667" d="M640 361q0 -169 -90 -272t-219 -103q-126 0 -219 108.5t-93 266.5q0 165 92.5 270t219.5 105q128 0 218.5 -104.5t90.5 -270.5zM463 357q0 92 -36.5 161.5t-94.5 69.5q-62 0 -99 -69t-37 -162q0 -92 37 -161.5t99 -69.5q61 0 96 69t35 162z" />
<glyph unicode="P" horiz-adv-x="538" d="M503 473q0 -108 -77.5 -180t-170.5 -66l-59 4q2 -139 8 -231h-177q10 145 9.5 349.5t-9.5 374.5q112 -3 226 0q93 4 171.5 -69.5t78.5 -181.5zM335 474q4 60 -40.5 93t-96.5 18q-3 -70 -3 -208q57 -1 96.5 24t43.5 73z" />
<glyph unicode="Q" horiz-adv-x="629" d="M608 362q0 -85 -22 -160t-71 -134t-119 -82q27 -88 153 -103l-94 -134q-84 0 -140 73.5t-52 161.5q-106 22 -179 129t-73 249q0 159 88 271.5t211 112.5t210.5 -112.5t87.5 -271.5zM424 358q0 98 -29.5 167t-85.5 69q-60 0 -89 -68t-29 -168q0 -99 29.5 -167.5 t88.5 -68.5q40 0 67 35t37.5 86.5t10.5 114.5z" />
<glyph unicode="R" horiz-adv-x="551" d="M503 463q0 -62 -31 -114t-81 -78q35 -36 70 -123t40 -148h-177q-9 123 -76 243h-40q-1 -42 2 -243h-175q11 297 0 724h218q95 0 172.5 -76.5t77.5 -184.5zM337 466q0 119 -127 119q0 -15 -1.5 -105.5t-0.5 -123.5q56 0 92.5 29t36.5 81z" />
<glyph unicode="S" horiz-adv-x="497" d="M470 210q0 -100 -66 -163t-161 -63q-47 0 -85.5 8.5t-74.5 22t-51 17.5l31 147q32 -25 80.5 -42t83.5 -17q75 0 75 89q0 30 -31.5 52.5t-88 49.5t-86.5 50q-81 62 -81 152q0 110 65 168.5t176 58.5q43 0 81 -11.5t56.5 -22.5t44.5 -31.5t31 -23.5l-62 -151 q-20 40 -59.5 71.5t-86.5 31.5q-36 0 -56 -20.5t-20 -53.5q0 -29 26 -48.5t78.5 -43t80.5 -42.5q100 -68 100 -185z" />
<glyph unicode="T" horiz-adv-x="605" d="M579 724l-20 -156q-85 15 -159 10q-10 -129 -9 -292.5t9 -285.5h-194q7 119 7.5 287.5t-7.5 290.5q-106 3 -182 -10l20 156q210 -14 535 0z" />
<glyph unicode="U" horiz-adv-x="603" d="M556 724q-16 -277 -6 -484q4 -100 -73.5 -173.5t-176.5 -73.5t-174.5 72t-74.5 176q5 326 -8 483h186q-7 -96 -10 -248.5t1 -248.5q1 -36 29 -63t53 -27q28 0 54.5 23t27.5 62q9 211 -3 502h175z" />
<glyph unicode="V" horiz-adv-x="586" d="M562 716l-44.5 -157.5l-57 -199t-48.5 -183.5t-39 -176h-169q-14 79 -98 368.5t-100 349.5l195 15q9 -174 87 -489q88 374 100 488z" />
<glyph unicode="W" horiz-adv-x="850" d="M811 716q-116 -416 -171 -716h-170q-34 182 -62 290q-51 -194 -69 -290h-157q-7 39 -22 104t-38 154.5l-40.5 156.5l-44.5 169l-35 134l195 15q14 -267 69 -489l36.5 143.5t39 160.5t22.5 126l106 10q12 -125 35.5 -250t49.5 -190q57 240 82 488z" />
<glyph unicode="X" horiz-adv-x="556" d="M512 724q-33 -130 -163 -361q68 -122 107 -208t46 -155h-177q-10 99 -70 218q-61 -122 -71 -218h-177q14 109 153 365q-130 231 -163 359h177q29 -118 79 -214q48 94 82 214h177z" />
<glyph unicode="Y" d="M542 724q-151 -376 -180 -471q-9 -135 0 -253h-177q12 105 0 260q-19 57 -47 130l-71.5 181.5l-60.5 152.5h177q15 -145 91 -347q76 201 91 347h177z" />
<glyph unicode="Z" horiz-adv-x="592" d="M541 156l-26 -156h-489l-4 20l46.5 92.5l59.5 119.5l54.5 114t54.5 123t36 99q-105 12 -257 0l26 156h491l4 -20q-62 -112 -138.5 -278t-112.5 -270q49 -5 126 -5t129 5z" />
<glyph unicode="[" horiz-adv-x="370" d="M325 0h-299q13 438 0 724h299l-20 -128h-102q-14 -211 0 -468h102z" />
<glyph unicode="\" horiz-adv-x="528" d="M473 0h-157q-14 130 -141 358q-103 184 -151 366h157q41 -168 129 -323q148 -264 163 -401z" />
<glyph unicode="]" horiz-adv-x="370" d="M325 0h-299l20 128h102q15 191 0 468h-102l-20 128h299q-27 -290 0 -724z" />
<glyph unicode="^" horiz-adv-x="549" d="M522 448l-102 -91q-79 103 -149 165q-57 -49 -157 -170l-91 102q50 51 124.5 134.5t115.5 136.5q45 -54 126 -140.5t133 -136.5z" />
<glyph unicode="_" horiz-adv-x="388" d="M402 -166h-416v108h416v-108z" />
<glyph unicode="`" horiz-adv-x="434" d="M316 553h-114q-38 68 -119 171h162q7 -32 29 -85t42 -86z" />
<glyph unicode="a" horiz-adv-x="563" d="M362 464l153 52q-18 -225 -1 -516h-171q10 34 8 56q-1 -1 -9 -7.5t-10.5 -9t-10.5 -9t-12.5 -9.5l-13 -8.5t-14.5 -8t-14.5 -6.5t-16.5 -5.5t-17.5 -3t-18.5 -1.5q-73 0 -126.5 85t-51.5 194q2 110 62 186t149 76q34 0 66.5 -18t48.5 -47zM340 267q2 55 -16.5 97 t-53.5 42q-34 0 -52.5 -41.5t-19.5 -97.5q-1 -57 17 -101t52 -44t53 44t20 101z" />
<glyph unicode="b" horiz-adv-x="523" d="M500 255q0 -107 -59.5 -188t-136.5 -81q-10 0 -19.5 1.5t-16 3.5t-15.5 7t-13 7.5t-13 10.5t-11.5 10t-12 12l-11.5 12l2 -50h-167q18 436 0 720l167 48q-7 -138 -7 -283q1 1 8 6.5t8.5 6.5t8 6t9.5 6t10 5t12 5t12.5 3.5t15 3t17 1.5t19.5 1q83 0 138 -81t55 -193z M324 269q0 56 -15.5 92.5t-49.5 36.5q-19 0 -40 -11.5t-33 -30.5q0 -19 0.5 -55t1 -65.5t1.5 -54.5q13 -17 33.5 -27.5t39.5 -10.5q62 0 62 126z" />
<glyph unicode="c" horiz-adv-x="463" d="M442 397l-87 -75q-6 31 -33 49t-60 18q-36 0 -62.5 -36.5t-26.5 -89.5q0 -59 23.5 -98t60.5 -44q9 -3 20.5 -1.5t17.5 1.5t15 4t12.5 5t10.5 6t9.5 7l8.5 7t7 6l74 -77q-70 -98 -186 -98q-97 0 -165 80.5t-68 193.5q0 116 67.5 195.5t173.5 79.5q63 0 118 -36t70 -97z " />
<glyph unicode="d" horiz-adv-x="534" d="M499 0h-167l1 36q-13 -16 -38.5 -29t-44.5 -13q-92 0 -158.5 76.5t-66.5 184.5q0 110 68.5 190t164.5 80q51 0 80 -42l1 -3q-2 152 -7 240l167 48q-18 -328 0 -768zM340 357q-23 37 -63 37q-35 0 -55.5 -36t-20.5 -89t22 -90t58 -37t56 33q1 27 1.5 57.5t1 67.5t0.5 57z " />
<glyph unicode="e" horiz-adv-x="532" d="M507 312l-308 -149q9 -19 36 -32t53 -13q35 0 81.5 15.5t68.5 39.5l36 -106q-65 -81 -209 -81q-104 0 -173.5 83.5t-69.5 187.5q0 109 68.5 189t179.5 80q88 0 147.5 -63.5t89.5 -150.5zM338 346q-24 53 -80 53q-44 0 -68 -33t-26 -72q0 -6 4 -28z" />
<glyph unicode="f" horiz-adv-x="431" d="M412 713l-29 -111q-18 23 -57 23q-37 0 -59.5 -26t-23.5 -58v-26h140l-18 -137h-121q5 -213 18 -378h-167q8 138 2 378h-84l20 137h61q-1 49 5 80t25 70q23 46 74.5 73t104.5 27q55 0 109 -52z" />
<glyph unicode="g" horiz-adv-x="557" d="M508 504q-9 -96 -8 -228t8 -230q5 -68 -13 -137q-17 -58 -77 -97.5t-152 -39.5q-43 0 -77 5t-49 10t-33 13.5t-22 9.5l12 150q35 -27 88 -44t89 -12q32 4 53 31t23 53l-2 55q-46 -49 -105 -49q-92 0 -155.5 76.5t-63.5 184.5q0 111 61 190.5t155 79.5q53 0 97 -50v70z M345 166q5 66 -2 185q-12 12 -18 17.5t-20 10.5t-33 5q-35 0 -53.5 -37t-18.5 -92t18.5 -92t53.5 -37q48 0 73 40z" />
<glyph unicode="h" horiz-adv-x="518" d="M482 0h-180q20 123 8 301q-6 83 -49 83q-13 0 -28 -13t-23 -26q0 -163 7 -345h-167q18 436 0 720l167 48q-7 -145 -7 -300q52 62 110 62q43 0 72.5 -20t43 -54t18 -69.5t2.5 -75.5q-9 -228 26 -311z" />
<glyph unicode="i" horiz-adv-x="261" d="M205 632q0 -33 -23.5 -56.5t-56.5 -23.5t-56.5 23.5t-23.5 56.5t23.5 56.5t56.5 23.5t56.5 -23.5t23.5 -56.5zM208 0h-167q6 90 6.5 228.5t-6.5 240.5l167 48q-13 -276 0 -517z" />
<glyph unicode="j" horiz-adv-x="261" d="M210 632q0 -33 -23.5 -56.5t-56.5 -23.5t-56.5 23.5t-23.5 56.5t23.5 56.5t56.5 23.5t56.5 -23.5t23.5 -56.5zM218 86q2 -90 -3.5 -131t-26.5 -87q-19 -42 -74 -71t-119 -29q-41 0 -76.5 15t-49.5 27t-33 32l47 104q37 -45 101 -42q27 1 45 25.5t24 49t8 51.5 q9 142 -11 439l167 48q-2 -65 1 -431z" />
<glyph unicode="k" horiz-adv-x="544" d="M537 22l-158 -40q-24 52 -59.5 113.5t-57.5 87.5l-64 -75l4 -108h-167q18 436 0 720l167 48q-9 -168 -7 -437q34 35 81.5 99.5t65.5 103.5l151 -31q-51 -91 -135 -203l58.5 -92.5l71.5 -112.5z" />
<glyph unicode="l" horiz-adv-x="264" d="M217 0h-167q18 436 0 720l167 48q-18 -328 0 -768z" />
<glyph unicode="m" horiz-adv-x="805" d="M763 0h-189q10 114 0 297q-6 73 -41 73q-12 0 -22.5 -8.5t-15 -15.5t-12.5 -22q-8 -75 -5 -165.5t13 -158.5h-183q10 185 4 304q-1 27 -11 52t-32 25q-7 0 -15 -4.5t-11.5 -8l-12 -12.5t-9.5 -11q-12 -88 0 -345h-169q16 216 0 491l169 56q-6 -66 -6 -85q19 24 54 43 t63 19q40 0 76 -21t56 -56q25 37 63.5 58t82.5 21q43 0 73 -21t44 -56t19 -71t2 -75q-14 -222 15 -303z" />
<glyph unicode="n" horiz-adv-x="523" d="M488 0l-185 1q9 178 6 284q-2 87 -43 87q-29 0 -52 -33q-6 -65 0 -339h-169q8 98 8 240t-8 251l169 56q-3 -18 0 -79q19 25 59 42t73 17q138 0 125 -229q-4 -74 1 -168t16 -130z" />
<glyph unicode="o" horiz-adv-x="520" d="M496 258q0 -125 -68 -200t-167 -75q-100 0 -167.5 75t-67.5 200q0 127 67 200t168 73q99 0 167 -74.5t68 -198.5zM341 258q0 60 -20.5 101t-60.5 41q-42 0 -61 -40.5t-19 -101.5q0 -58 21.5 -100t58.5 -42q41 0 61 41t20 101z" />
<glyph unicode="p" horiz-adv-x="550" d="M512 255q0 -108 -66 -186.5t-158 -78.5q-46 0 -91 58l-2 8q1 -78 7 -256h-167q17 421 0 695l167 48l-3 -77q44 60 107 60q86 0 146 -80.5t60 -190.5zM336 255q0 53 -21.5 91t-56.5 38q-46 0 -63 -61v-145q9 -21 26 -36.5t37 -15.5q35 0 56.5 38t21.5 91z" />
<glyph unicode="q" horiz-adv-x="541" d="M485 -180l-171 -20q0 20 2.5 79.5t3.5 93t0 65.5q-39 -44 -111 -44q-77 0 -137 77.5t-60 183.5q0 110 59 191.5t141 81.5q81 0 123 -58l154 48q-21 -356 -4 -698zM323 180q3 86 0 139q-8 28 -26.5 44.5t-43.5 16.5q-35 0 -56 -36t-21 -89t21 -90t56 -37q23 0 42.5 14 t27.5 38z" />
<glyph unicode="r" horiz-adv-x="477" d="M457 349l-133 -79q-1 51 -20.5 81.5t-49.5 30.5q-23 0 -53 -43q-3 -159 6 -339h-167q6 90 6.5 228.5t-6.5 240.5l167 58q-2 -38 -2 -67q64 66 130 66q60 0 91 -52.5t31 -124.5z" />
<glyph unicode="s" horiz-adv-x="426" d="M395 483l-31 -112q-24 19 -58.5 33t-58.5 14q-21 0 -38 -8.5t-17 -26.5q0 -19 20.5 -35t50 -30.5t59 -33t50 -52.5t20.5 -79q0 -92 -57.5 -130.5t-144.5 -38.5q-43 0 -94.5 15t-68.5 43l27 107q31 -22 53 -31.5t54 -9.5q27 0 39.5 14.5t12.5 35.5q0 16 -20 29t-48.5 26 t-57.5 29.5t-49 48t-20 74.5q0 88 59 127.5t154 39.5q112 0 164 -49z" />
<glyph unicode="t" horiz-adv-x="455" d="M426 43q-11 -15 -50 -34.5t-69 -20.5q-207 -3 -193 209q4 68 4 181h-101l20 137h79l-3 117l169 55q-2 -79 -6 -172h111l-18 -137h-96q-1 -81 2 -154q5 -78 55 -82q44 -3 74 27z" />
<glyph unicode="u" horiz-adv-x="532" d="M487 19l-163 -27q4 39 2 82q-25 -35 -68 -58t-92 -23q-48 0 -79.5 37.5t-41 83t-7.5 90.5q9 148 1 311h174q-1 -21 -5.5 -96.5t-6 -113t0.5 -92.5q7 -72 43 -72q19 0 43.5 11t31.5 20q11 124 0 343h165q-16 -218 2 -496z" />
<glyph unicode="v" horiz-adv-x="541" d="M511 511q-38 -94 -85.5 -247t-73.5 -264l-152 -23q-83 275 -202 534l175 10q49 -192 100 -292q40 93 78 292z" />
<glyph unicode="w" horiz-adv-x="757" d="M738 511q-87 -224 -152 -511l-141 -13q-38 201 -63 262q-16 -37 -40 -117.5t-35 -131.5l-130 -13q-78 276 -171 524l177 10q41 -220 66 -293q9 21 22 60t22 70.5l22.5 80.5l16.5 60l100 1q66 -235 85 -275q14 42 31 138t24 158z" />
<glyph unicode="x" horiz-adv-x="505" d="M499 0l-170 -2q-47 92 -76 144q-54 -92 -94 -171l-139 29l164 259l-169 256l183 4q30 -67 64 -128q44 75 83 151l144 -27q-25 -35 -79.5 -128l-73.5 -124z" />
<glyph unicode="y" horiz-adv-x="528" d="M524 492q-40 -105 -99 -290t-94 -313q-11 -39 -32.5 -64t-52 -34.5t-51 -12t-49.5 -2.5q-26 0 -63.5 12.5t-51.5 21.5l28 117q39 -15 77 -15q40 0 55 32l25 48q-68 196 -207 499l159 31q17 -59 54 -150t66 -140q13 41 42 153.5t36 136.5z" />
<glyph unicode="z" horiz-adv-x="455" d="M420 489q-45 -69 -107 -185t-85 -173q28 -4 87.5 -1.5t96.5 10.5l-19 -142q-66 4 -108 3.5t-126.5 -3t-128.5 -2.5l-10 28q152 296 180 366q-74 11 -188 0l20 129q146 -11 372 0z" />
<glyph unicode="{" horiz-adv-x="422" d="M383 11q-20 -19 -58.5 -34.5t-65.5 -15.5q-72 0 -109.5 47t-37.5 121q0 20 5.5 60t5.5 60q0 51 -14.5 67t-78.5 19v66q51 3 71 14.5t20 44.5q0 24 -4.5 71.5t-4.5 71.5q0 76 37 120.5t111 44.5q58 0 117 -39l-18 -85q-15 7 -55 7q-16 0 -25 -3.5t-12.5 -13t-4.5 -17.5 t-1 -26q0 -21 4.5 -64t4.5 -65q0 -58 -57 -95q56 -31 56 -106q0 -19 -3.5 -57t-3.5 -58q0 -24 2 -35t12.5 -19.5t33.5 -8.5q32 0 53 14z" />
<glyph unicode="|" horiz-adv-x="214" d="M170 -37h-127q9 351 0 805h127q-9 -457 0 -805z" />
<glyph unicode="}" horiz-adv-x="401" d="M377 335q-64 -3 -78.5 -19t-14.5 -67q0 -20 5.5 -60t5.5 -60q0 -74 -37.5 -121t-109.5 -47q-27 0 -65.5 15.5t-58.5 34.5l20 86q21 -14 53 -14t40 14t8 49q0 20 -3.5 58t-3.5 57q0 75 56 106q-57 37 -57 95q0 22 4.5 65t4.5 64q0 23 -1.5 33t-11.5 18.5t-31 8.5 q-39 0 -54 -7l-18 85q24 16 57.5 27.5t59.5 11.5q74 0 111 -45t37 -120q0 -24 -5 -71.5t-5 -71.5q0 -33 20.5 -44.5t71.5 -14.5v-66z" />
<glyph unicode="~" horiz-adv-x="578" d="M550 515q-4 -7 -11 -18t-29.5 -40t-45.5 -51t-57 -39.5t-66 -17.5q-34 0 -57 15t-32 32.5t-24 33t-35 17.5q-27 3 -53.5 -15.5t-39.5 -37.5l-13 -20l-66 128q4 5 10.5 12.5t26.5 27.5t39.5 35t45 27.5t47.5 12.5q26 0 48.5 -16t35.5 -35.5t31 -35.5t36 -16q46 0 108 107 l10 17z" />
<glyph unicode="&#xa1;" horiz-adv-x="245" d="M195 646q0 -36 -26 -61.5t-63 -25.5t-62.5 25.5t-25.5 61.5t25.5 61.5t62.5 25.5t63 -25.5t26 -61.5zM197 5q-96 -20 -178 0q22 199 30 475l122 20q9 -262 26 -495z" />
<glyph unicode="&#xa2;" horiz-adv-x="462" d="M422 498l-94 -71q-6 24 -31.5 40.5t-48.5 16.5q-42 0 -65 -30t-23 -75q0 -43 25.5 -72.5t62.5 -29.5q30 0 53.5 13t31.5 35l80 -76q-50 -63 -115 -83v-111h-113v112q-69 19 -113.5 78t-44.5 134t44.5 134t113.5 79v115h113v-114q40 -7 75 -31.5t49 -63.5z" />
<glyph unicode="&#xa3;" horiz-adv-x="587" d="M548 0h-472q27 96 27 217q0 51 -3 100h-90v89l90 -2q1 19 -0.5 55.5t-1.5 47.5q0 106 56 172t160 66q66 0 105 -16t77 -56l-43 -108q-43 51 -85 51q-41 0 -66 -22t-31 -54.5t-8 -69t3 -66.5l98 2v-89h-99q-3 -47 4 -165h279v-152z" />
<glyph unicode="&#xa5;" horiz-adv-x="566" d="M518 724q-20 -144 -111 -372h99v-69h-127l-26 -63h153v-69h-156v-151h-177v151h-157v69h157l-28 63h-129v69h100q-85 209 -110 372h177q10 -94 26 -160t53 -147q37 89 53.5 154.5t25.5 152.5h177z" />
<glyph unicode="&#xa6;" horiz-adv-x="150" d="M123 403h-90v361h90v-361zM123 -64h-90v368h90v-368z" />
<glyph unicode="&#xa7;" horiz-adv-x="492" d="M464 378q6 -81 -48 -137l-9 -8q13 -30 13 -65q0 -123 -132 -168q-50 -17 -111 -10.5t-104 33.5l-5 140q11 -17 65 -38.5t88 -12.5q35 10 40.5 32t-13.5 33q-36 2 -103.5 26.5t-90.5 47.5q-38 38 -43 93q-6 83 48 139l9 8q-13 30 -13 65q0 123 133 168q50 17 110.5 10.5 t102.5 -33.5l6 -140q-13 18 -66.5 41.5t-86.5 14.5q-23 -7 -33.5 -21t-8 -27.5t13.5 -21.5q37 -2 104.5 -26.5t89.5 -47.5q15 -15 28.5 -42.5t15.5 -52.5zM312 303q20 17 12 49.5t-34 43.5q-56 23 -134 26q-21 -16 -15.5 -48.5t32.5 -43.5q16 -7 36 -12t33 -7t37 -4.5z" />
<glyph unicode="&#xa8;" horiz-adv-x="499" d="M419 651q0 -31 -22 -52.5t-53 -21.5t-53 21.5t-22 52.5t22 52.5t53 21.5t53 -21.5t22 -52.5zM198 651q0 -31 -22 -52.5t-53 -21.5t-53 21.5t-22 52.5t22 52.5t53 21.5t53 -21.5t22 -52.5z" />
<glyph unicode="&#xa9;" horiz-adv-x="760" d="M742 359q0 -154 -107 -263t-258 -109t-258 109t-107 263t107 263t258 109t258 -109t107 -263zM682 359q0 128 -89 219t-216 91q-126 0 -215.5 -91t-89.5 -219q0 -129 89.5 -220t215.5 -91q127 0 216 91t89 220zM543 446l-102 -46q-6 23 -24 35t-38 12q-28 0 -43.5 -24.5 t-15.5 -65.5t15 -64t44 -23q15 0 35 11t27 27l95 -57q-64 -99 -161 -99q-79 0 -135 60t-56 145t56 145.5t135 60.5q55 0 106 -30.5t62 -86.5z" />
<glyph unicode="&#xaa;" horiz-adv-x="410" d="M366 321h-124l8 41l-19 -15t-21 -15.5t-17 -9.5t-17 -5q-64 0 -105.5 59t-41.5 141q0 80 42.5 135t110.5 55q36 0 64 -46l-4 60l124 -25q-14 -211 0 -375zM369 185h-344v92h344v-92zM238 516q0 87 -48 87q-50 0 -50 -87q0 -40 12.5 -67.5t37.5 -27.5t36.5 27t11.5 68z " />
<glyph unicode="&#xab;" horiz-adv-x="668" d="M638 83l-75 -96q-132 130 -283 260q144 134 267 272l91 -80q-89 -87 -175 -195q58 -61 175 -161zM370 83l-75 -96q-119 121 -284 260q117 98 268 272l91 -80q-107 -107 -175 -195q59 -67 175 -161z" />
<glyph unicode="&#xac;" d="M449 375l-95 -106l14 -142l-131 57l-130 -57l14 142l-95 106l139 31l72 123l72 -123z" />
<glyph unicode="&#xae;" horiz-adv-x="760" d="M742 359q0 -154 -107 -263t-258 -109t-258 109t-107 263t107 263t258 109t258 -109t107 -263zM682 359q0 128 -89 219t-216 91q-126 0 -215.5 -91t-89.5 -219q0 -129 89.5 -220t215.5 -91q127 0 216 91t89 220zM539 416q0 -68 -66 -107q46 -79 65 -148h-119 q-5 67 -40 122l-40 -2q0 -16 4 -120h-118q10 205 0 404h147q62 0 114.5 -44.5t52.5 -104.5zM426 415q-1 58 -83 55q-8 -70 -4 -107q38 0 63 12t24 40z" />
<glyph unicode="&#xaf;" horiz-adv-x="331" d="M309 589q-115 9 -293 0v106q133 -4 293 0v-106z" />
<glyph unicode="&#xb0;" horiz-adv-x="461" d="M409 528q0 -81 -55.5 -138.5t-133.5 -57.5q-79 0 -134.5 57.5t-55.5 138.5q0 82 55.5 139t134.5 57q78 0 133.5 -57t55.5 -139zM314 528q0 41 -27.5 69.5t-66.5 28.5q-40 0 -67.5 -28.5t-27.5 -69.5t27.5 -69.5t67.5 -28.5q39 0 66.5 28.5t27.5 69.5z" />
<glyph unicode="&#xb1;" horiz-adv-x="289" d="M272 327h-83v-138h-81v138h-83v105h83v138h81v-138h83v-105zM271 57h-241v107h241v-107z" />
<glyph unicode="&#xb2;" horiz-adv-x="250" d="M236 635q0 -12 -4 -32q-3 -15 -13.5 -30.5t-32.5 -41.5t-36 -44l-9 -12l-7.5 -10t-4.5 -8t-4.5 -11.5t-3.5 -14.5h110v-73l-208 -1l-11 40l7.5 23.5t6.5 20t6 15t9 18.5t13 21q11 16 48 52t44 64q5 18 -6.5 29.5t-33.5 9.5q-18 -2 -33.5 -15.5t-22.5 -26.5l-7 -13l-36 55 q1 3 3.5 8t11.5 18.5t20.5 23.5t32.5 18t46 7q59 -1 86.5 -29.5t28.5 -60.5z" />
<glyph unicode="&#xb3;" horiz-adv-x="259" d="M235 452q-17 -88 -115 -90q-39 0 -67.5 19t-37.5 38l-9 19l36 54q3 -6 7.5 -14t21 -23.5t34.5 -17.5q14 -1 22 5t10.5 12.5t6.5 22.5q15 51 -41 70q-20 2 -39 -4q5 10 30.5 50t32.5 58h-109v73h207l10 -44q-22 -32 -56 -90q18 -6 29.5 -18t21.5 -41q13 -37 5 -79z" />
<glyph unicode="&#xb4;" horiz-adv-x="513" d="M368 764q-29 -36 -65.5 -95.5t-53.5 -95.5h-114q46 88 70 191h163z" />
<glyph unicode="&#xb5;" horiz-adv-x="547" d="M530 116l-73 -134q-44 46 -66 72q-19 -30 -56.5 -46.5t-74.5 -10.5q-14 2 -37.5 21t-36.5 36q-3 -47 -2 -80t5 -94t5 -80h-169q12 356 0 717h169q-1 -27 -4.5 -110.5t-5 -128t1.5 -106.5q3 -11 24 -19t32 -8q38 0 41 75q6 166 0 296l174 1q-2 -42 1 -315q0 -12 5 -27 q21 -46 67 -59z" />
<glyph unicode="&#x3bc;" horiz-adv-x="547" d="M530 116l-73 -134q-44 46 -66 72q-19 -30 -56.5 -46.5t-74.5 -10.5q-14 2 -37.5 21t-36.5 36q-3 -47 -2 -80t5 -94t5 -80h-169q12 356 0 717h169q-1 -27 -4.5 -110.5t-5 -128t1.5 -106.5q3 -11 24 -19t32 -8q38 0 41 75q6 166 0 296l174 1q-2 -42 1 -315q0 -12 5 -27 q21 -46 67 -59z" />
<glyph unicode="&#xb6;" horiz-adv-x="640" d="M579 0h-265q10 121 4 199h-43q-94 0 -171 75t-77 183t78.5 187.5t171.5 79.5h302q-12 -417 0 -724zM478 35q10 287 0 637h-55q-11 -360 0 -637h55zM320 342q0 68 -6 239q-54 1 -87 -34.5t-32 -90.5q1 -54 36 -86t89 -28z" />
<glyph unicode="&#xb7;" horiz-adv-x="245" d="M211 266q0 -36 -26 -61.5t-63 -25.5t-63 25.5t-26 61.5t26 61.5t63 25.5t63 -25.5t26 -61.5z" />
<glyph unicode="&#xb8;" horiz-adv-x="463" d="M326 -122q0 -40 -30 -59t-64 -19q-16 0 -40.5 12t-41.5 24l-16 12l9 35q3 -2 8 -5t20 -11t26 -11t26.5 -5t20.5 6q32 28 -14 48q-11 4 -21.5 3t-18.5 -4l-8 -4l64 125l55 -1l-48 -78q3 0 8 -1t17.5 -6t22 -11.5t17.5 -19.5t8 -30z" />
<glyph unicode="&#xb9;" horiz-adv-x="130" d="M101 362h-88v362h88v-362z" />
<glyph unicode="&#xba;" horiz-adv-x="426" d="M389 515q0 -86 -52.5 -147t-126.5 -61t-127 61t-53 147q0 87 53 148t127 61t126.5 -61t52.5 -148zM377 185h-344v92h344v-92zM277 515q0 43 -18 72t-50 29q-31 0 -49.5 -29.5t-18.5 -71.5t18.5 -70.5t49.5 -28.5q32 0 50 28t18 71z" />
<glyph unicode="&#xbb;" horiz-adv-x="668" d="M638 259q-124 -106 -267 -272l-91 80q111 114 174 195q-65 73 -175 161l76 96q115 -117 283 -260zM369 259q-52 -48 -135 -133t-131 -139l-91 80q84 83 174 195q-58 61 -175 161l76 96q98 -98 282 -260z" />
<glyph unicode="&#xbc;" horiz-adv-x="495" d="M185 448h-89v352h89v-352zM462 462l-412 -205l-2 94l412 205zM447 90h-20v-90h-86v90l-134 -1l-12 42q15 28 30 90.5t19 98.5h75q-8 -73 -37 -164h59v206h86v-206h20v-66z" />
<glyph unicode="&#xbd;" horiz-adv-x="495" d="M185 448h-89v309l89 43v-352zM462 462l-412 -205l-2 94l412 205zM461 277q0 -12 -4 -32q-3 -16 -13.5 -31.5t-32.5 -41t-36 -44.5q-4 -5 -9 -12t-7 -9.5t-5 -8t-5 -11t-4 -14.5h111v-74h-209l-10 40q3 9 8.5 27.5t8 24t9 18.5t16.5 28q10 16 47 52t44 64q5 18 -6.5 29.5 t-32.5 9.5q-18 -2 -33.5 -15.5t-22.5 -26.5l-7 -13l-36 55q1 3 3.5 8t11.5 18t20.5 23t32.5 18t46 8q59 -1 86.5 -29.5t28.5 -60.5z" />
<glyph unicode="&#xbe;" horiz-adv-x="495" d="M257 528q-17 -89 -115 -90q-75 -1 -109 64l-5 11l36 55l7.5 -14.5t21 -23.5t34.5 -17q10 -1 17 1t11.5 9t6 12t4.5 17q9 29 -2 45t-39 26q-16 2 -39 -4q6 11 31 50t32 57h-109v74h207l10 -45q-19 -26 -56 -90q18 -5 29.5 -17t21.5 -41q13 -38 5 -79zM462 460l-412 -205 l-2 96l412 205zM447 90h-20v-90h-86v90l-134 -1l-12 42q15 28 30 90.5t19 98.5h75q-8 -73 -37 -164h59v206h86v-206h20v-66z" />
<glyph unicode="&#xbf;" horiz-adv-x="476" d="M345 640q0 -33 -23.5 -57.5t-56.5 -24.5t-56.5 24.5t-23.5 57.5q0 34 23 58t57 24q33 0 56.5 -24t23.5 -58zM455 143q-24 -70 -87.5 -110t-140.5 -40q-92 0 -157 49.5t-65 139.5q0 43 14.5 78.5t36.5 57.5t47 44t47 38t36.5 38t14.5 46q0 14 -4 38l140 -22q4 -28 4 -42 q0 -40 -18.5 -70t-44.5 -49t-52.5 -36.5t-45 -43.5t-18.5 -59q0 -35 23.5 -59.5t57.5 -24.5q41 0 84 35.5t71 78.5z" />
<glyph unicode="&#xc0;" horiz-adv-x="594" d="M579 10l-191 -28q-1 11 -6 61t-8 72h-162q-1 -8 -10 -62.5t-10 -73.5l-167 31l163 714h208q69 -296 183 -714zM356 232q-36 226 -57 283q-18 -52 -39 -141t-28 -142h124zM366 770h-114q-38 68 -119 171h162q7 -32 29 -85t42 -86z" />
<glyph unicode="&#xc1;" horiz-adv-x="596" d="M579 10l-191 -28q-1 11 -6 61t-8 72h-162q-1 -8 -10 -62.5t-10 -73.5l-167 31l163 714h208q69 -296 183 -714zM356 232q-36 226 -57 283q-18 -52 -39 -141t-28 -142h124zM424 956q-29 -36 -65.5 -95.5t-53.5 -95.5h-114q46 88 70 191h163z" />
<glyph unicode="&#xc2;" horiz-adv-x="601" d="M579 10l-191 -28q-1 11 -6 61t-8 72h-162q-1 -8 -10 -62.5t-10 -73.5l-167 31l163 714h208q69 -296 183 -714zM356 232q-36 226 -57 283q-18 -52 -39 -141t-28 -142h124zM496 775h-138q-39 50 -71 73q-39 -28 -72 -73h-145q95 84 172 177h81q21 -30 75 -84.5t98 -92.5z " />
<glyph unicode="&#xc3;" horiz-adv-x="597" d="M579 10l-191 -28q-1 11 -6 61t-8 72h-162q-1 -8 -10 -62.5t-10 -73.5l-167 31l163 714h208q69 -296 183 -714zM356 232q-36 226 -57 283q-18 -52 -39 -141t-28 -142h124zM467 854q-2 -3 -5.5 -9t-16 -21t-27 -26t-39 -20.5t-50.5 -9.5q-32 0 -50.5 7.5t-24 16t-15 16.5 t-25.5 9q-49 2 -87 -37l-37 69l18 18t43 29t60 18q34 0 68.5 -26.5t54.5 -26.5t41.5 13.5t32.5 26.5l12 13z" />
<glyph unicode="&#xc4;" horiz-adv-x="591" d="M579 10l-191 -28q-1 11 -6 61t-8 72h-162q-1 -8 -10 -62.5t-10 -73.5l-167 31l163 714h208q69 -296 183 -714zM356 232q-36 226 -57 283q-18 -52 -39 -141t-28 -142h124zM460 840q0 -31 -22 -52.5t-53 -21.5t-53 21.5t-22 52.5t22 52.5t53 21.5t53 -21.5t22 -52.5z M239 840q0 -31 -22 -52.5t-53 -21.5t-53 21.5t-22 52.5t22 52.5t53 21.5t53 -21.5t22 -52.5z" />
<glyph unicode="&#xc5;" horiz-adv-x="598" d="M579 10l-191 -28q-1 11 -6 61t-8 72h-162q-1 -8 -10 -62.5t-10 -73.5l-167 31l163 714h208q69 -296 183 -714zM356 232q-36 226 -57 283q-18 -52 -39 -141t-28 -142h124zM390 857q0 -49 -33.5 -83t-80.5 -34t-80.5 34t-33.5 83t33.5 83.5t80.5 34.5t80.5 -34.5 t33.5 -83.5zM322 857q0 19 -13.5 33t-32.5 14t-32 -13.5t-13 -33.5t13 -33.5t32 -13.5t32.5 14t13.5 33z" />
<glyph unicode="&#xc6;" horiz-adv-x="777" d="M731 0h-392v115h-141q-2 -15 -10 -66.5t-9 -69.5l-167 31q25 159 76 383.5t86 330.5h557v-156h-226l-6 -119h179l-37 -134h-142q-2 -99 6 -159h226v-156zM339 239q-6 67 -20 166t-27 145q-19 -53 -43.5 -156t-31.5 -155h122z" />
<glyph unicode="&#xc7;" horiz-adv-x="550" d="M515 170q-15 -71 -75.5 -124.5t-125.5 -60.5l-17 -27q3 0 8 -1t17.5 -6t22 -11.5t17.5 -19.5t8 -30q0 -40 -30 -59t-64 -19q-16 0 -40.5 12t-41.5 24l-16 12l9 35q3 -2 8 -5t20 -11t26 -11t26.5 -5t20.5 6q32 28 -14 48q-11 4 -21.5 3t-18.5 -4l-8 -4l38 74 q-107 17 -178.5 124t-71.5 252q0 158 80.5 267.5t202.5 109.5q71 0 134 -42.5t76 -118.5l-131 -96q-16 46 -32 66.5t-47 20.5q-51 0 -81.5 -60t-30.5 -150q0 -89 32 -151.5t80 -62.5q25 0 40.5 16.5t30.5 51.5z" />
<glyph unicode="&#xc8;" horiz-adv-x="473" d="M440 0h-401q20 310 0 724h401v-146h-224q-4 -68 -4 -149h185l-26 -134h-159l4 -149h224v-146zM314 746h-114q-38 68 -119 171h162q7 -32 29 -85t42 -86z" />
<glyph unicode="&#xc9;" horiz-adv-x="459" d="M440 0h-401q20 310 0 724h401v-146h-224q-4 -68 -4 -149h185l-26 -134h-159l4 -149h224v-146zM393 946q-29 -36 -65.5 -95.5t-53.5 -95.5h-114q46 88 70 191h163z" />
<glyph unicode="&#xca;" horiz-adv-x="480" d="M440 0h-401q20 310 0 724h401v-146h-224q-4 -68 -4 -149h185l-26 -134h-159l4 -149h224v-146zM436 767h-138q-39 50 -71 73q-39 -28 -72 -73h-145q95 84 172 177h81q21 -30 75 -84.5t98 -92.5z" />
<glyph unicode="&#xcb;" horiz-adv-x="480" d="M440 0h-401q20 310 0 724h401v-146h-224q-4 -68 -4 -149h185l-26 -134h-159l4 -149h224v-146zM191 844q0 -31 -22 -52.5t-53 -21.5t-53 21.5t-22 52.5t22 52.5t53 21.5t53 -21.5t22 -52.5zM412 844q0 -31 -22 -52.5t-53 -21.5t-53 21.5t-22 52.5t22 52.5t53 21.5 t53 -21.5t22 -52.5z" />
<glyph unicode="&#xcc;" horiz-adv-x="269" d="M224 0h-177q10 145 9.5 349.5t-9.5 374.5h177q-9 -174 -9 -381t9 -343zM221 776h-114q-38 68 -119 171h162q7 -32 29 -85t42 -86z" />
<glyph unicode="&#xcd;" horiz-adv-x="275" d="M224 0h-177q10 145 9.5 349.5t-9.5 374.5h177q-9 -174 -9 -381t9 -343zM287 943q-29 -36 -65.5 -95.5t-53.5 -95.5h-114q46 88 70 191h163z" />
<glyph unicode="&#xce;" horiz-adv-x="275" d="M224 0h-177q10 145 9.5 349.5t-9.5 374.5h177q-9 -174 -9 -381t9 -343zM343 765h-138q-39 50 -71 73q-39 -28 -72 -73h-145q95 84 172 177h81q21 -30 75 -84.5t98 -92.5z" />
<glyph unicode="&#xcf;" horiz-adv-x="341" d="M260 0h-177q20 317 0 724h177q-10 -174 -10 -381t10 -343zM353 862q0 -31 -22 -52.5t-53 -21.5t-53 21.5t-22 52.5t22 53t53 22t53 -22t22 -53zM132 862q0 -31 -22 -52.5t-53 -21.5t-53 21.5t-22 52.5t22 53t53 22t53 -22t22 -53z" />
<glyph unicode="&#xd1;" horiz-adv-x="584" d="M548 0h-146q-46 77 -212 303l-2 -2q2 -181 9 -301h-157q10 145 9.5 349.5t-9.5 374.5h102q31 -62 119.5 -210t135.5 -220l2 2q3 187 -8 428h157q-9 -177 -9.5 -381t9.5 -343zM452 831q-2 -3 -5.5 -9t-16 -21t-27 -26t-39 -20.5t-50.5 -9.5q-32 0 -50.5 7.5t-24 16 t-15 16.5t-25.5 9q-49 2 -87 -37l-37 69l18 18t43 29t60 18q34 0 68.5 -26.5t54.5 -26.5t41.5 13t33.5 27l11 13z" />
<glyph unicode="&#xd2;" horiz-adv-x="669" d="M640 361q0 -169 -90 -272t-219 -103q-126 0 -219 108.5t-93 266.5q0 165 92.5 270t219.5 105q128 0 218.5 -104.5t90.5 -270.5zM463 357q0 92 -36.5 161.5t-94.5 69.5q-62 0 -99 -69t-37 -162q0 -92 37 -161.5t99 -69.5q61 0 96 69t35 162zM404 773h-114q-38 68 -119 171 h162q7 -32 29 -85t42 -86z" />
<glyph unicode="&#xd3;" horiz-adv-x="666" d="M640 361q0 -169 -90 -272t-219 -103q-126 0 -219 108.5t-93 266.5q0 165 92.5 270t219.5 105q128 0 218.5 -104.5t90.5 -270.5zM463 357q0 92 -36.5 161.5t-94.5 69.5q-62 0 -99 -69t-37 -162q0 -92 37 -161.5t99 -69.5q61 0 96 69t35 162zM446 973q-29 -36 -65.5 -95.5 t-53.5 -95.5h-114q46 88 70 191h163z" />
<glyph unicode="&#xd4;" horiz-adv-x="661" d="M640 361q0 -169 -90 -272t-219 -103q-126 0 -219 108.5t-93 266.5q0 165 92.5 270t219.5 105q128 0 218.5 -104.5t90.5 -270.5zM463 357q0 92 -36.5 161.5t-94.5 69.5q-62 0 -99 -69t-37 -162q0 -92 37 -161.5t99 -69.5q61 0 96 69t35 162zM543 771h-138q-39 50 -71 73 q-39 -28 -72 -73h-145q95 84 172 177h81q21 -30 75 -84.5t98 -92.5z" />
<glyph unicode="&#xd5;" horiz-adv-x="669" d="M640 361q0 -169 -90 -272t-219 -103q-126 0 -219 108.5t-93 266.5q0 165 92.5 270t219.5 105q128 0 218.5 -104.5t90.5 -270.5zM463 357q0 92 -36.5 161.5t-94.5 69.5q-62 0 -99 -69t-37 -162q0 -92 37 -161.5t99 -69.5q61 0 96 69t35 162zM507 858q-2 -3 -5.5 -9 t-16 -21t-27 -26t-39 -20.5t-50.5 -9.5q-32 0 -50.5 7.5t-24 16t-15 16.5t-25.5 9q-49 2 -87 -37l-37 69l18 18t43 29t60 18q34 0 68.5 -26.5t54.5 -26.5t41.5 13.5t32.5 26.5l12 13z" />
<glyph unicode="&#xd6;" horiz-adv-x="657" d="M640 361q0 -169 -90 -272t-219 -103q-126 0 -219 108.5t-93 266.5q0 165 92.5 270t219.5 105q128 0 218.5 -104.5t90.5 -270.5zM463 357q0 92 -36.5 161.5t-94.5 69.5q-62 0 -99 -69t-37 -162q0 -92 37 -161.5t99 -69.5q61 0 96 69t35 162zM501 836q0 -31 -22 -52.5 t-53 -21.5t-53 21.5t-22 52.5t22 52.5t53 21.5t53 -21.5t22 -52.5zM280 836q0 -31 -22 -52.5t-53 -21.5t-53 21.5t-22 52.5t22 52.5t53 21.5t53 -21.5t22 -52.5z" />
<glyph unicode="&#xd7;" horiz-adv-x="368" d="M336 462l-84 -129q30 -43 88 -133l-61 -85l-88 133l-86 -133l-66 88l86 133l-87 132l62 84l86 -132l85 129z" />
<glyph unicode="&#xd8;" horiz-adv-x="611" d="M564 361q0 -153 -80 -261t-196 -108q-77 0 -142 52q-21 -56 -25 -90l-83 46q7 47 43 114q-70 105 -70 247q0 153 80.5 261t196.5 108q78 0 141 -51q30 68 35 87l79 -42q-12 -49 -49 -115q70 -105 70 -248zM342 534q-24 30 -54 30q-44 0 -73.5 -60t-29.5 -147q0 -35 6 -66 q45 75 53 90q33 60 98 153zM390 357q0 36 -7 78q-35 -51 -61 -97q-25 -44 -95 -149q28 -39 61 -39q43 0 72.5 60.5t29.5 146.5z" />
<glyph unicode="&#xd9;" horiz-adv-x="584" d="M556 724q-16 -277 -6 -484q4 -100 -73.5 -173.5t-176.5 -73.5t-174.5 72t-74.5 176q5 326 -8 483h186q-7 -96 -10 -248.5t1 -248.5q1 -36 29 -63t53 -27q28 0 54.5 23t27.5 62q9 211 -3 502h175zM370 747h-114q-38 68 -119 171h162q7 -32 29 -85t42 -86z" />
<glyph unicode="&#xda;" horiz-adv-x="585" d="M556 724q-16 -277 -6 -484q4 -100 -73.5 -173.5t-176.5 -73.5t-174.5 72t-74.5 176q5 326 -8 483h186q-7 -96 -10 -248.5t1 -248.5q1 -36 29 -63t53 -27q28 0 54.5 23t27.5 62q9 211 -3 502h175zM417 950q-29 -36 -65.5 -95.5t-53.5 -95.5h-114q46 88 70 191h163z" />
<glyph unicode="&#xdb;" horiz-adv-x="587" d="M556 724q-16 -277 -6 -484q4 -100 -73.5 -173.5t-176.5 -73.5t-174.5 72t-74.5 176q5 326 -8 483h186q-7 -96 -10 -248.5t1 -248.5q1 -36 29 -63t53 -27q28 0 54.5 23t27.5 62q9 211 -3 502h175zM508 771h-138q-39 50 -71 73q-39 -28 -72 -73h-145q95 84 172 177h81 q21 -30 75 -84.5t98 -92.5z" />
<glyph unicode="&#xdc;" horiz-adv-x="583" d="M556 724q-16 -277 -6 -484q4 -100 -73.5 -173.5t-176.5 -73.5t-174.5 72t-74.5 176q5 326 -8 483h186q-7 -96 -10 -248.5t1 -248.5q1 -36 29 -63t53 -27q28 0 54.5 23t27.5 62q9 211 -3 502h175zM489 837q0 -31 -22 -52.5t-53 -21.5t-53 21.5t-22 52.5t22 52.5t53 21.5 t53 -21.5t22 -52.5zM268 837q0 -31 -22 -52.5t-53 -21.5t-53 21.5t-22 52.5t22 52.5t53 21.5t53 -21.5t22 -52.5z" />
<glyph unicode="&#xdf;" horiz-adv-x="517" d="M193 0h-166q11 396 7 515q-3 105 56 176.5t157 71.5q95 0 165 -62.5t70 -165.5q0 -46 -24.5 -88.5t-61.5 -63.5q34 -11 60 -63t26 -93q0 -104 -65.5 -169t-158.5 -65l-48 118q44 -2 71.5 28t27.5 70q0 52 -33 76.5t-86 23.5q-3 -42 0.5 -159t2.5 -150zM316 545 q0 86 -65 86q-28 0 -40.5 -21t-16.5 -61q-8 -80 -4 -121q49 -1 87.5 34.5t38.5 82.5z" />
<glyph unicode="&#xe0;" horiz-adv-x="539" d="M494 479q-20 -188 -9 -479h-171q10 34 8 56q-2 -2 -15 -13.5t-18.5 -16t-19 -13.5t-23.5 -13t-25.5 -8t-30.5 -4q-72 0 -123 84.5t-49 194.5q2 111 59 186.5t146 75.5q32 0 60 -22.5t46 -54.5q1 41 -7 77zM311 267q2 57 -14.5 98t-50.5 41q-33 0 -49 -40.5t-17 -98.5 q-1 -59 14.5 -102t48.5 -43t50 43.5t18 101.5zM328 595h-114q-38 68 -119 171h162q7 -32 29 -85t42 -86z" />
<glyph unicode="&#xe1;" horiz-adv-x="539" d="M494 479q-20 -188 -9 -479h-171q10 34 8 56q-2 -2 -15 -13.5t-18.5 -16t-19 -13.5t-23.5 -13t-25.5 -8t-30.5 -4q-72 0 -123 84.5t-49 194.5q2 111 59 186.5t146 75.5q32 0 60 -22.5t46 -54.5q1 41 -7 77zM311 267q2 57 -14.5 98t-50.5 41q-33 0 -49 -40.5t-17 -98.5 q-1 -59 14.5 -102t48.5 -43t50 43.5t18 101.5zM409 764q-29 -36 -65.5 -95.5t-53.5 -95.5h-114q46 88 70 191h163z" />
<glyph unicode="&#xe2;" horiz-adv-x="539" d="M494 479q-20 -188 -9 -479h-171q10 34 8 56q-2 -2 -15 -13.5t-18.5 -16t-19 -13.5t-23.5 -13t-25.5 -8t-30.5 -4q-72 0 -123 84.5t-49 194.5q2 111 59 186.5t146 75.5q32 0 60 -22.5t46 -54.5q1 41 -7 77zM311 267q2 57 -14.5 98t-50.5 41q-33 0 -49 -40.5t-17 -98.5 q-1 -59 14.5 -102t48.5 -43t50 43.5t18 101.5zM491 585h-138q-39 50 -71 73q-39 -28 -72 -73h-145q95 84 172 177h81q21 -30 75 -84.5t98 -92.5z" />
<glyph unicode="&#xe3;" horiz-adv-x="539" d="M494 479q-20 -188 -9 -479h-171q10 34 8 56q-2 -2 -15 -13.5t-18.5 -16t-19 -13.5t-23.5 -13t-25.5 -8t-30.5 -4q-72 0 -123 84.5t-49 194.5q2 111 59 186.5t146 75.5q32 0 60 -22.5t46 -54.5q1 41 -7 77zM311 267q2 57 -14.5 98t-50.5 41q-33 0 -49 -40.5t-17 -98.5 q-1 -59 14.5 -102t48.5 -43t50 43.5t18 101.5zM455 701q-2 -3 -5.5 -9t-16 -21t-27 -26t-39 -20.5t-50.5 -9.5q-32 0 -50.5 7.5t-24 16t-15 16.5t-25.5 9q-49 2 -87 -37l-37 69l18 18t43 29t60 18q34 0 68.5 -26.5t54.5 -26.5t41.5 13t32.5 27l12 13z" />
<glyph unicode="&#xe4;" horiz-adv-x="539" d="M494 479q-20 -188 -9 -479h-171q10 34 8 56q-2 -2 -15 -13.5t-18.5 -16t-19 -13.5t-23.5 -13t-25.5 -8t-30.5 -4q-72 0 -123 84.5t-49 194.5q2 111 59 186.5t146 75.5q32 0 60 -22.5t46 -54.5q1 41 -7 77zM311 267q2 57 -14.5 98t-50.5 41q-33 0 -49 -40.5t-17 -98.5 q-1 -59 14.5 -102t48.5 -43t50 43.5t18 101.5zM448 680q0 -31 -22 -52.5t-53 -21.5t-53 21.5t-22 52.5t22 52.5t53 21.5t53 -21.5t22 -52.5zM227 680q0 -31 -22 -52.5t-53 -21.5t-53 21.5t-22 52.5t22 52.5t53 21.5t53 -21.5t22 -52.5z" />
<glyph unicode="&#xe5;" horiz-adv-x="539" d="M494 479q-20 -188 -9 -479h-171q10 34 8 56q-2 -2 -15 -13.5t-18.5 -16t-19 -13.5t-23.5 -13t-25.5 -8t-30.5 -4q-72 0 -123 84.5t-49 194.5q2 111 59 186.5t146 75.5q32 0 60 -22.5t46 -54.5q1 41 -7 77zM311 267q2 57 -14.5 98t-50.5 41q-33 0 -49 -40.5t-17 -98.5 q-1 -59 14.5 -102t48.5 -43t50 43.5t18 101.5zM380 682q0 -49 -33.5 -83t-80.5 -34t-80.5 34t-33.5 83t33.5 83.5t80.5 34.5t80.5 -34.5t33.5 -83.5zM312 682q0 19 -13.5 33t-32.5 14t-32 -13.5t-13 -33.5t13 -33.5t32 -13.5t32.5 14t13.5 33z" />
<glyph unicode="&#xe6;" horiz-adv-x="818" d="M617 309q-11 81 -77 81q-25 0 -40.5 -11t-20.5 -24t-12 -38q-1 -5 -2 -8h152zM321 218q-25 28 -64 28q-36 0 -55.5 -20t-19.5 -54q0 -32 22 -53t52 -21q37 0 64 31q-1 47 1 89zM774 223h-308q2 -34 25 -62.5t49 -28.5q19 0 59.5 13.5t50.5 25.5l88 -86q-64 -94 -203 -94 q-76 0 -138 77q-48 -42 -88.5 -59.5t-106.5 -17.5q-72 0 -121 57t-49 132q0 80 51.5 121.5t135.5 41.5q56 0 105 -35q1 8 1 32q0 37 -14.5 48.5t-50.5 13.5q-59 3 -130 -27l-35 112q29 21 91.5 35t101.5 14q85 0 132 -47q53 43 115 43q57 0 107 -24.5t80 -71.5 q59 -93 52 -213z" />
<glyph unicode="&#xe7;" horiz-adv-x="463" d="M442 374l-125 -62q-6 30 -27.5 46.5t-46.5 16.5q-37 0 -62.5 -33.5t-25.5 -86.5q0 -52 25 -84t63 -32q18 0 42 14.5t32 36.5l116 -76q-63 -106 -156 -129l-24 -39q3 0 8 -1t17.5 -6t22 -11.5t17.5 -19.5t8 -30q0 -40 -30 -59t-64 -19q-16 0 -40.5 12t-41.5 24l-16 12 l9 35q3 -2 8 -5t20 -11t26 -11t26.5 -5t20.5 6q32 28 -14 48q-11 4 -21.5 3t-18.5 -4l-8 -4l42 81q-94 7 -153.5 85t-59.5 189q0 116 63 195.5t163 79.5q77 0 134 -40t71 -116z" />
<glyph unicode="&#xe8;" horiz-adv-x="513" d="M507 312l-308 -149q9 -19 36 -32t53 -13q35 0 81.5 15.5t68.5 39.5l36 -106q-65 -81 -209 -81q-104 0 -173.5 83.5t-69.5 187.5q0 109 68.5 189t179.5 80q88 0 147.5 -63.5t89.5 -150.5zM338 346q-24 53 -80 53q-44 0 -68 -33t-26 -72q0 -6 4 -28zM330 583h-114 q-38 68 -119 171h162q7 -32 29 -85t42 -86z" />
<glyph unicode="&#xe9;" horiz-adv-x="513" d="M507 312l-308 -149q9 -19 36 -32t53 -13q35 0 81.5 15.5t68.5 39.5l36 -106q-65 -81 -209 -81q-104 0 -173.5 83.5t-69.5 187.5q0 109 68.5 189t179.5 80q88 0 147.5 -63.5t89.5 -150.5zM338 346q-24 53 -80 53q-44 0 -68 -33t-26 -72q0 -6 4 -28zM394 764 q-29 -36 -65.5 -95.5t-53.5 -95.5h-114q46 88 70 191h163z" />
<glyph unicode="&#xea;" horiz-adv-x="513" d="M507 312l-308 -149q9 -19 36 -32t53 -13q35 0 81.5 15.5t68.5 39.5l36 -106q-65 -81 -209 -81q-104 0 -173.5 83.5t-69.5 187.5q0 109 68.5 189t179.5 80q88 0 147.5 -63.5t89.5 -150.5zM338 346q-24 53 -80 53q-44 0 -68 -33t-26 -72q0 -6 4 -28zM471 574h-138 q-39 50 -71 73q-39 -28 -72 -73h-145q95 84 172 177h81q21 -30 75 -84.5t98 -92.5z" />
<glyph unicode="&#xeb;" horiz-adv-x="513" d="M507 312l-308 -149q9 -19 36 -32t53 -13q35 0 81.5 15.5t68.5 39.5l36 -106q-65 -81 -209 -81q-104 0 -173.5 83.5t-69.5 187.5q0 109 68.5 189t179.5 80q88 0 147.5 -63.5t89.5 -150.5zM338 346q-24 53 -80 53q-44 0 -68 -33t-26 -72q0 -6 4 -28zM438 665 q0 -31 -22 -52.5t-53 -21.5t-53 21.5t-22 52.5t22 52.5t53 21.5t53 -21.5t22 -52.5zM217 665q0 -31 -22 -52.5t-53 -21.5t-53 21.5t-22 52.5t22 52.5t53 21.5t53 -21.5t22 -52.5z" />
<glyph unicode="&#xec;" horiz-adv-x="254" d="M201 0h-167q12 279 0 475l167 48q-13 -209 0 -523zM206 587h-114q-38 68 -119 171h162q7 -32 29 -85t42 -86z" />
<glyph unicode="&#xed;" horiz-adv-x="254" d="M201 0h-167q12 279 0 475l167 48q-13 -209 0 -523zM293 764q-29 -36 -65.5 -95.5t-53.5 -95.5h-114q46 88 70 191h163z" />
<glyph unicode="&#xee;" horiz-adv-x="404" d="M284 0h-167q11 261 0 475l167 48q-14 -226 0 -523zM421 575h-139q-41 53 -70 73q-39 -27 -73 -73l-145 1q90 78 173 176h81q20 -29 74.5 -84t98.5 -93z" />
<glyph unicode="&#xef;" horiz-adv-x="394" d="M274 0h-168q12 279 0 475l168 48q-14 -211 0 -523zM381 683q0 -31 -22 -52.5t-53 -21.5t-53 21.5t-22 52.5t22 53t53 22t53 -22t22 -53zM160 683q0 -31 -22 -52.5t-53 -21.5t-53 21.5t-22 52.5t22 53t53 22t53 -22t22 -53z" />
<glyph unicode="&#xf1;" horiz-adv-x="500" d="M481 0l-185 1q9 178 6 284q-2 87 -43 87q-29 0 -52 -33q-6 -65 0 -339h-169q8 98 8 240t-8 251l169 56q-3 -18 0 -79q19 25 59 42t73 17q138 0 125 -229q-4 -74 1 -168t16 -130zM434 701q-2 -3 -5.5 -9t-16 -21t-27 -26t-39 -20.5t-50.5 -9.5q-32 0 -50.5 7.5t-24 16 t-15 16.5t-25.5 9q-49 2 -87 -37l-37 69l18 18t43 29t60 18q34 0 68.5 -26.5t54.5 -26.5t41.5 13t33.5 27l11 13z" />
<glyph unicode="&#xf2;" horiz-adv-x="520" d="M499 258q0 -125 -69 -200t-169 -75t-169.5 75t-69.5 200q0 127 69 200t170 73q100 0 169 -74.5t69 -198.5zM344 258q0 58 -22 98t-62 40q-42 0 -63 -39t-21 -99q0 -57 23 -97.5t61 -40.5q41 0 62.5 39.5t21.5 98.5zM345 594h-114q-38 68 -119 171h162q7 -32 29 -85 t42 -86z" />
<glyph unicode="&#xf3;" horiz-adv-x="520" d="M499 258q0 -125 -69 -200t-169 -75t-169.5 75t-69.5 200q0 127 69 200t170 73q100 0 169 -74.5t69 -198.5zM344 258q0 58 -22 98t-62 40q-42 0 -63 -39t-21 -99q0 -57 23 -97.5t61 -40.5q41 0 62.5 39.5t21.5 98.5zM401 774q-29 -36 -65.5 -95.5t-53.5 -95.5h-114 q46 88 70 191h163z" />
<glyph unicode="&#xf4;" horiz-adv-x="518" d="M499 258q0 -125 -69 -200t-169 -75t-169.5 75t-69.5 200q0 127 69 200t170 73q100 0 169 -74.5t69 -198.5zM344 258q0 58 -22 98t-62 40q-42 0 -63 -39t-21 -99q0 -57 23 -97.5t61 -40.5q41 0 62.5 39.5t21.5 98.5zM466 583h-138q-39 50 -71 73q-39 -28 -72 -73h-145 q95 84 172 177h81q21 -30 75 -84.5t98 -92.5z" />
<glyph unicode="&#xf5;" horiz-adv-x="520" d="M499 258q0 -125 -69 -200t-169 -75t-169.5 75t-69.5 200q0 127 69 200t170 73q100 0 169 -74.5t69 -198.5zM344 258q0 58 -22 98t-62 40q-42 0 -63 -39t-21 -99q0 -57 23 -97.5t61 -40.5q41 0 62.5 39.5t21.5 98.5zM455 689q-2 -3 -5.5 -9t-16 -21t-27 -26t-39 -20.5 t-50.5 -9.5q-32 0 -50.5 7.5t-24 16t-15 16.5t-25.5 9q-49 2 -87 -37l-37 69l18 18t43 29t60 18q34 0 68.5 -26.5t54.5 -26.5t41.5 13t32.5 27l12 13z" />
<glyph unicode="&#xf6;" horiz-adv-x="520" d="M499 258q0 -125 -69 -200t-169 -75t-169.5 75t-69.5 200q0 127 69 200t170 73q100 0 169 -74.5t69 -198.5zM344 258q0 58 -22 98t-62 40q-42 0 -63 -39t-21 -99q0 -57 23 -97.5t61 -40.5q41 0 62.5 39.5t21.5 98.5zM447 666q0 -31 -22 -52.5t-53 -21.5t-53 21.5t-22 52.5 t22 52.5t53 21.5t53 -21.5t22 -52.5zM226 666q0 -31 -22 -52.5t-53 -21.5t-53 21.5t-22 52.5t22 52.5t53 21.5t53 -21.5t22 -52.5z" />
<glyph unicode="&#xf7;" horiz-adv-x="394" d="M264 469q0 -29 -20.5 -49.5t-49.5 -20.5t-49.5 20.5t-20.5 49.5t20.5 49.5t49.5 20.5t49.5 -20.5t20.5 -49.5zM352 217h-329v118h329v-118zM264 84q0 -29 -20.5 -49.5t-49.5 -20.5t-49.5 20.5t-20.5 49.5t20.5 49.5t49.5 20.5t49.5 -20.5t20.5 -49.5z" />
<glyph unicode="&#xf8;" horiz-adv-x="505" d="M480 255q0 -113 -68 -193.5t-164 -80.5q-62 0 -115 36q-27 -41 -33 -80l-68 27q12 49 45 104q-62 80 -62 187q0 114 68 194.5t165 80.5q65 0 118 -39q30 45 42 89l72 -21q-16 -54 -59 -121q59 -77 59 -183zM281 369q-16 11 -34 11q-36 0 -57 -35t-21 -90q0 -23 5 -46 l41 64q14 24 66 96zM325 255q0 17 -4 43q-24 -32 -40 -58q-25 -40 -69 -99q16 -11 35 -11q35 0 56.5 35.5t21.5 89.5z" />
<glyph unicode="&#xf9;" horiz-adv-x="518" d="M487 19l-163 -27q4 39 2 82q-25 -35 -68 -58t-92 -23q-48 0 -79.5 37.5t-41 83t-7.5 90.5q9 148 1 311h174q-1 -21 -5.5 -96.5t-6 -113t0.5 -92.5q7 -72 43 -72q19 0 43.5 11t31.5 20q11 124 0 343h165q-16 -218 2 -496zM335 592h-114q-38 68 -119 171h162q7 -32 29 -85 t42 -86z" />
<glyph unicode="&#xfa;" horiz-adv-x="517" d="M487 19l-163 -27q4 39 2 82q-25 -35 -68 -58t-92 -23q-48 0 -79.5 37.5t-41 83t-7.5 90.5q9 148 1 311h174q-1 -21 -5.5 -96.5t-6 -113t0.5 -92.5q7 -72 43 -72q19 0 43.5 11t31.5 20q11 124 0 343h165q-16 -218 2 -496zM395 781q-29 -36 -65.5 -95.5t-53.5 -95.5h-114 q46 88 70 191h163z" />
<glyph unicode="&#xfb;" horiz-adv-x="514" d="M487 19l-163 -27q4 39 2 82q-25 -35 -68 -58t-92 -23q-48 0 -79.5 37.5t-41 83t-7.5 90.5q9 148 1 311h174q-1 -21 -5.5 -96.5t-6 -113t0.5 -92.5q7 -72 43 -72q19 0 43.5 11t31.5 20q11 124 0 343h165q-16 -218 2 -496zM474 578h-138q-39 50 -71 73q-39 -28 -72 -73 h-145q95 84 172 177h81q21 -30 75 -84.5t98 -92.5z" />
<glyph unicode="&#xfc;" horiz-adv-x="520" d="M487 19l-163 -27q4 39 2 82q-25 -35 -68 -58t-92 -23q-48 0 -79.5 37.5t-41 83t-7.5 90.5q9 148 1 311h174q-1 -21 -5.5 -96.5t-6 -113t0.5 -92.5q7 -72 43 -72q19 0 43.5 11t31.5 20q11 124 0 343h165q-16 -218 2 -496zM434 675q0 -31 -22 -52.5t-53 -21.5t-53 21.5 t-22 52.5t22 52.5t53 21.5t53 -21.5t22 -52.5zM213 675q0 -31 -22 -52.5t-53 -21.5t-53 21.5t-22 52.5t22 52.5t53 21.5t53 -21.5t22 -52.5z" />
<glyph unicode="&#xff;" horiz-adv-x="528" d="M524 492q-40 -105 -99 -290t-94 -313q-11 -39 -32.5 -64t-52 -34.5t-51 -12t-49.5 -2.5q-26 0 -63.5 12.5t-51.5 21.5l28 117q39 -15 77 -15q40 0 55 32l25 48q-68 196 -207 499l159 31q17 -59 54 -150t66 -140q13 41 42 153.5t36 136.5zM466 655q0 -31 -22 -52.5 t-53 -21.5t-53 21.5t-22 52.5t22 52.5t53 21.5t53 -21.5t22 -52.5zM245 655q0 -31 -22 -52.5t-53 -21.5t-53 21.5t-22 52.5t22 52.5t53 21.5t53 -21.5t22 -52.5z" />
<glyph unicode="&#x131;" horiz-adv-x="254" d="M201 0h-167q12 279 0 475l167 48q-13 -209 0 -523z" />
<glyph unicode="&#x152;" horiz-adv-x="811" d="M769 0q-239 14 -391 0q-25 -8 -90 -8q-116 0 -196.5 108t-80.5 261q0 154 80 261.5t197 107.5q4 0 90 -6q191 -10 391 0v-156q-96 11 -222 0q-7 -95 -4 -119h193l-16 -134h-177q-4 -56 4 -159h222v-156zM390 357q0 87 -29.5 147t-72.5 60q-44 0 -73.5 -60t-29.5 -147 q0 -86 29.5 -146.5t73.5 -60.5q43 0 72.5 60.5t29.5 146.5z" />
<glyph unicode="&#x153;" horiz-adv-x="809" d="M777 203q-179 10 -303 0q-4 -26 25 -55t55 -29q28 0 60.5 12.5t48.5 31.5l68 -91q-61 -89 -193 -89q-87 0 -138 65q-65 -67 -153 -67q-96 0 -164 80.5t-68 193.5q0 114 68 194.5t164 80.5q85 0 151 -66q52 66 140 66q58 0 107.5 -23.5t79.5 -70.5q60 -95 52 -233z M630 309q-2 41 -23 72.5t-52 31.5q-36 0 -56.5 -31.5t-24.5 -72.5q66 -7 156 0zM330 255q0 53 -23.5 89t-59.5 36q-37 0 -60.5 -35.5t-23.5 -89.5t23.5 -89.5t60.5 -35.5q36 0 59.5 36t23.5 89z" />
<glyph unicode="&#x178;" d="M542 724q-151 -376 -180 -471q-9 -135 0 -253h-177q12 105 0 260q-19 57 -47 130l-71.5 181.5l-60.5 152.5h177q15 -145 91 -347q76 201 91 347h177zM460 842q0 -31 -22 -52.5t-53 -21.5t-53 21.5t-22 52.5t22 52.5t53 21.5t53 -21.5t22 -52.5zM239 842q0 -31 -22 -52.5 t-53 -21.5t-53 21.5t-22 52.5t22 52.5t53 21.5t53 -21.5t22 -52.5z" />
<glyph unicode="&#x192;" d="M449 375l-95 -106l14 -142l-131 57l-130 -57l14 142l-95 106l139 31l72 123l72 -123z" />
<glyph unicode="&#x2c6;" horiz-adv-x="541" d="M472 546h-138q-39 50 -71 73q-39 -28 -72 -73h-145q95 84 172 177h81q21 -30 75 -84.5t98 -92.5z" />
<glyph unicode="&#x2c7;" horiz-adv-x="514" d="M421 701l-130 -137h-50l-127 137l60 18l93 -93l93 93z" />
<glyph unicode="&#x2d8;" horiz-adv-x="461" d="M405 693q-14 -66 -66 -109.5t-119 -43.5q-68 0 -119.5 43t-65.5 110h99q27 -55 86 -55q58 0 85 55h100z" />
<glyph unicode="&#x2d9;" horiz-adv-x="254" d="M205 632q0 -33 -23.5 -56.5t-56.5 -23.5t-56.5 23.5t-23.5 56.5t23.5 56.5t56.5 23.5t56.5 -23.5t23.5 -56.5z" />
<glyph unicode="&#x2da;" horiz-adv-x="556" d="M380 682q0 -49 -33.5 -83t-80.5 -34t-80.5 34t-33.5 83t33.5 83.5t80.5 34.5t80.5 -34.5t33.5 -83.5zM312 682q0 19 -13.5 33t-32.5 14t-32 -13.5t-13 -33.5t13 -33.5t32 -13.5t32.5 14t13.5 33z" />
<glyph unicode="&#x2db;" horiz-adv-x="480" d="M239 15l59 -13q-29 -15 -60 -42.5t-31 -50.5q0 -14 13.5 -25.5t35.5 -11.5q14 0 42 10t51 24l2 -65q-44 -29 -97 -29q-48 0 -79 26.5t-30 69.5q1 34 31.5 63t62.5 44z" />
<glyph unicode="&#x2dc;" horiz-adv-x="517" d="M431 680q-2 -3 -5.5 -9t-16 -21t-27 -26t-39 -20.5t-50.5 -9.5q-32 0 -50.5 7.5t-24 16t-15 16.5t-25.5 9q-49 2 -87 -37l-37 69l18 18t43 29t60 18q34 0 68.5 -26.5t54.5 -26.5t41.5 13.5t32.5 26.5l12 13z" />
<glyph unicode="&#x2dd;" horiz-adv-x="552" d="M475 782l-162 -174h-79l150 174h91zM314 782l-160 -174h-76l145 174h91z" />
<glyph unicode="&#x394;" horiz-adv-x="706" d="M627 330q0 -115 -81 -196t-197 -81q-115 0 -196.5 81t-81.5 196q0 116 81.5 197t196.5 81t196.5 -81t81.5 -197zM572 402l-155 24l-75 138l-71 -140l-154 -30l111 -110l-19 -156l139 72l142 -67l-25 155z" />
<glyph unicode="&#x2206;" horiz-adv-x="706" d="M627 330q0 -115 -81 -196t-197 -81q-115 0 -196.5 81t-81.5 196q0 116 81.5 197t196.5 81t196.5 -81t81.5 -197zM572 402l-155 24l-75 138l-71 -140l-154 -30l111 -110l-19 -156l139 72l142 -67l-25 155z" />
<glyph unicode="&#x3a9;" d="M449 375l-95 -106l14 -142l-131 57l-130 -57l14 142l-95 106l139 31l72 123l72 -123z" />
<glyph unicode="&#x2126;" d="M449 375l-95 -106l14 -142l-131 57l-130 -57l14 142l-95 106l139 31l72 123l72 -123z" />
<glyph unicode="&#x3c0;" horiz-adv-x="500" d="M430 0h-100v401h-150v-401h-101v401h-70v89h487v-89h-66v-401z" />
<glyph unicode="&#x2013;" horiz-adv-x="467" d="M417 217h-394v118h394v-118z" />
<glyph unicode="&#x2014;" horiz-adv-x="654" d="M590 217h-567v118h567v-118z" />
<glyph unicode="&#x2018;" horiz-adv-x="248" d="M205 465l-60 -20q-41 31 -70.5 74.5t-40.5 76.5q-6 18 -6 49q0 36 24.5 60.5t62.5 24.5q37 0 61.5 -24.5t24.5 -60.5q0 -29 -17.5 -52t-45.5 -30q7 -57 67 -98z" />
<glyph unicode="&#x2019;" horiz-adv-x="213" d="M191 652q0 -34 -6 -50q-12 -33 -41 -76.5t-69 -74.5l-61 20q62 42 67 99q-28 7 -45.5 29.5t-17.5 52.5q0 36 24.5 60.5t62.5 24.5q37 0 61.5 -24.5t24.5 -60.5z" />
<glyph unicode="&#x201a;" horiz-adv-x="247" d="M205 179q0 -31 -6 -49q-11 -33 -40.5 -76.5t-70.5 -75.5l-60 21q60 39 67 98q-28 7 -45.5 30t-17.5 52q0 36 24.5 60.5t61.5 24.5q38 0 62.5 -24.5t24.5 -60.5z" />
<glyph unicode="&#x201c;" horiz-adv-x="435" d="M406 471l-60 -20q-41 31 -70 74.5t-41 76.5q-6 19 -6 50q0 36 24.5 60.5t62.5 24.5q37 0 61.5 -24.5t24.5 -60.5q0 -30 -17.5 -52.5t-45.5 -29.5q7 -58 67 -99zM205 471l-60 -20q-41 31 -70 74.5t-41 76.5q-6 19 -6 50q0 36 24.5 60.5t62.5 24.5q37 0 61.5 -24.5 t24.5 -60.5q0 -30 -17.5 -52.5t-45.5 -29.5q7 -58 67 -99z" />
<glyph unicode="&#x201d;" horiz-adv-x="435" d="M406 652q0 -34 -6 -50q-12 -33 -41 -76.5t-69 -74.5l-61 20q62 42 67 99q-28 7 -45.5 29.5t-17.5 52.5q0 36 24.5 60.5t62.5 24.5q37 0 61.5 -24.5t24.5 -60.5zM205 652q0 -34 -6 -50q-12 -33 -41 -76.5t-69 -74.5l-61 20q62 42 67 99q-28 7 -45.5 29.5t-17.5 52.5 q0 36 24.5 60.5t62.5 24.5q37 0 61.5 -24.5t24.5 -60.5z" />
<glyph unicode="&#x201e;" horiz-adv-x="435" d="M406 179q0 -31 -6 -49q-11 -33 -40.5 -76.5t-70.5 -75.5l-60 21q60 39 67 98q-28 7 -45.5 30t-17.5 52q0 36 24.5 60.5t61.5 24.5q38 0 62.5 -24.5t24.5 -60.5zM205 179q0 -31 -6 -49q-11 -33 -40.5 -76.5t-70.5 -75.5l-60 21q60 39 67 98q-28 7 -45.5 30t-17.5 52 q0 36 24.5 60.5t61.5 24.5q38 0 62.5 -24.5t24.5 -60.5z" />
<glyph unicode="&#x2020;" horiz-adv-x="470" d="M416 418h-129q-14 -60 -60 -343h-18q-30 200 -60 343h-126v99h146l-20 167l138 40l-20 -207h149v-99z" />
<glyph unicode="&#x2021;" horiz-adv-x="470" d="M416 418h-129l-17 -102l20 -115h126v-98h-146l20 -168l-139 -40l20 208h-148v98h128l18 103l-20 114h-126v99h146l-20 167l138 40l-20 -207h149v-99z" />
<glyph unicode="&#x2022;" horiz-adv-x="362" d="M302 322q0 -60 -36.5 -102t-87.5 -42q-52 0 -88.5 42t-36.5 102t36.5 102.5t88.5 42.5q51 0 87.5 -42.5t36.5 -102.5z" />
<glyph unicode="&#x2026;" horiz-adv-x="732" d="M691 83q0 -36 -26 -61.5t-63 -25.5t-62.5 25.5t-25.5 61.5t25.5 61.5t62.5 25.5t63 -25.5t26 -61.5zM444 83q0 -36 -26 -61.5t-63 -25.5t-62.5 25.5t-25.5 61.5t25.5 61.5t62.5 25.5t63 -25.5t26 -61.5zM203 83q0 -36 -26 -61.5t-63 -25.5t-63 25.5t-26 61.5t26 61.5 t63 25.5t63 -25.5t26 -61.5z" />
<glyph unicode="&#x2030;" horiz-adv-x="784" d="M755 192q0 -68 -36.5 -116t-88.5 -48q-47 0 -83 42q-36 -42 -84 -42q-51 0 -87.5 48t-36.5 116t36.5 116t87.5 48q48 0 84 -42q36 42 83 42q52 0 88.5 -48t36.5 -116zM276 545q0 -68 -36.5 -116t-87.5 -48q-52 0 -88.5 48t-36.5 116t36.5 116t88.5 48q51 0 87.5 -48 t36.5 -116zM525 662q-219 -366 -351 -621l-89 32q209 344 350 618zM194 544q0 31 -13 52.5t-32 21.5t-32.5 -21.5t-13.5 -52.5q0 -30 13.5 -51.5t32.5 -21.5t32 21.5t13 51.5zM506 191q0 31 -13.5 52.5t-32.5 21.5t-32 -21.5t-13 -52.5q0 -30 13 -51.5t32 -21.5t32.5 21.5 t13.5 51.5zM672 191q0 31 -13 52.5t-32 21.5t-32 -21.5t-13 -52.5q0 -30 13 -51.5t32 -21.5t32 21.5t13 51.5z" />
<glyph unicode="&#x2039;" horiz-adv-x="391" d="M370 83l-75 -96q-119 121 -284 260q117 98 268 272l91 -80q-107 -107 -175 -195q59 -67 175 -161z" />
<glyph unicode="&#x203a;" horiz-adv-x="391" d="M370 259q-124 -106 -267 -272l-91 80q111 114 174 195q-65 73 -175 161l76 96q115 -117 283 -260z" />
<glyph unicode="&#x2044;" horiz-adv-x="611" d="M543 724q-13 -53 -50 -117.5t-91.5 -144t-79.5 -124.5q-24 -43 -74 -117.5t-79.5 -127t-33.5 -93.5h-97q6 45 39 105.5t87 144t80 131.5q25 46 73.5 116.5t82.5 127t46 99.5h97z" />
<glyph unicode="&#x20ac;" horiz-adv-x="572" d="M560 41q-24 -17 -67 -31.5t-77 -15.5q-111 -3 -200.5 64t-126.5 176h-78v98h57q-1 11 -1 32q0 16 1 24h-54v98h72q36 112 126.5 182t203.5 70q63 0 139 -39l-59 -169q-35 21 -80 21q-80 0 -132 -65h111v-98h-152q-2 -16 -2 -24q0 -17 3 -32h148v-98h-101q52 -57 125 -57 q45 0 77 18z" />
<glyph unicode="&#x2122;" horiz-adv-x="754" d="M699 340h-91q4 73 0 146l-80 -107q-37 60 -72 107v-146h-91q9 208 -1 384h54q78 -135 116 -179q66 83 121 179h44q-8 -174 0 -384zM327 633h-103q-5 -117 0 -293h-102q7 173 0 293h-100v91h305v-91z" />
<glyph unicode="&#x2202;" horiz-adv-x="516" d="M499 356q0 -363 -267 -363q-96 0 -158 79t-62 178q0 102 58.5 179t157.5 77q54 0 118 -38q-6 49 -43 99t-83 50q-65 0 -122 -42l-38 102q24 25 70 38t88 13q72 0 127.5 -33t88 -87.5t49 -118.5t16.5 -133zM326 260q0 41 -16.5 78.5t-50.5 37.5q-47 0 -69 -39t-22 -91 q0 -46 18.5 -81.5t59.5 -35.5q80 0 80 131z" />
<glyph unicode="&#x220f;" horiz-adv-x="760" d="M742 359q0 -154 -107 -263t-258 -109t-258 109t-107 263t107 263t258 109t258 -109t107 -263zM682 359q0 128 -89 219t-216 91q-126 0 -215.5 -91t-89.5 -219q0 -129 89.5 -220t215.5 -91q127 0 216 91t89 220zM554 411q0 -62 -49 -105.5t-109 -43.5h-29q-3 -43 2 -115 h-111q7 248 0 419h137q59 0 109 -46t50 -109zM447 411q0 31 -21.5 47.5t-56.5 15.5q-5 -76 -2 -123q33 -1 56.5 14.5t23.5 45.5z" />
<glyph unicode="&#x2211;" d="M449 375l-95 -106l14 -142l-131 57l-130 -57l14 142l-95 106l139 31l72 123l72 -123z" />
<glyph unicode="&#x2212;" horiz-adv-x="495" d="M450 316h-412v106h412v-106z" />
<glyph unicode="&#x221a;" d="M449 375l-95 -106l14 -142l-131 57l-130 -57l14 142l-95 106l139 31l72 123l72 -123z" />
<glyph unicode="&#x221e;" d="M449 375l-95 -106l14 -142l-131 57l-130 -57l14 142l-95 106l139 31l72 123l72 -123z" />
<glyph unicode="&#x222b;" horiz-adv-x="537" d="M498 8l-158 -23q-15 37 -16 58q-34 -26 -61 -39t-61 -13q-72 0 -121 57t-49 132q0 80 51.5 121.5t135.5 41.5q56 0 105 -35q1 8 1 32q0 37 -14.5 48.5t-50.5 13.5q-59 3 -130 -27l-35 112q29 21 91.5 35t101.5 14q78 0 138 -33.5t65 -104.5q2 -28 -5.5 -95.5t-7.5 -90.5 q-1 -114 20 -204zM321 218q-25 28 -64 28q-36 0 -55.5 -20t-19.5 -54q0 -32 22 -53t52 -21q37 0 64 31q-1 47 1 89z" />
<glyph unicode="&#x2248;" horiz-adv-x="706" d="M683 330h-1q0 -138 -97.5 -235.5t-236.5 -97.5q-138 0 -235.5 97.5t-96.5 236.5q0 138 97.5 235.5t236.5 97.5q138 0 235.5 -97.5t97.5 -236.5zM615 330l-1 1q0 110 -78 188t-189 78q-110 0 -188 -78t-77 -189q0 -110 78 -188t189 -78q110 0 188 78t78 188zM570 332 q0 -92 -65 -157.5t-157 -65.5t-158 65.5t-66 156.5q-1 92 64.5 157.5t157.5 65.5t157.5 -65.5t65.5 -157.5zM526 390l-124 19l-60 110l-56 -112l-124 -23l89 -89l-15 -124l111 57l114 -53l-20 123z" />
<glyph unicode="&#x2260;" horiz-adv-x="433" d="M394 379h-120l-37 -74l-15 -30h170v-139h-235q-33 -79 -39 -136h-74q7 56 39 136h-55v139h117q3 7 15 31.5t19 37.5l17 35h-165v138h230q37 86 49 136h74q-14 -58 -45 -136h55v-138z" />
<glyph unicode="&#x2264;" horiz-adv-x="289" d="M271 191l-239 150v95l240 156v-122l-114 -80l113 -79v-120zM271 57h-240v107h240v-107z" />
<glyph unicode="&#x2265;" horiz-adv-x="289" d="M270 341l-240 -150v120l113 79l-113 80v122l240 -156v-95zM271 57h-241v107h241v-107z" />
<glyph unicode="&#x25ca;" horiz-adv-x="706" d="M683 330h-1q0 -138 -97.5 -235.5t-236.5 -97.5q-138 0 -235.5 97.5t-96.5 236.5q0 138 97.5 235.5t236.5 97.5q138 0 235.5 -97.5t97.5 -236.5zM626 330q0 116 -81 197t-197 81t-197 -81t-81 -197q0 -115 81 -196t197 -81q115 0 196.5 81t81.5 196zM571 402l-107 -114 l25 -155l-142 67l-139 -72l19 156l-111 110l154 30l71 140l75 -138z" />
<glyph unicode="&#xe000;" horiz-adv-x="540" d="M0 540h540v-540h-540v540z" />
<glyph unicode="&#xfb01;" horiz-adv-x="651" d="M600 602q0 -36 -26 -61.5t-63 -25.5q-36 0 -60 25.5t-24 61.5q-7 11 -11 16t-17 11t-32 6q-38 0 -64 -24t-33.5 -45.5t-7.5 -34.5l-1 -17h103l-18 -134h-84q-2 -39 -2 -163t4 -217h-169q3 101 2.5 222.5t-3.5 157.5h-74l20 134h54q2 120 69 183.5t197 63.5 q109 0 174.5 -51t65.5 -108zM609 463q-10 -302 -2 -463h-167q9 175 0 395z" />
<glyph unicode="&#xfb02;" horiz-adv-x="651" d="M596 0h-167q2 26 0 289.5t-2 311.5v1q-7 11 -11 16t-17 11t-32 6q-38 0 -64 -24t-33.5 -45.5t-7.5 -34.5l-1 -17h103l-18 -134h-84q-2 -39 -2 -163t4 -217h-169q3 101 2.5 222.5t-3.5 157.5h-74l20 134h54q2 119 72.5 184t201.5 65q79 0 131 -41q32 20 97 31 q-9 -343 0 -753z" />
<glyph horiz-adv-x="539" d="M494 8l-158 -23q-10 25 -12 58q-34 -26 -61 -39t-61 -13q-72 0 -117.5 56.5t-45.5 132.5q0 80 48 121.5t132 41.5q56 0 105 -35q1 8 1 32q0 36 -17.5 48t-54.5 14q-59 3 -130 -27l-40 112q29 21 91.5 35t101.5 14q49 0 92.5 -12.5t78 -45t37.5 -80.5q2 -30 -2 -100.5 t-4 -85.5q-2 -130 16 -204zM321 218q-25 28 -64 28q-68 0 -68 -74q0 -33 19 -53.5t48 -20.5q37 0 64 31q-1 47 1 89z" />
<glyph horiz-adv-x="466" d="M414 0l-171 -18q-61 129 -81 284l74 -5l-28 106l44 88l-95 12q15 161 86 275l171 -18q-81 -181 -86 -314q-8 -153 86 -410zM206 432l-37 -65l23 -71l-73 15l-61 -43l-8 74l-60 44l68 30l24 71l50 -55h74z" />
<glyph horiz-adv-x="466" d="M428 386l-60 -44l-8 -74l-60 43l-73 -15l22 71l-37 65h75l50 55l23 -71zM262 467l-96 -12l45 -88l-28 -106l74 5q-21 -156 -82 -284l-171 18q95 256 87 410q-5 134 -87 314l171 18q72 -113 87 -275z" />
<glyph horiz-adv-x="547" d="M344 464l153 52q-18 -225 -1 -516h-171q10 34 8 56q-1 -1 -9 -7.5t-10.5 -9t-10.5 -9t-12.5 -9.5l-13 -8.5t-14.5 -8t-14.5 -6.5t-16.5 -5.5t-17.5 -3t-18.5 -1.5q-73 0 -126.5 85t-51.5 194q2 110 62 186t149 76q34 0 66.5 -18t48.5 -47zM322 267q2 55 -16.5 97 t-53.5 42q-34 0 -52.5 -41.5t-19.5 -97.5q-1 -57 17 -101t52 -44t53 44t20 101z" />
<glyph horiz-adv-x="563" d="M521 324q0 -100 -65 -151t-164 -51q-42 0 -80 9q-42 -24 -32 -45q4 -9 23 -10t56.5 3.5t59.5 4.5q106 1 166 -42t60 -115q0 -81 -67 -133t-181 -52q-116 0 -188 53.5t-72 127.5q0 26 15 58.5t40 43.5q-17 9 -32.5 26.5t-15.5 35.5q0 51 67 103q-47 52 -47 134 q0 102 65 154t163 52q34 0 69 -8q12 50 38 80q40 41 102 47l54 -128q-53 -1 -81 -24q-6 -6 -15 -24q62 -57 62 -149zM366 327q0 30 -18.5 53.5t-56.5 23.5q-39 0 -56.5 -23.5t-17.5 -53.5q0 -29 19 -52.5t55 -23.5q38 0 56.5 23t18.5 53zM192 -84q0 -26 28.5 -41t71.5 -15 q42 0 71 16.5t29 41.5q0 24 -26 38.5t-68 14.5q-46 0 -76 -13.5t-30 -41.5z" />
</font>
</defs>
</svg>
