<?xml version="1.0" standalone="no"?>
<!DOCTYPE svg PUBLIC "-//W3C//DTD SVG 1.1//EN" "http://www.w3.org/Graphics/SVG/1.1/DTD/svg11.dtd" >
<svg xmlns="http://www.w3.org/2000/svg">
<metadata>
This is a custom SVG webfont generated by Font Squirrel.
Copyright   : c Copyright 2009 Chank Co All rights reserved Do not redistribute or alter this font without permission wwwchankcom 
Designer    : Chank Diesel
Foundry     : Chank Co
Foundry URL : httpwwwchankcom
</metadata>
<defs>
<font id="MinglerExtraBold" horiz-adv-x="1263" >
<font-face units-per-em="2048" ascent="1638" descent="-410" />
<missing-glyph horiz-adv-x="626" />
<glyph unicode=" "  horiz-adv-x="626" />
<glyph unicode="&#x09;" horiz-adv-x="626" />
<glyph unicode="&#xa0;" horiz-adv-x="626" />
<glyph unicode="!" horiz-adv-x="538" d="M35 1477q236 45 450 0q-59 -528 -71 -926l-328 -51q-20 580 -51 977zM39 201q0 86 65.5 146.5t157.5 60.5t157.5 -60.5t65.5 -146.5q0 -88 -65.5 -148.5t-157.5 -60.5t-157.5 60.5t-65.5 148.5z" />
<glyph unicode="&#x22;" horiz-adv-x="1067" d="M39 1456q43 12 105.5 18.5t96 7.5t122 2t98.5 1q-53 -338 -70 -729h-285q-24 372 -67 700zM547 1460q57 10 130 14.5t162 7.5t132 5q-66 -438 -68 -731h-289q-12 366 -67 704z" />
<glyph unicode="#" horiz-adv-x="1308" d="M20 358l39 289q41 -2 98.5 -4t69.5 -2l23 172q-41 0 -170 -6l39 287l166 -4l24 210h307q-6 -33 -13 -77.5t-12 -76.5t-9 -59h176q2 18 24 213h310q-23 -125 -35 -208q80 0 166 2l-39 -287q-41 2 -99.5 4t-70.5 2q-2 -23 -10.5 -86t-10.5 -84q18 0 40 1t59.5 2t70.5 1 l-39 -287q-143 4 -166 5q-10 -90 -22 -222h-309q16 90 37 226h-179q-8 -76 -22 -226h-309l34 222q-39 -1 -168 -7zM518 639h184l23 178h-184z" />
<glyph unicode="$" horiz-adv-x="1013" d="M31 1044q0 281 313 351v243h336v-239q201 -61 254 -201l-111 -280q-160 217 -288 217q-115 0 -115 -78q0 -35 55 -64.5t134 -60.5t159 -74t135 -126t55 -195q0 -115 -80.5 -200t-197.5 -130v-207h-336v162q-170 27 -295 174l123 287q117 -195 268 -195q117 0 117 104 q0 33 -54 70t-131 77t-155 87t-132 119.5t-54 158.5z" />
<glyph unicode="%" horiz-adv-x="1347" d="M43 1104q0 127 73.5 219t184.5 92t184.5 -92t73.5 -219q0 -125 -73.5 -217t-184.5 -92t-184.5 92t-73.5 217zM156 141q459 717 757 1264l265 -82q-170 -266 -398.5 -647t-361.5 -623zM250 1104q0 -31 9 -52.5t19.5 -29.5t16.5 -8q8 0 17.5 8t18.5 29.5t9 52.5t-9 52.5 t-18.5 29.5t-17.5 8q-6 0 -16.5 -8t-19.5 -29.5t-9 -52.5zM768 348q0 125 73.5 218t184.5 93t184.5 -93t73.5 -218t-73.5 -218t-184.5 -93t-184.5 93t-73.5 218zM975 346q0 -31 9 -52.5t19.5 -29.5t16.5 -8q8 0 17.5 8t18.5 29.5t9 52.5t-9 53.5t-18.5 30.5t-17.5 8 q-6 0 -16.5 -8t-19.5 -30.5t-9 -53.5z" />
<glyph unicode="&#x26;" horiz-adv-x="1421" d="M41 430q0 160 79 290t181 204q-106 137 -106 252q0 178 114.5 267t282.5 89q154 0 263.5 -89t109.5 -267q0 -94 -50.5 -189.5t-121.5 -157.5q57 -86 137 -188l37 74q39 74 59 139l229 -164q-51 -164 -137 -291q29 -41 68 -79.5t93 -87t77 -70.5l-269 -207 q-88 133 -141 192q-172 -172 -358 -172q-98 0 -185.5 19.5t-173.5 65.5t-137 141.5t-51 228.5zM459 461q0 -80 44 -120t109 -40q63 0 138 80q-66 88 -111 139q-29 33 -104 121q-76 -80 -76 -180zM512 1194q0 -41 72 -133q88 80 88 151q0 53 -18.5 77t-63.5 24 q-35 0 -53.5 -21.5t-21.5 -42t-3 -55.5z" />
<glyph unicode="'" horiz-adv-x="503" d="M39 1440q248 41 424 45q-53 -338 -70 -729h-287q-6 291 -67 684z" />
<glyph unicode="(" horiz-adv-x="671" d="M31 819q2 184 80.5 387t203.5 355l332 -88q-106 -223 -153.5 -389t-41 -339.5t50.5 -330t140 -406.5l-354 -78q-113 195 -186.5 435.5t-71.5 453.5z" />
<glyph unicode=")" horiz-adv-x="692" d="M23 1473l331 88q125 -152 204 -354.5t81 -387.5q2 -213 -72.5 -454.5t-187.5 -434.5l-354 78q78 199 118.5 333t63 274.5t6.5 265.5t-61 268.5t-129 323.5z" />
<glyph unicode="*" horiz-adv-x="1107" d="M68 834q18 6 80.5 26.5t103.5 33.5t86 31.5t63 30.5q-35 23 -181 81.5t-152 62.5l174 286q33 -33 116.5 -129t102.5 -114q-2 35 -36 166t-40 182l320 -4q-6 -45 -37 -178t-35 -166q2 2 44 49t85 91t76 77l168 -287q-39 -18 -163 -62t-147 -59q35 -20 173.5 -76.5 t152.5 -62.5l-174 -285q-35 37 -120 132.5t-101 111.5q2 -35 31.5 -164t33.5 -176l-315 2q8 43 44 173t40 165q-6 -6 -99.5 -105.5t-119.5 -125.5z" />
<glyph unicode="+" horiz-adv-x="1210" d="M88 557v340h340v381h365v-381h337v-340h-337v-403h-365v403h-340z" />
<glyph unicode="," horiz-adv-x="544" d="M8 -98q100 84 117 135q-86 63 -86 164q0 86 65.5 146.5t157.5 60.5t156.5 -60.5t66.5 -146.5q0 -113 -75 -224q-55 -86 -220 -192z" />
<glyph unicode="-" horiz-adv-x="911" d="M41 535l53 286q322 -6 750 0l-53 -284q-461 12 -750 -2z" />
<glyph unicode="." horiz-adv-x="528" d="M39 201q0 86 65.5 146.5t157.5 60.5t157.5 -60.5t65.5 -146.5q0 -88 -65.5 -148.5t-157.5 -60.5t-157.5 60.5t-65.5 148.5z" />
<glyph unicode="/" horiz-adv-x="1081" d="M4 0q37 317 344 838q178 299 266 645h408q-109 -401 -326 -768q-256 -434 -288 -715h-404z" />
<glyph unicode="0" horiz-adv-x="1251" d="M41 739q0 332 167 542t414.5 210t413.5 -206t166 -546q0 -362 -164 -556.5t-415.5 -194.5t-416.5 197.5t-165 553.5zM457 733q0 -133 29.5 -217t64.5 -110.5t72 -26.5q59 0 112 86t53 268q0 174 -54 263t-111 89q-59 0 -112.5 -89t-53.5 -263z" />
<glyph unicode="1" horiz-adv-x="974" d="M70 924q106 117 214.5 274.5t170.5 290.5l362 -74q-23 -616 0 -1415h-422q16 424 6 809l-57 -86q-51 27 -142 93.5t-132 107.5z" />
<glyph unicode="2" horiz-adv-x="1134" d="M18 1169q59 164 204 252t315 88q119 0 233.5 -43t199.5 -142t85 -232q0 -215 -224 -430q-31 -31 -100 -77t-115.5 -97.5t-76.5 -135.5h493v-352h-921l-54 195q31 297 273 522q16 14 76.5 66.5t93 83t64.5 80.5t32 93q0 45 -24.5 79t-69.5 34q-96 0 -148.5 -60.5 t-128.5 -218.5z" />
<glyph unicode="3" horiz-adv-x="1101" d="M35 233l147 322q61 -111 118.5 -155t137.5 -44q55 0 100.5 51.5t45.5 141.5q0 66 -52.5 118t-125.5 52q-55 0 -95 -21q-23 76 -37 109q129 188 211 348q-236 8 -428 -8v338q502 -25 901 0l64 -191q-197 -291 -225 -342q131 -51 189 -184t58 -268q0 -229 -158.5 -374.5 t-404.5 -145.5q-282 -1 -446 253z" />
<glyph unicode="4" horiz-adv-x="1216" d="M23 561q94 109 330.5 439.5t320.5 482.5h342q-23 -389 -23 -852h174l-51 -283l-119 -2q8 -205 19 -346h-420q14 225 16 346h-528zM397 631h219v293q-18 -25 -67 -87.5t-88 -114.5t-64 -91z" />
<glyph unicode="5" horiz-adv-x="1081" d="M33 690q88 444 94 793q301 -14 793 0l65 -314q-367 6 -530 0q-12 -55 -21 -145q76 23 137 23q219 0 339 -137.5t120 -342.5q0 -256 -137 -410.5t-414 -154.5q-248 0 -426 203l121 313q66 -68 147.5 -114t135.5 -46q49 0 87 52.5t38 117.5q0 86 -35 129t-94 43 q-47 0 -86 -17t-89.5 -55t-68.5 -50z" />
<glyph unicode="6" horiz-adv-x="1105" d="M53 758q0 78 26.5 225t61.5 211q37 63 69 105t88 91.5t139 74t190 24.5q137 0 268 -59l-80 -308q-133 51 -198.5 51.5t-101.5 -39.5t-42 -102q117 37 230.5 1t195.5 -122q127 -141 127 -379q-4 -250 -135 -393q-104 -111 -255 -145.5t-292 25t-213 200.5q-86 172 -78 539 zM436 530q0 -209 113 -208q100 0 96 213q-2 90 -31.5 137t-72.5 51q-105 8 -105 -193z" />
<glyph unicode="7" horiz-adv-x="1085" d="M33 1151l55 332h899l49 -221q-209 -403 -288 -621q-125 -346 -103 -641h-387q-29 276 55 549.5t252 601.5h-532z" />
<glyph unicode="8" horiz-adv-x="1126" d="M41 420q0 205 143 325q-143 113 -143 316q0 197 145.5 322.5t352 125.5t352 -124.5t145.5 -323.5q0 -172 -139 -303q70 -61 113 -151.5t43 -186.5q0 -197 -154 -321t-360.5 -124t-352 126t-145.5 319zM436 420q0 -49 29 -83t74 -34q98 0 98 117q0 102 -111 158 q-90 -49 -90 -158zM436 1061q0 -88 115 -150q102 53 102 154q0 53 -31.5 89t-82.5 36q-41 0 -72 -35t-31 -94z" />
<glyph unicode="9" horiz-adv-x="1110" d="M49 920q0 231 134 401t374 170q100 0 179 -27.5t131.5 -68.5t89 -107.5t56 -127t31 -145.5t13.5 -142.5t2 -137.5q0 -109 -16.5 -209t-57.5 -200.5t-105.5 -174t-168 -118.5t-236.5 -45q-135 0 -297 59l78 318q154 -59 236 -60q104 0 143 137q-57 -23 -125 -22 q-217 0 -339 146.5t-122 353.5zM440 958q0 -70 27 -133t82 -63q61 0 85.5 40t24.5 128q0 211 -112 211q-57 0 -82 -58.5t-25 -124.5z" />
<glyph unicode=":" horiz-adv-x="542" d="M57 870q0 82 60.5 139.5t148.5 57.5q86 0 146.5 -57.5t60.5 -139.5q0 -80 -60.5 -137t-146.5 -57q-88 0 -148.5 57t-60.5 137zM61 162q0 80 59.5 136t145.5 56t145.5 -56t59.5 -136q0 -78 -59.5 -134.5t-145.5 -56.5t-145.5 56.5t-59.5 134.5z" />
<glyph unicode=";" horiz-adv-x="542" d="M-8 -129q102 88 117 147q-74 51 -74 154q0 82 61.5 134t151.5 52t149.5 -56t59.5 -138q0 -70 -13.5 -113t-50.5 -100q-55 -92 -219 -209zM57 868q0 82 60.5 140.5t148.5 58.5q86 0 146.5 -58.5t60.5 -140.5t-60.5 -140t-146.5 -58q-88 0 -148.5 58t-60.5 140z" />
<glyph unicode="&#x3c;" horiz-adv-x="1157" d="M72 668q154 121 356.5 305t333.5 321l280 -219q-211 -184 -417 -407q129 -129 417 -332l-235 -264q-342 328 -735 596z" />
<glyph unicode="=" horiz-adv-x="1097" d="M100 236l11 335q360 -18 870 -2l-10 -333q-490 23 -871 0zM106 768l11 334q465 -6 870 0l-10 -334q-457 16 -871 0z" />
<glyph unicode="&#x3e;" horiz-adv-x="1110" d="M76 340q319 238 418 332q-131 143 -418 407l278 219q145 -147 343 -327t350 -295q-444 -322 -736 -600z" />
<glyph unicode="?" horiz-adv-x="1128" d="M47 1143q66 154 208 245t304 91q203 0 349.5 -105.5t146.5 -300.5q0 -90 -37 -164.5t-73 -107.5t-105 -88q-14 -10 -54.5 -36t-65 -43.5t-46 -47t-21.5 -58.5q0 -35 19 -120l-373 55q-14 80 -14 117q0 53 13 95t44 73.5t56.5 51t75.5 51.5t77 50q4 2 20.5 14.5t19.5 14.5 t16.5 12t16.5 15.5t10 15.5t10 18t5 20.5t2 26.5q0 51 -35.5 87t-89.5 36q-162 0 -301 -233zM276 184q0 80 59.5 138.5t145.5 58.5t145.5 -58.5t59.5 -138.5q0 -82 -59.5 -140t-145.5 -58t-145.5 59t-59.5 139z" />
<glyph unicode="@" horiz-adv-x="1521" d="M37 682q0 295 220 507t519 212q297 0 487.5 -212t190.5 -517q0 -162 -104.5 -304.5t-270.5 -142.5q-70 0 -142.5 33t-111.5 90q-90 -104 -198 -104q-100 0 -174 74.5t-105 171t-26 184.5q6 170 117.5 307t260.5 137q80 0 146 -61q8 27 43 102l239 -186q-63 -205 -65 -393 q0 -133 49 -134q63 0 112.5 61.5t49.5 160.5q0 223 -133 384.5t-371 161.5q-248 0 -395.5 -160.5t-151.5 -373.5q-2 -221 152.5 -379t359.5 -158q61 0 191 52l75 -166q-68 -43 -126 -56.5t-148 -13.5q-295 0 -492.5 211t-197.5 512zM608 702q-6 -55 14.5 -99t59.5 -44 q68 0 80 135q6 51 -10.5 92t-53.5 41q-76 0 -90 -125z" />
<glyph unicode="A" horiz-adv-x="1302" d="M29 27q113 438 354 1456h508q158 -618 399 -1458l-502 -70l-26 262h-244q-31 -180 -37 -268zM565 518h154q-4 20 -30.5 189.5t-39.5 230.5q-21 -72 -84 -420z" />
<glyph unicode="B" horiz-adv-x="1255" d="M63 0q12 373 12.5 743.5t-12.5 739.5h578q213 0 369.5 -126t156.5 -337q0 -63 -36.5 -138t-90.5 -130q53 -45 89 -117t36 -133q0 -225 -154.5 -363.5t-369.5 -138.5h-578zM510 563l4 -268h16q199 0 199 145q0 59 -58 98q-44 29 -114 28q-22 0 -47 -3zM510 866h9 q100 0 156 43q58 45 58 105q0 61 -51 98q-42 30 -128 30q-19 0 -40 -1z" />
<glyph unicode="C" horiz-adv-x="1243" d="M39 741.5q0 315.5 184.5 543.5t454.5 228q190 0 333.5 -93t180.5 -281l-293 -230q-41 111 -92 158t-121 47q-66 0 -136.5 -102.5t-70.5 -253.5q0 -184 66.5 -293t144.5 -109q45 0 102.5 39t98.5 121l309 -197q-72 -162 -202 -257t-320 -95q-270 0 -454.5 229.5 t-184.5 545z" />
<glyph unicode="D" horiz-adv-x="1269" d="M84 0q15 343 15 713.5t-15 769.5h496q143 0 257.5 -51.5t183.5 -130t115 -182t63.5 -199t17.5 -189.5q0 -92 -19.5 -187t-67 -194.5t-118 -176.5t-182 -126t-248.5 -49q-37 2 -498 2zM543 379q57 0 100 41t64.5 101.5t32 113.5t10.5 94q0 45 -8.5 98.5t-28 117 t-64.5 104.5q-43 39 -100 39q-3 0 -6 -1q-14 -186 -14 -363t14 -345z" />
<glyph unicode="E" horiz-adv-x="1083" d="M80 0q23 338 22.5 708.5t-22.5 774.5h928v-377h-461q-6 -86 -6 -188h389l-74 -353h-315l6 -184h461v-381h-928z" />
<glyph unicode="F" horiz-adv-x="1026" d="M43 0q17 343 17 713.5t-17 769.5h946v-375h-483q-4 -55 -4 -190h393l-90 -361h-305q0 -13 -1 -31q0 -128 13 -526h-469z" />
<glyph unicode="G" horiz-adv-x="1376" d="M47 739q0 307 198.5 532.5t465.5 225.5q305 0 471 -213l-219 -283q-84 121 -230 121q-80 0 -158.5 -105.5t-78.5 -264.5q0 -180 71.5 -283.5t165.5 -103.5q72 0 112 68.5t42 137.5q-26 -2 -53 -2q-20 0 -41 1q-49 3 -88 8l-39 6l53 338q223 -27 394 -27q106 0 194 10 q-23 -162 -23 -323q0 -233 -155.5 -415.5t-417.5 -182.5q-281 0 -472.5 223t-191.5 532z" />
<glyph unicode="H" horiz-adv-x="1230" d="M47 0q24 344 24 714.5t-24 768.5h471q-14 -289 -18 -586h205q-8 403 -21 586h471q-24 -407 -24 -772q0 -379 26 -711h-473q20 274 21 530h-207q2 -266 22 -530h-473z" />
<glyph unicode="I" horiz-adv-x="604" d="M61 0q25 333 26 712q0 364 -24 771h472q-24 -411 -24 -781.5t24 -701.5h-474z" />
<glyph unicode="J" horiz-adv-x="983" d="M27 158l127 381q140 -158 236 -158h7q27 2 49.5 31.5t26.5 81.5q8 30 8 147q0 35 -1 78q-3 186 -6 261t-12 265.5t-11 237.5h469q0 -6 -5.5 -148.5t-6.5 -197t-3 -171.5q-1 -47 -1 -90q0 -64 2 -116q3 -88 12 -166q0 -225 -37 -320q-55 -137 -152.5 -213.5t-306.5 -78.5 q-7 0 -15 -1q-205 0 -319 113q-14 17 -61 64z" />
<glyph unicode="K" horiz-adv-x="1257" d="M57 -2q25 335 25 715q0 365 -23 772h471q-12 -201 -20 -531q80 111 145.5 264.5t92.5 292.5l403 -30q-63 -365 -258 -611q74 -74 128 -183t89 -247.5t51.5 -223.5t34.5 -214l-440 -25q-49 406 -152 578q-70 -78 -94 -111q2 -217 20 -446h-473z" />
<glyph unicode="L" horiz-adv-x="1091" d="M47 0q19 328 19.5 698.5t-19.5 784.5h469q-15 -330 -15 -620q0 -249 11 -468h549l-76 -395h-938z" />
<glyph unicode="M" horiz-adv-x="1701" d="M4 16q225 1061 272 1469h414q39 -211 164 -533q117 299 176 533h393q115 -864 258 -1465l-464 -38q-35 377 -64 591q-102 -328 -127 -467l-336 -10q-66 240 -182 543q-34 -279 -34 -568q0 -46 1 -91z" />
<glyph unicode="N" d="M47 0q24 344 24 714.5t-24 768.5h295q125 -233 451 -723q-16 535 -27 723h430q-24 -407 -24 -772q0 -379 26 -711h-385q-74 121 -362 492q18 -344 28 -492h-432z" />
<glyph unicode="O" horiz-adv-x="1441" d="M29 739q0 336 202.5 552t487.5 216t484.5 -217t199.5 -551q0 -342 -198.5 -555t-485.5 -213q-281 0 -485.5 223t-204.5 545zM494 731q0 -168 66.5 -281.5t160.5 -113.5q92 0 154.5 112.5t62.5 282.5q0 166 -65.5 280.5t-151.5 114.5q-96 0 -161.5 -112.5t-65.5 -282.5z " />
<glyph unicode="P" horiz-adv-x="1153" d="M41 0q25 333 25 713q0 364 -23 772q203 -4 347 -4q96 0 167 2h21q201 0 368 -147q176 -155 176 -382t-175 -380q-160 -139 -352 -139q-18 0 -36 1l-63 4q4 -217 18 -440h-473zM492 819q131 14 171 94q17 33 16 66q0 44 -32 85q-51 65 -136 65q-7 0 -15 -1 q-4 -102 -4 -309z" />
<glyph unicode="Q" horiz-adv-x="1386" d="M33 731q0 324 193.5 560.5t469.5 236.5q182 0 336 -109.5t240 -292t86 -395.5q0 -252 -105.5 -464t-312.5 -298q33 -59 108.5 -87.5t229.5 -45.5l-258 -350q-205 0 -334 143.5t-137 325.5q-223 61 -369.5 280.5t-146.5 495.5zM504 723q0 -412 190 -412q184 0 185 412 q0 176 -43 294t-142 118q-190 0 -190 -412z" />
<glyph unicode="R" horiz-adv-x="1230" d="M94 0q12 311 12 682t-12 801h520q215 0 389.5 -161t174.5 -388q0 -115 -55.5 -216.5t-149.5 -162.5q72 -98 132 -256t75 -299h-467q-12 152 -52 308.5t-108 232.5q-1 -57 -1 -126q0 -172 7 -415h-465zM551 782q88 2 136 45t48 113q0 80 -45 128t-133 50q-6 -295 -6 -336z " />
<glyph unicode="S" horiz-adv-x="1218" d="M29 1032q0 231 168 357.5t440 126.5q168 0 274.5 -38t282.5 -139l-188 -391q-166 207 -367 207q-117 0 -117 -94q0 -18 17.5 -36.5t53.5 -37t58.5 -28t67.5 -27t47 -17.5q193 -78 296 -185t103 -281q0 -213 -164.5 -347.5t-402.5 -134.5q-102 0 -185 15.5t-185.5 45 t-172.5 44.5l101 403q113 -76 222 -113.5t183 -37.5q57 0 85 27.5t28 97.5q0 20 -21.5 41.5t-60.5 42t-71 34t-77 30.5t-53 21q-362 160 -362 414z" />
<glyph unicode="T" horiz-adv-x="1280" d="M10 1079l56 408q255 -16 555 -16.5t645 16.5l-56 -406q-188 29 -323 29q-17 -187 -17 -438q0 -293 23 -672h-504q21 350 21 647q0 250 -15 461q-197 0 -385 -29z" />
<glyph unicode="U" horiz-adv-x="1269" d="M68 1483h493q-29 -330 -29 -672q0 -163 7 -328q2 -49 43 -87t73 -38q39 0 77 32t40 85q6 144 6 324q0 293 -16 684h467q-23 -351 -23 -660q0 -163 6 -315q1 -12 1 -23q0 -198 -165 -345q-175 -155 -397 -154q-225 0 -396 151q-167 148 -167 363v10q3 155 3 293 q0 416 -23 680z" />
<glyph unicode="V" horiz-adv-x="1390" d="M-18 1468l563 37q33 -467 143 -884q125 446 174 882l516 -41q-23 -70 -110.5 -329t-136 -407t-111 -362t-92.5 -364h-475q-37 174 -233.5 753.5t-237.5 714.5z" />
<glyph unicode="W" horiz-adv-x="1925" d="M-4 1468l563 37q35 -518 107 -839q115 379 168 718l337 27q66 -539 134 -770q84 350 143 862l514 -41q-281 -852 -410 -1462h-477q-4 20 -37.5 198.5t-58.5 268.5q-20 -68 -105 -467h-448q-18 86 -54 219t-89.5 310.5t-94.5 313.5t-104 341.5t-88 283.5z" />
<glyph unicode="X" horiz-adv-x="1220" d="M10 1483h469q51 -195 121 -346q76 162 129 346h467q-82 -313 -342 -740q135 -221 214 -396t99 -347h-467q-18 168 -96 350q-80 -178 -98 -350h-469q41 276 313 745q-256 435 -340 738z" />
<glyph unicode="Y" horiz-adv-x="1183" d="M-23 1483h486q41 -391 139 -654q94 252 139 654h465q-256 -600 -372 -1041q-7 -90 -7 -182q0 -127 13 -260h-478q15 119 16 249q0 100 -9 206q-103 338 -392 1028z" />
<glyph unicode="Z" horiz-adv-x="1257" d="M27 1085l71 398h1092l20 -94q-123 -205 -268 -498t-229 -502q90 -4 177 -4q174 0 335 16l-70 -401h-1087l-21 92q37 70 128 238t142.5 265t118 239.5t111.5 259.5q-76 5 -168 4q-154 0 -352 -13z" />
<glyph unicode="[" horiz-adv-x="815" d="M51 0q29 881 0 1483h703l-54 -326h-204q-23 -414 0 -831h204l54 -326h-703z" />
<glyph unicode="\" horiz-adv-x="1081" d="M16 1483h408q88 -346 266 -645q307 -512 346 -838h-405q-33 281 -289 715q-213 358 -326 768z" />
<glyph unicode="]" horiz-adv-x="821" d="M25 0l55 326h205q25 371 0 831h-205l-55 326h706q-59 -598 -2 -1483h-704z" />
<glyph unicode="^" horiz-adv-x="1200" d="M33 946q322 299 547 559q276 -299 589 -571l-274 -221q-152 184 -299 309q-117 -98 -320 -322z" />
<glyph unicode="_" horiz-adv-x="794" d="M-70 -119h934v-221h-934v221z" />
<glyph unicode="`" horiz-adv-x="888" d="M127 1524h448q45 -156 183 -350h-328q-92 133 -303 350z" />
<glyph unicode="a" horiz-adv-x="1261" d="M57 569q4 229 144.5 393t351.5 164q76 0 152.5 -36.5t111.5 -85.5l350 94q-14 -251 -14 -552q0 -255 10 -546h-442l-6 51q-104 -76 -238 -76q-180 0 -302 185q-118 178 -118 395v14zM473 549q0 -86 34 -155q36 -73 97 -72q63 0 98 64.5t35 174.5q0 98 -32.5 161.5 t-94 63.5t-98.5 -68q-39 -73 -39 -169z" />
<glyph unicode="b" d="M88 -2q20 439 20.5 816.5t-20.5 692.5l447 121q-16 -287 -19 -526q82 49 213 49q203 0 329 -179t126 -415q0 -231 -137.5 -409.5t-323.5 -178.5q-100 0 -191 70v-41h-444zM516 748q0 -111 4 -328q47 -51 113 -51q39 0 60.5 33.5t25.5 73.5t4 108q0 221 -96 221 q-64 0 -111 -57z" />
<glyph unicode="c" horiz-adv-x="1118" d="M61 543q0 307 158 446t428 139q150 0 279 -82.5t170 -234.5l-281 -209q-20 92 -56 130t-95 38q-53 0 -93.5 -57.5t-40.5 -153.5q0 -111 43 -176.5t107 -65.5q31 0 53.5 10.5t30.5 17.5t27.5 34t23.5 33l268 -215q-182 -238 -452 -238q-117 0 -217.5 34t-180 101.5 t-126 182t-46.5 266.5z" />
<glyph unicode="d" d="M53 557q0 236 157 411t380 175q72 0 131 -35q-2 168 -16 399l446 121q-21 -362 -21 -781q0 -398 19 -847h-444l2 27q-72 -39 -134 -39q-217 0 -368.5 168t-151.5 401zM512 584q0 -96 39 -155.5t90 -59.5q49 0 78 34q4 229 4 357q-37 37 -92 37q-47 0 -83 -57.5 t-36 -155.5z" />
<glyph unicode="e" horiz-adv-x="1200" d="M55 547q0 244 157 427t400 183q111 0 202 -44t153.5 -122t104.5 -163t69 -185l-602 -319q20 -31 59 -49.5t72 -18.5q66 0 164 56.5t178 140.5l108 -312q-74 -82 -206 -132t-293 -50q-246 0 -406 178.5t-160 409.5zM442 553l285 147q-54 131 -130 132q-2 0 -5 -1 q-86 -6 -125 -95q-28 -65 -28 -133q-1 -25 3 -50z" />
<glyph unicode="f" horiz-adv-x="995" d="M0 764l55 332h125q0 170 68 297q53 102 171 158.5t243 56.5q141 0 284 -133l-78 -281q-82 51 -153 51q-57 0 -94 -40t-39 -91v-18h305l-51 -332h-252q14 -428 43 -764h-447q10 208 10 449q0 151 -4 315h-186z" />
<glyph unicode="g" d="M63 535q0 150 57.5 280.5t175.5 217.5t269 87q94 0 166 -49v100l453 -102q-23 -193 -23 -477q0 -223 17 -479q4 -49 4 -74q0 -260 -148.5 -392t-412.5 -132q-29 0 -57.5 2t-59.5 6t-53.5 8t-56.5 13.5t-51 13.5t-55 16t-51.5 17.5t-56.5 19.5t-53 18l70 336 q176 -131 370 -131q80 0 134.5 53.5t56.5 132.5q-86 -57 -187 -57q-223 0 -365.5 172.5t-142.5 399.5zM522 532q0 -41 7.5 -86t34 -89t69.5 -44q76 0 115 54q2 31 2 90q0 129 -7 254q-43 43 -110 43q-59 0 -85 -74t-26 -148z" />
<glyph unicode="h" horiz-adv-x="1255" d="M88 0q19 455 19.5 831.5t-19.5 675.5l447 121q-14 -227 -19 -577q41 37 121 69.5t133 32.5q109 0 181.5 -47t104 -127t42.5 -154q7 -53 7 -109q0 -23 -1 -46q-4 -80 -4 -153q0 -331 84 -517h-506q29 157 29 399v62q-2 129 -26 229.5t-56 100.5q-23 0 -59 -21.5t-52 -42.5 q2 -350 18 -727h-444z" />
<glyph unicode="i" horiz-adv-x="651" d="M119 0q19 259 19 521q0 247 -17 497l444 121q-14 -307 -14 -592t14 -547h-446zM131 1399q0 82 62.5 141t150.5 59t150.5 -59t62.5 -141q0 -84 -62.5 -143.5t-150.5 -59.5t-150.5 59.5t-62.5 143.5z" />
<glyph unicode="j" horiz-adv-x="624" d="M-367 -311l140 297q66 -74 112 -100q41 -22 94 -22q8 0 17 1q106 6 125 219q5 79 5 190q0 272 -32 736l447 123q-6 -138 -6 -372.5t6 -563.5q1 -46 1 -87q0 -120 -10 -187q-12 -89 -59 -189q-47 -98 -176 -163t-274 -65q-127 0 -209.5 43.5t-180.5 139.5zM98 1395 q0 84 61.5 144t149.5 60t150.5 -60t62.5 -144t-62.5 -144.5t-150.5 -60.5t-149.5 60.5t-61.5 144.5z" />
<glyph unicode="k" horiz-adv-x="1273" d="M102 -2q19 456 19.5 833t-19.5 676l447 121q-20 -322 -21 -811q172 190 248 350l412 -82q-133 -225 -301 -440q289 -440 399 -586l-430 -104q-121 242 -227 389q-10 -12 -43 -48t-49 -52l10 -246h-445z" />
<glyph unicode="l" horiz-adv-x="638" d="M88 0q20 439 20.5 816t-20.5 691l447 121q-21 -362 -21 -781q0 -398 18 -847h-444z" />
<glyph unicode="m" horiz-adv-x="1966" d="M104 0q19 240 19 509q0 254 -17 533l447 140q-4 -29 -10 -102.5t-8 -88.5q43 47 142 98.5t167 51.5q90 0 168 -37t114 -111q57 61 170 106.5t203 45.5q109 0 183.5 -52.5t106.5 -134t43 -161.5q7 -52 7 -103q0 -28 -2 -55q-9 -122 -9 -226q0 -261 58 -413h-510 q15 147 16 317q0 146 -12 310q-2 31 -27.5 68.5t-58.5 37.5q-20 0 -48.5 -22.5t-39.5 -40.5q-12 -108 -11 -224q0 -210 38 -446h-485q16 259 16 458q0 99 -4 183q-2 33 -30 74t-62 41q-49 0 -127 -88q-6 -115 -6 -242q0 -199 14 -426h-445z" />
<glyph unicode="n" horiz-adv-x="1290" d="M92 0q23 253 23 513.5t-23 528.5l459 142q-14 -90 -14 -137q47 37 148 68.5t157 31.5q100 0 167.5 -46t98.5 -127t40 -164q6 -50 5 -105q0 -37 -2 -76q-3 -58 -3 -121q0 -103 8 -219q13 -188 48 -289l-497 2q16 302 15 496q0 58 -1 106q0 43 -26.5 88t-63.5 45 q-18 0 -49 -12t-43 -27q-5 -61 -6 -198q0 -183 10 -500h-451z" />
<glyph unicode="o" horiz-adv-x="1214" d="M63 549q0 268 158 424.5t393 156.5q231 0 391 -160.5t160 -420.5q0 -262 -159.5 -423t-391.5 -161q-233 0 -392 160t-159 424zM475 549q0 -104 41 -169t96 -65q61 0 98.5 62.5t37.5 171t-38 171t-98 62.5q-63 0 -100 -61t-37 -172z" />
<glyph unicode="p" horiz-adv-x="1245" d="M100 -426q19 429 19.5 797.5t-19.5 677.5l447 120l-6 -104q82 57 182 57q205 0 343 -177t138 -410.5t-152.5 -405.5t-367.5 -172q-82 0 -154 57q2 -72 15 -440h-445zM528 387q41 -74 93 -74q49 0 85.5 60.5t36.5 161.5q0 98 -36.5 158.5t-85.5 60.5q-66 0 -93 -90v-277z " />
<glyph unicode="q" horiz-adv-x="1243" d="M57 535q0 233 140.5 412t337.5 179q199 0 276 -125l352 91q-22 -338 -21.5 -706.5t21.5 -766.5l-452 -49q0 55 7 217t7 227q-92 -49 -197 -49q-186 0 -328.5 170.5t-142.5 399.5zM502 532q0 -96 36.5 -155.5t86.5 -59.5q76 0 104 72q4 61 4 128.5t-4 139.5 q-12 41 -41 64.5t-63 23.5q-51 0 -87 -57.5t-36 -155.5z" />
<glyph unicode="r" horiz-adv-x="1112" d="M90 0q19 254 19 510q0 242 -17 487l445 144l-5 -101q113 80 232 80q106 0 177 -64.5t98.5 -153.5t27.5 -193l-369 -232q0 94 -18 153.5t-40 79t-48 19.5q-33 0 -70 -59q-2 -76 -2 -160q0 -229 17 -510h-447z" />
<glyph unicode="s" horiz-adv-x="1089" d="M68 762q0 102 43 177t118.5 116t163.5 59.5t193 18.5q268 0 413 -123l-94 -303q-170 121 -284 120q-78 0 -78 -30q0 -25 46 -49.5t111.5 -55t130 -71.5t110.5 -114t46 -167q0 -106 -43 -183t-118.5 -117t-156.5 -57.5t-173 -17.5q-90 0 -222.5 41t-189.5 109l76 291 q106 -70 150 -89.5t108 -19.5q76 0 76 55q0 16 -44 36t-106.5 46.5t-125 65.5t-106.5 106.5t-44 155.5z" />
<glyph unicode="t" horiz-adv-x="1005" d="M8 760l55 338h162l-6 243l449 138q-8 -268 -15 -381h242l-49 -338h-201q0 -193 4 -268q4 -39 6 -56.5t20.5 -43t53.5 -27.5q7 -1 15 -1q33 0 62 15q36 18 103 84l66 -348q-39 -47 -132 -93.5t-167 -46.5h-16q-233 0 -343 115q-98 104 -98 292q0 27 2 56q8 121 8 322h-221 z" />
<glyph unicode="u" horiz-adv-x="1306" d="M96 1098h461q-2 -68 -10 -189t-10 -157q-7 -123 -8 -203q0 -53 3 -86q12 -106 70 -107q29 0 86 15.5t76 25.5q10 129 10 287q0 187 -14 414h442q-17 -214 -17 -463q0 -275 21 -592l-442 -68q6 37 10 111q-57 -43 -163.5 -71.5t-196.5 -28.5q-94 0 -163 49t-100.5 125 t-44.5 147q-9 54 -9 104q0 17 1 33q10 144 10 300q0 171 -12 354z" />
<glyph unicode="v" d="M25 1087l471 25q78 -297 174 -518q70 197 135 518l438 -25q-94 -219 -199.5 -530t-166.5 -555l-388 -55q-190 577 -464 1140z" />
<glyph unicode="w" horiz-adv-x="1712" d="M23 1087l473 25q61 -309 110 -496q25 68 139 449l279 4q115 -385 139 -455q63 266 86 498l453 -25q-215 -524 -348 -1087l-371 -31q-72 342 -102 443q-76 -223 -121 -410l-344 -33q-180 594 -393 1118z" />
<glyph unicode="x" horiz-adv-x="1155" d="M-4 1100l496 10q102 -219 104 -225q18 31 67.5 102.5t81.5 132.5l390 -30q-74 -98 -197 -293t-145 -230q39 -59 157.5 -245.5t208.5 -325.5l-463 -4q-27 49 -68.5 134t-62.5 120q-27 -43 -80 -123t-88 -141l-381 26q217 311 361 533q-285 424 -381 559z" />
<glyph unicode="y" horiz-adv-x="1214" d="M-2 1038l430 80q82 -272 213 -526q25 82 76 268.5t71 257.5l426 -78q-98 -238 -225 -615.5t-203 -643.5q-27 -90 -80 -147.5t-126.5 -79t-119.5 -26.5t-109.5 -5t-151.5 29.5t-142 60.5l78 307q10 -4 35 -12t33 -10t25.5 -7.5t29.5 -7.5t30.5 -3t41.5 -1q27 0 48 14.5 t30.5 25.5t26 44t20.5 39q-154 413 -457 1036z" />
<glyph unicode="z" horiz-adv-x="1058" d="M29 768l55 342q182 -12 401.5 -12t475.5 12l59 -104q-96 -135 -216 -338t-181 -332q28 -1 58 -2q143 0 320 33l-53 -373q-106 10 -248.5 10t-329 -5t-282.5 -5l-39 98q276 498 367 686q-51 3 -111 4q-119 0 -276 -14z" />
<glyph unicode="{" horiz-adv-x="864" d="M20 651v203q123 8 155 22.5t32 57.5q0 45 -9.5 137t-9.5 139q0 162 86 262.5t258 100.5q133 0 285 -98l-53 -240q-66 31 -141 31q-16 0 -27.5 -2t-16 -12.5t-5.5 -14.5t0 -23.5t1 -25.5q0 -41 9.5 -125t9.5 -127q0 -109 -88 -182q86 -72 86 -209q0 -39 -7 -113t-7 -110 q0 -61 8 -73.5t49 -12.5q51 0 135 55l59 -248q-59 -51 -147 -87t-152 -36q-168 0 -255 105.5t-87 261.5q0 39 11.5 116.5t11.5 116.5q0 78 -30 102.5t-161 28.5z" />
<glyph unicode="|" horiz-adv-x="559" d="M94 -76q20 727 0 1649h344q-16 -926 0 -1649h-344z" />
<glyph unicode="}" horiz-adv-x="854" d="M4 43l59 248q82 -55 136 -55q41 0 49 12t8 74q0 37 -7 110.5t-7 112.5q0 137 86 209q-88 74 -88 182q0 43 9 127t9 125q0 6 1 21.5t0 20.5t-3 14t-7 12.5t-15.5 6.5t-24.5 3q-74 0 -139 -31l-54 240q152 98 285 98q172 0 258 -100.5t86 -262.5q0 -47 -10 -139t-10 -137 q0 -43 32.5 -57.5t155.5 -22.5v-203q-131 -4 -160.5 -28.5t-29.5 -102.5q0 -39 11 -116.5t11 -116.5q0 -156 -87 -261.5t-255 -105.5q-66 0 -154 36t-145 87z" />
<glyph unicode="~" horiz-adv-x="1183" d="M-6 1030q25 27 66.5 67t147 106.5t181.5 66.5q59 0 110.5 -29t80 -64.5t60.5 -64.5t58 -29q51 0 120 87t116 169l242 -286q-8 -14 -25.5 -37t-70 -81t-105.5 -103.5t-130 -81t-149 -35.5q-88 2 -135 31.5t-102 101.5q-111 135 -283 -127z" />
<glyph unicode="&#xa1;" horiz-adv-x="501" d="M-4 18q47 420 65 986l328 51q20 -541 57 -1039q-241 -47 -450 2zM-4 1292q0 88 65.5 148.5t155.5 60.5q92 0 157.5 -60.5t65.5 -148.5q0 -86 -65.5 -146.5t-157.5 -60.5q-90 0 -155.5 60.5t-65.5 146.5z" />
<glyph unicode="&#xa2;" horiz-adv-x="974" d="M35 776.5q0 149.5 90 269t233 168.5v234h314v-227q193 -47 262 -228l-238 -139q-49 86 -147 86q-68 0 -114 -46t-46 -118q0 -68 45 -113t105 -45q94 0 145 74l238 -164q-121 -145 -250 -190v-225h-314v225q-143 49 -233 169t-90 269.5z" />
<glyph unicode="&#xa3;" horiz-adv-x="1245" d="M20 616v252l187 -4q0 18 -2 50t-3 58.5t-1 51.5q0 219 125 360.5t358 141.5q143 0 233.5 -37t186.5 -133l-121 -293q-123 135 -188 135q-68 0 -109 -35t-51 -86t-14.5 -109.5t2.5 -103.5l204 4v-252h-202q0 -41 6 -243h573v-373h-1063q70 229 70 461q0 104 -4 155h-187z " />
<glyph unicode="&#xa5;" horiz-adv-x="1312" d="M66 1483h448q18 -176 44 -292t79 -241q90 223 127 533h446q-43 -303 -213 -723h183v-170h-273l-20 -127h293v-170h-320v-293h-444v293h-322v170h299l-20 127h-279v170h185q-158 387 -213 723z" />
<glyph unicode="&#xa6;" horiz-adv-x="382" d="M72 -111v639h223v-639h-223zM72 702v627h223v-627h-223z" />
<glyph unicode="&#xa7;" horiz-adv-x="1085" d="M43 702q-16 178 109 299q-18 59 -19 119q0 137 84 232.5t205 129.5t258 19.5t244 -78.5l8 -166q0 31 2 -2q2 -37 6 -161l-4 6q-53 76 -162.5 107.5t-181.5 13.5q-41 -12 -52.5 -43t3.5 -39q84 -10 210 -53.5t183 -88.5l4 -2q43 -35 76 -99.5t37 -119.5q12 -178 -111 -295 q20 -55 21 -119q0 -139 -84 -233t-206 -128t-259.5 -19.5t-243.5 77.5q-12 305 -16 330v19l4 -7q66 -92 166 -122.5t174 -10.5q29 8 44 24.5t14 30t-3 21.5q-84 10 -210 53t-183 88l-4 2q-43 35 -76 98.5t-37 116.5zM392 763q9 -36 38 -48.5t65.5 -20.5t56 -11t71 -8 t59.5 -7q12 20 0 56t-43 48q-102 41 -240 47q-16 -20 -7 -56z" />
<glyph unicode="&#xa8;" horiz-adv-x="1021" d="M61 1333.5q0 65.5 50.5 111.5t119.5 46q72 0 121 -46t49 -111.5t-49 -111.5t-121 -46q-70 0 -120 46t-50 111.5zM535 1333.5q0 65.5 49 111.5t120.5 46t120.5 -46t49 -111.5t-49 -111.5t-120.5 -46t-120.5 46t-49 111.5z" />
<glyph unicode="&#xa9;" horiz-adv-x="1556" d="M-16 735.5q0 315.5 230 538.5t558 223t558.5 -223t230.5 -538.5t-230.5 -539t-558.5 -223.5t-558 223.5t-230 539zM188 735q0 -236 171 -400.5t413 -164.5t413 165t171 400q0 233 -171 398t-413 165t-413 -165t-171 -398zM336 731q0 180 126 309t306 129 q125 0 241.5 -71.5t149.5 -214.5l-295 -86q-27 72 -88 71q-41 0 -76.5 -31.5t-35.5 -99t36.5 -102.5t75.5 -35q20 0 47 16.5t41 47.5l291 -125q-166 -246 -387 -246q-180 0 -306 129t-126 309z" />
<glyph unicode="&#xaa;" horiz-adv-x="839" d="M20 338v235h766v-235h-766zM29 1051q0 166 95 282.5t249 116.5q49 0 94 -35l-4 70l317 -64q-27 -436 2 -778h-321l6 39q-66 -47 -107 -47q-147 0 -239 125t-92 291zM317 1051q0 -156 72 -156q68 0 68 156q0 139 -68 139q-72 0 -72 -139z" />
<glyph unicode="&#xab;" horiz-adv-x="1368" d="M-41 506q283 225 608 571l250 -203q-205 -190 -364 -370q141 -139 362 -303l-209 -246q-254 242 -647 551zM512 506q315 272 604 571l250 -203q-186 -170 -362 -370q154 -143 360 -303l-209 -246q-262 244 -643 551z" />
<glyph unicode="&#xac;" horiz-adv-x="1116" d="M53 768l285 63l147 252l148 -252l287 -63l-195 -217l29 -291l-269 117l-266 -117l29 291z" />
<glyph unicode="&#xad;" horiz-adv-x="911" d="M41 535l53 286q322 -6 750 0l-53 -284q-461 12 -750 -2z" />
<glyph unicode="&#xae;" horiz-adv-x="1556" d="M-16 735.5q0 315.5 230 538.5t558 223t558.5 -223t230.5 -538.5t-230.5 -539t-558.5 -223.5t-558 223.5t-230 539zM188 735q0 -236 171 -400.5t413 -164.5t413 165t171 400q0 233 -171 398t-413 165t-413 -165t-171 -398zM418 311q23 438 0 863h344q141 0 262 -96.5 t121 -231.5q0 -133 -121 -221q84 -145 131 -314h-334q-12 147 -67 236h-19l10 -236h-327zM711 758q70 4 112.5 23.5t40.5 66.5q-4 92 -145 100q-10 -116 -8 -190z" />
<glyph unicode="&#xaf;" horiz-adv-x="677" d="M-8 1204v221q317 -6 682 0v-221q-307 16 -682 0z" />
<glyph unicode="&#xb0;" horiz-adv-x="944" d="M20 1081q0 166 125 284t306 118q178 0 303 -118t125 -284t-125 -283.5t-303.5 -117.5t-304.5 117.5t-126 283.5zM297 1081q0 -59 45 -102t109 -43q61 0 106 43t45 102q0 61 -45 103.5t-106 42.5q-63 0 -108.5 -42.5t-45.5 -103.5z" />
<glyph unicode="&#xb1;" horiz-adv-x="749" d="M23 731v281h186v266h266v-266h189v-281h-189v-268h-266v268h-186zM27 111v284h635v-284h-635z" />
<glyph unicode="&#xb2;" horiz-adv-x="737" d="M74 641q12 59 45 105.5t58.5 64.5t78.5 49q133 86 133 129q0 70 -45 70q-29 0 -60.5 -17.5t-117.5 -72.5l-47 161q35 49 97.5 78t129.5 29q100 0 184 -58.5t84 -189.5q0 -66 -25.5 -113t-56 -70.5t-90.5 -57.5h23q-27 -12 -46.5 -29t-27.5 -21h217v-192h-524z" />
<glyph unicode="&#xb3;" horiz-adv-x="737" d="M39 608l49 160q127 -88 213 -88q27 0 43 18.5t16 36.5q0 55 -53 56l-133 -17q-27 43 -27 94q8 47 21 101q133 -18 139 -19q53 0 53 49q0 23 -11 48.5t-36 25.5q-6 0 -12 -1l-12 -2q-6 -1 -13.5 -4l-12.5 -5t-14 -7t-14.5 -8.5t-17.5 -11.5t-19.5 -12t-22.5 -15.5 t-25 -17.5l-64 152q102 96 233 96q104 0 189.5 -55.5t85.5 -186.5q0 -66 -37 -125q37 -39 37 -131q0 -70 -26.5 -119t-70.5 -73.5t-88 -35.5t-90 -11q-143 -1 -280 108z" />
<glyph unicode="&#xb4;" horiz-adv-x="1050" d="M209 1174q125 201 178 391h451q-197 -203 -303 -391h-326z" />
<glyph unicode="&#xb5;" horiz-adv-x="1310" d="M94 -426q27 758 0 1528h449q-2 -68 -11.5 -247t-11.5 -265t2 -215q12 -25 78 -25q10 0 17.5 4t12.5 11.5t8 15.5t4 20.5t2 20.5t1 21v20q14 291 -2 637l461 2q-23 -649 6 -715q16 -35 58 -62.5t77 -37.5l33 -8l-209 -365q-90 88 -149 149q-53 -51 -132 -77.5t-155 -14.5 q-49 8 -115 64q-2 -86 10.5 -243t14.5 -218h-449z" />
<glyph unicode="&#x3bc;" horiz-adv-x="1310" d="M94 -426q27 758 0 1528h449q-2 -68 -11.5 -247t-11.5 -265t2 -215q12 -25 78 -25q10 0 17.5 4t12.5 11.5t8 15.5t4 20.5t2 20.5t1 21v20q14 291 -2 637l461 2q-23 -649 6 -715q16 -35 58 -62.5t77 -37.5l33 -8l-209 -365q-90 88 -149 149q-53 -51 -132 -77.5t-155 -14.5 q-49 8 -115 64q-2 -86 10.5 -243t14.5 -218h-449z" />
<glyph unicode="&#xb6;" horiz-adv-x="1376" d="M35 925.5q0 225.5 172 391.5t381 166h721q-25 -842 0 -1483h-691q20 236 15 387h-49q-209 0 -379 156.5t-170 382zM478 1020q-42 -92 2 -182t155 -97q0 59 -12 385q-103 -14 -145 -106zM926 145h96q18 551 -2 1160h-94q-18 -615 0 -1160z" />
<glyph unicode="&#xb7;" horiz-adv-x="501" d="M27 544.5q0 73.5 65.5 126t157.5 52.5t157.5 -52.5t65.5 -126t-65.5 -125.5t-157.5 -52t-157.5 52t-65.5 125.5z" />
<glyph unicode="&#xb8;" horiz-adv-x="948" d="M227 -305l41 131q2 -2 11.5 -6t20.5 -10.5t24 -12.5l155 254l209 -2l-106 -149q127 -43 127 -140q0 -88 -77 -129t-157 -41q-37 0 -98.5 27t-106.5 51zM389 -233q66 -29 84 -17q16 12 -18 27q-15 4 -66 -10z" />
<glyph unicode="&#xb9;" horiz-adv-x="462" d="M117 502v719h221v-719h-221z" />
<glyph unicode="&#xba;" horiz-adv-x="872" d="M31 1048.5q0 178.5 115.5 306.5t283.5 128q166 0 281.5 -128t115.5 -306.5t-115.5 -306.5t-281.5 -128q-168 0 -283.5 128t-115.5 306.5zM37 338v235h766v-235h-766zM319 1049q0 -74 32 -118t77 -44q49 0 79 43t30 118.5t-30 120.5t-79 45q-45 0 -77 -44.5t-32 -120.5z " />
<glyph unicode="&#xbb;" horiz-adv-x="1368" d="M-37 164q174 156 365 368q-143 133 -363 304l209 245q262 -244 643 -551q-334 -291 -604 -571zM514 162q211 201 363 370q-129 129 -363 304l209 245q274 -256 647 -551q-285 -229 -606 -571z" />
<glyph unicode="&#xbc;" horiz-adv-x="1064" d="M-23 504v717h211v-717h-211zM35 0l577 1219h160l-577 -1219h-160zM401 119v114l414 469l115 -2v-419h78v-162h-78v-119h-213v119h-316zM602 281h115v133z" />
<glyph unicode="&#xbd;" horiz-adv-x="978" d="M2 504v717h211v-717h-211zM43 0l567 1219h164l-569 -1219h-162zM473 127q10 55 38 99t47.5 60.5t59.5 47.5l54 24q102 72 116 95q8 14 9 28q0 74 -60 74q-45 0 -174 -86l-45 156q72 100 223 100q100 0 181.5 -57.5t81.5 -186.5q0 -25 -3.5 -45t-12.5 -39.5t-14 -33 t-22.5 -30t-24.5 -23.5t-32 -22.5t-31 -19.5t-35.5 -21.5t-33.5 -19.5q-23 -10 -29 -28l-8 -19h243v-182h-520z" />
<glyph unicode="&#xbe;" horiz-adv-x="1437" d="M-25 608l39 152q123 -84 217 -84q29 0 47.5 20.5t18.5 40.5q0 59 -59 60l-134 -15q-18 45 -22 88q0 16 16 95q121 -16 140 -17q23 0 41 13.5t18 42.5q0 23 -13.5 50t-39.5 27q-35 0 -67 -16t-99 -64l-60 142q104 94 228 94q45 0 88 -10t86 -35t69.5 -74t26.5 -119 q0 -72 -37 -125q37 -39 37 -133q0 -90 -48 -146t-103.5 -73.5t-118.5 -17.5q-140 0 -271 104zM369 0l579 1219h158l-580 -1219h-157zM743 119v114l414 469q18 0 57 -1t60 -1v-419h78v-162h-78v-119h-219v119h-312zM944 281h111v133z" />
<glyph unicode="&#xbf;" horiz-adv-x="974" d="M-31 391q0 63 17.5 119.5t37 92.5t68.5 84t73.5 67.5t94.5 72.5q111 86 111 150q0 35 -19 123l373 -58q14 -80 14 -116q0 -45 -12 -85t-26.5 -65.5t-47 -56.5t-52 -45.5t-64.5 -46t-64 -43.5q-100 -72 -100 -158q0 -51 36.5 -87t88.5 -36q143 0 317 254l162 -235 q-57 -162 -199.5 -249t-312.5 -87q-203 0 -349.5 105t-146.5 300zM338 1282q0 80 59.5 138.5t145.5 58.5t145.5 -58.5t59.5 -138.5t-59.5 -139.5t-145.5 -59.5t-145.5 58.5t-59.5 140.5z" />
<glyph unicode="&#xc0;" horiz-adv-x="1216" d="M29 27q113 438 354 1456h508q158 -618 399 -1458l-502 -70l-26 262h-244q-31 -180 -37 -268zM229 1968h449q45 -156 182 -350h-328q-92 133 -303 350zM565 518h154q-4 20 -30.5 189.5t-39.5 230.5q-21 -72 -84 -420z" />
<glyph unicode="&#xc1;" horiz-adv-x="1220" d="M29 27q113 438 354 1456h508q158 -618 399 -1458l-502 -70l-26 262h-244q-31 -180 -37 -268zM324 1567q125 201 178 391h450q-197 -203 -303 -391h-325zM565 518h154q-4 20 -30.5 189.5t-39.5 230.5q-21 -72 -84 -420z" />
<glyph unicode="&#xc2;" horiz-adv-x="1230" d="M29 27q113 438 354 1456h508q158 -618 399 -1458l-502 -70l-26 262h-244q-31 -180 -37 -268zM131 1608q231 211 381 399h178q96 -143 379 -401h-354q-53 74 -109 125q-55 -49 -108 -125zM565 518h154q-4 20 -30.5 189.5t-39.5 230.5q-21 -72 -84 -420z" />
<glyph unicode="&#xc3;" horiz-adv-x="1222" d="M29 27q113 438 354 1456h508q158 -618 399 -1458l-502 -70l-26 262h-244q-31 -180 -37 -268zM135 1739q16 14 46 36.5t109 59.5t142 37q80 0 153.5 -43t98.5 -43q72 0 176 104l146 -143q-4 -6 -13.5 -18.5t-41 -42t-67.5 -53t-92.5 -42t-117.5 -18.5q-74 0 -117 12 t-82 51q-16 14 -41 17q-80 4 -184 -84zM565 518h154q-4 20 -30.5 189.5t-39.5 230.5q-21 -72 -84 -420z" />
<glyph unicode="&#xc4;" horiz-adv-x="1318" d="M29 27q113 438 354 1456h508q158 -618 399 -1458l-502 -70l-26 262h-244q-31 -180 -37 -268zM225 1732.5q0 65.5 50.5 111.5t119.5 46q72 0 121 -46t49 -111.5t-49 -111.5t-121 -46q-70 0 -120 46t-50 111.5zM565 518h154q-4 20 -30.5 189.5t-39.5 230.5 q-21 -72 -84 -420zM698 1732.5q0 65.5 49.5 111.5t121 46t120.5 -46t49 -111.5t-49 -111.5t-120.5 -46t-121 46t-49.5 111.5z" />
<glyph unicode="&#xc5;" horiz-adv-x="1318" d="M29 27q113 438 354 1456h508q158 -618 399 -1458l-502 -70l-26 262h-244q-31 -180 -37 -268zM356 1782q0 100 81 170.5t194 70.5q115 0 194.5 -70.5t79.5 -170.5q0 -98 -80 -169t-194 -71q-113 0 -194 71t-81 169zM565 518h154q-4 20 -30.5 189.5t-39.5 230.5 q-21 -72 -84 -420zM580 1781.5q0 -20.5 15 -33.5t36 -13q23 0 38 13t15 33.5t-15.5 35t-37.5 14.5q-20 0 -35.5 -14.5t-15.5 -35z" />
<glyph unicode="&#xc6;" horiz-adv-x="1816" d="M-6 27q289 694 596 1456h1081v-377h-461q-6 -86 -6 -188h389l-73 -353h-316l6 -184h461v-381h-928q8 131 11 217h-242q-57 -160 -82 -268zM610 518h162q0 23 5 222.5t1 260.5q-14 -30 -168 -483z" />
<glyph unicode="&#xc7;" horiz-adv-x="1187" d="M29 733q0 324 174 552t446 228q160 0 300.5 -95t174.5 -277l-333 -236q-53 145 -78 172q-25 25 -64 25q-78 0 -133 -102.5t-55 -270.5t58.5 -274.5t129.5 -106.5q35 0 59.5 27.5t63.5 113.5l371 -104q-35 -166 -156 -281.5t-264 -144.5q63 -12 166.5 -90t124.5 -135 q-33 -29 -180 -127q-55 94 -86 119q-96 84 -324 45l-39 157q78 41 135 41q-217 55 -354 270t-137 494z" />
<glyph unicode="&#xc8;" horiz-adv-x="968" d="M80 0q45 676 0 1483h928v-377h-461q-6 -86 -6 -188h389l-74 -353h-315l6 -184h461v-381h-928zM123 1919h448q45 -156 183 -350h-328q-92 133 -303 350z" />
<glyph unicode="&#xc9;" horiz-adv-x="1120" d="M113 0q45 676 0 1483h927v-377h-460q-6 -86 -7 -188h390l-74 -353h-316l7 -184h460v-381h-927zM293 1546q125 201 178 391h451q-197 -203 -304 -391h-325z" />
<glyph unicode="&#xca;" horiz-adv-x="983" d="M8 1591q231 211 381 400h178q96 -143 379 -402h-354q-53 74 -109 125q-55 -49 -108 -125zM80 0q45 676 0 1483h928v-377h-461q-6 -86 -6 -188h389l-74 -353h-315l6 -184h461v-381h-928z" />
<glyph unicode="&#xcb;" horiz-adv-x="983" d="M47 1728.5q0 65.5 50 111.5t120 46q72 0 121 -46t49 -111.5t-49 -111.5t-121 -46q-70 0 -120 46t-50 111.5zM80 0q45 676 0 1483h928v-377h-461q-6 -86 -6 -188h389l-74 -353h-315l6 -184h461v-381h-928zM520 1728.5q0 65.5 49 111.5t121 46t121 -46t49 -111.5 t-49 -111.5t-121 -46t-121 46t-49 111.5z" />
<glyph unicode="&#xcc;" horiz-adv-x="550" d="M-68 1980h449q45 -156 182 -350h-327q-93 133 -304 350zM61 0q49 651 2 1483h472q-47 -821 0 -1483h-474z" />
<glyph unicode="&#xcd;" horiz-adv-x="563" d="M43 1540q125 201 178 391h451q-197 -203 -303 -391h-326zM61 0q49 651 2 1483h472q-47 -821 0 -1483h-474z" />
<glyph unicode="&#xce;" horiz-adv-x="563" d="M-182 1587q231 211 381 400h178q96 -143 379 -402h-355q-53 74 -108 125q-55 -49 -109 -125zM61 0q49 651 2 1483h472q-47 -821 0 -1483h-474z" />
<glyph unicode="&#xcf;" horiz-adv-x="698" d="M-74 1765q0 66 50.5 112t119.5 46q72 0 121 -46t49 -111.5t-50 -111.5t-119.5 -46t-120 47t-50.5 110zM135 0q45 662 0 1483h471q-47 -821 0 -1483h-471zM399 1765.5q0 65.5 49.5 111.5t120.5 46q70 0 120 -46t50 -112q0 -63 -50 -110t-119.5 -47t-120 46t-50.5 111.5z " />
<glyph unicode="&#xd1;" horiz-adv-x="1329" d="M98 0q47 688 0 1483h295q125 -233 451 -723q-16 535 -27 723h430q-49 -831 2 -1483h-385q-74 121 -362 492q18 -344 28 -492h-432zM195 1698q16 14 45.5 36.5t108.5 59.5t143 37q80 0 153.5 -43t97.5 -43q72 0 177 104l145 -143q-4 -6 -13.5 -18.5t-41 -42t-67.5 -53 t-92 -42t-118 -18.5q-74 0 -117 12t-81 51q-16 14 -41 17q-80 4 -185 -84z" />
<glyph unicode="&#xd2;" horiz-adv-x="1370" d="M29 739q0 336 202.5 552t487.5 216t484.5 -217t199.5 -551q0 -342 -198.5 -555t-485.5 -213q-281 0 -485.5 223t-204.5 545zM307 1974h449q45 -156 182 -350h-328q-92 133 -303 350zM494 731q0 -168 66.5 -281.5t160.5 -113.5q92 0 154.5 112.5t62.5 282.5 q0 166 -65.5 280.5t-151.5 114.5q-96 0 -161.5 -112.5t-65.5 -282.5z" />
<glyph unicode="&#xd3;" horiz-adv-x="1363" d="M29 739q0 336 202.5 552t487.5 216t484.5 -217t199.5 -551q0 -342 -198.5 -555t-485.5 -213q-281 0 -485.5 223t-204.5 545zM369 1602q125 201 178 391h450q-197 -203 -303 -391h-325zM494 731q0 -168 66.5 -281.5t160.5 -113.5q92 0 154.5 112.5t62.5 282.5 q0 166 -65.5 280.5t-151.5 114.5q-96 0 -161.5 -112.5t-65.5 -282.5z" />
<glyph unicode="&#xd4;" horiz-adv-x="1353" d="M29 739q0 336 202.5 552t487.5 216t484.5 -217t199.5 -551q0 -342 -198.5 -555t-485.5 -213q-281 0 -485.5 223t-204.5 545zM227 1599q231 211 381 400h178q96 -143 379 -402h-354q-53 74 -109 125q-55 -49 -108 -125zM494 731q0 -168 66.5 -281.5t160.5 -113.5 q92 0 154.5 112.5t62.5 282.5q0 166 -65.5 280.5t-151.5 114.5q-96 0 -161.5 -112.5t-65.5 -282.5z" />
<glyph unicode="&#xd5;" horiz-adv-x="1370" d="M29 739q0 336 202.5 552t487.5 216t484.5 -217t199.5 -551q0 -342 -198.5 -555t-485.5 -213q-281 0 -485.5 223t-204.5 545zM217 1747q16 14 46 36.5t109 59.5t142 37q80 0 153.5 -43t98.5 -43q72 0 176 104l145 -143q-4 -6 -13 -18.5t-41 -42t-67.5 -53t-92 -42 t-117.5 -18.5q-74 0 -117 12.5t-82 51.5q-16 14 -41 16q-80 4 -184 -84zM494 731q0 -168 66.5 -281.5t160.5 -113.5q92 0 154.5 112.5t62.5 282.5q0 166 -65.5 280.5t-151.5 114.5q-96 0 -161.5 -112.5t-65.5 -282.5z" />
<glyph unicode="&#xd6;" horiz-adv-x="1478" d="M61 739q0 336 203 552t487.5 216t484.5 -217t200 -551q0 -342 -199 -555t-485 -213q-281 0 -486 223t-205 545zM338 1769.5q0 65.5 50 111.5t120 46q72 0 121 -46t49 -111.5t-49 -111.5t-121 -46q-70 0 -120 46t-50 111.5zM526 731q0 -168 66.5 -281.5t161.5 -113.5 q92 0 154.5 112.5t62.5 282.5q0 166 -65.5 280.5t-151.5 114.5q-96 0 -162 -112.5t-66 -282.5zM811 1769.5q0 65.5 49 111.5t121 46t121 -46t49 -111.5t-49 -111.5t-121 -46t-121 46t-49 111.5z" />
<glyph unicode="&#xd7;" horiz-adv-x="669" d="M-18 367l147 219l-145 219l168 194l141 -217l49 68q33 45 57.5 81t40.5 62l168 -198l-143 -213q141 -209 147 -220l-168 -196l-145 217q-14 -20 -51 -71.5t-61.5 -90.5t-30.5 -57z" />
<glyph unicode="&#xd8;" horiz-adv-x="1441" d="M29 739q0 336 202.5 552t487.5 216q102 0 207 -32q66 145 90 254h301q-37 -195 -139 -412q225 -221 225 -578q0 -342 -198.5 -555t-485.5 -213q-113 0 -225 43q-72 -158 -86 -301h-302q20 193 144 463q-221 227 -221 563zM494 731q0 -29 4 -78q27 49 71 144 q51 113 172 327q-6 2 -20 2q-96 0 -161.5 -112.5t-65.5 -282.5zM668 346q27 -10 53 -10q92 0 154.5 112.5t62.5 282.5q0 57 -10 119q-47 -84 -113 -217q-45 -99 -147 -287z" />
<glyph unicode="&#xd9;" horiz-adv-x="1196" d="M68 1483h493q-43 -487 -22 -1000q2 -49 43 -87t73 -38q39 0 77 32t40 85q16 377 -10 1008h467q-35 -537 -17 -975q10 -213 -165 -367.5t-396 -154.5q-225 0 -396 151.5t-167 372.5q11 621 -20 973zM240 1921h448q45 -156 182 -350h-327q-92 133 -303 350z" />
<glyph unicode="&#xda;" horiz-adv-x="1198" d="M68 1483h493q-43 -487 -22 -1000q2 -49 43 -87t73 -38q39 0 77 32t40 85q16 377 -10 1008h467q-35 -537 -17 -975q10 -213 -165 -367.5t-396 -154.5q-225 0 -396 151.5t-167 372.5q11 621 -20 973zM311 1554q125 201 178 392h451q-197 -203 -303 -392h-326z" />
<glyph unicode="&#xdb;" horiz-adv-x="1202" d="M68 1483h493q-43 -487 -22 -1000q2 -49 43 -87t73 -38q39 0 77 32t40 85q16 377 -10 1008h467q-35 -537 -17 -975q10 -213 -165 -367.5t-396 -154.5q-225 0 -396 151.5t-167 372.5q11 621 -20 973zM156 1599q231 211 381 400h178q96 -143 379 -402h-355q-53 74 -108 125 q-55 -49 -109 -125z" />
<glyph unicode="&#xdc;" horiz-adv-x="1302" d="M68 1483h493q-43 -487 -22 -1000q2 -49 43 -87t73 -38q39 0 77 32t40 85q16 377 -10 1008h467q-35 -537 -17 -975q10 -213 -165 -367.5t-396 -154.5q-225 0 -396 151.5t-167 372.5q11 621 -20 973zM205 1714.5q0 65.5 50 111.5t120 46q72 0 121 -46t49 -111.5t-49.5 -112 t-120.5 -46.5q-70 0 -120 46.5t-50 112zM678 1714.5q0 65.5 49 111.5t121 46t121 -46t49 -111.5t-49 -112t-121 -46.5t-121 46.5t-49 112z" />
<glyph unicode="&#xdd;" horiz-adv-x="1183" d="M430 1631q125 201 178 391h451q-197 -203 -303 -391h-326zM-23 1483h486q41 -391 139 -654q94 252 139 654h465q-256 -600 -372 -1041q-7 -90 -7 -182q0 -127 13 -260h-478q15 119 16 249q0 100 -9 206q-103 338 -392 1028z" />
<glyph unicode="&#xdf;" horiz-adv-x="1159" d="M63 0q10 303 11 688q0 68 -2 190.5t-2 174.5q0 215 130 362.5t347 147.5q211 0 366.5 -133.5t155.5 -354.5q0 -84 -39 -164t-102 -133q61 -51 101 -145t40 -164q0 -221 -141.5 -345t-407.5 -124h-457zM463 1036q0 -18 6 -129q74 12 126 66.5t52 120.5q0 131 -92 130.5 t-92 -188.5zM467 498q0 -104 6 -213q160 20 160 149q0 141 -164 156q-2 -31 -2 -92z" />
<glyph unicode="&#xe0;" horiz-adv-x="1245" d="M57 569q4 229 144.5 393t351.5 164q76 0 152.5 -36.5t111.5 -85.5l350 94q-27 -463 -4 -1098h-442l-6 51q-104 -76 -238 -76q-180 0 -302 184.5t-118 409.5zM217 1604h449q45 -156 182 -351h-328q-92 134 -303 351zM473 559q-2 -92 34 -164.5t97 -72.5q63 0 98 64.5 t35 174.5q0 98 -32.5 161.5t-94 63.5t-98.5 -68.5t-39 -158.5z" />
<glyph unicode="&#xe1;" horiz-adv-x="1253" d="M57 569q4 229 144.5 393t351.5 164q76 0 152.5 -36.5t111.5 -85.5l350 94q-27 -463 -4 -1098h-442l-6 51q-104 -76 -238 -76q-180 0 -302 184.5t-118 409.5zM336 1174q125 201 178 391h451q-197 -203 -303 -391h-326zM473 559q-2 -92 34 -164.5t97 -72.5q63 0 98 64.5 t35 174.5q0 98 -32.5 161.5t-94 63.5t-98.5 -68.5t-39 -158.5z" />
<glyph unicode="&#xe2;" horiz-adv-x="1257" d="M57 569q4 229 144.5 393t351.5 164q76 0 152.5 -36.5t111.5 -85.5l350 94q-27 -463 -4 -1098h-442l-6 51q-104 -76 -238 -76q-180 0 -302 184.5t-118 409.5zM121 1219q231 211 381 399h178q96 -143 379 -401h-354q-53 74 -109 124q-55 -49 -109 -124zM473 559 q-2 -92 34 -164.5t97 -72.5q63 0 98 64.5t35 174.5q0 98 -32.5 161.5t-94 63.5t-98.5 -68.5t-39 -158.5z" />
<glyph unicode="&#xe3;" horiz-adv-x="1269" d="M57 569q4 229 144.5 393t351.5 164q76 0 152.5 -36.5t111.5 -85.5l350 94q-27 -463 -4 -1098h-442l-6 51q-104 -76 -238 -76q-180 0 -302 184.5t-118 409.5zM158 1452q16 14 45.5 36.5t108.5 59.5t143 37q80 0 153.5 -43t98.5 -43q72 0 176 105l145 -144q-4 -6 -13 -18 t-41 -42t-68 -53.5t-92 -42t-118 -18.5q-74 0 -116.5 12.5t-81.5 51.5q-16 14 -41 16q-80 4 -185 -84zM473 559q-2 -92 34 -164.5t97 -72.5q63 0 98 64.5t35 174.5q0 98 -32.5 161.5t-94 63.5t-98.5 -68.5t-39 -158.5z" />
<glyph unicode="&#xe4;" horiz-adv-x="1261" d="M57 569q4 229 144.5 393t351.5 164q76 0 152.5 -36.5t111.5 -85.5l350 94q-27 -463 -4 -1098h-442l-6 51q-104 -76 -238 -76q-180 0 -302 184.5t-118 409.5zM195 1419.5q0 65.5 50 111.5t120 46q72 0 121 -46t49 -111.5t-49.5 -111.5t-120.5 -46q-70 0 -120 46t-50 111.5 zM473 559q-2 -92 34 -164.5t97 -72.5q63 0 98 64.5t35 174.5q0 98 -32.5 161.5t-94 63.5t-98.5 -68.5t-39 -158.5zM668 1419.5q0 65.5 49 111.5t120.5 46t121 -46t49.5 -111.5t-49.5 -111.5t-121 -46t-120.5 46t-49 111.5z" />
<glyph unicode="&#xe5;" horiz-adv-x="1261" d="M57 569q4 229 144.5 393t351.5 164q76 0 152.5 -36.5t111.5 -85.5l350 94q-27 -463 -4 -1098h-442l-6 51q-104 -76 -238 -76q-180 0 -302 184.5t-118 409.5zM313 1444q0 100 81 171t194 71q115 0 194.5 -71t79.5 -171q0 -98 -80 -169t-194 -71q-113 0 -194 71t-81 169z M473 559q-2 -92 34 -164.5t97 -72.5q63 0 98 64.5t35 174.5q0 98 -32.5 161.5t-94 63.5t-98.5 -68.5t-39 -158.5zM537 1443.5q0 -20.5 15 -33.5t36 -13q23 0 38 13t15 33.5t-15.5 35t-37.5 14.5q-20 0 -35.5 -14.5t-15.5 -35z" />
<glyph unicode="&#xe6;" horiz-adv-x="1855" d="M47 393q0 186 122 283.5t298 97.5q117 0 205 -57q0 180 -154 180q-72 0 -170 -27.5t-164 -60.5l-53 211q86 57 236.5 89t246.5 32q176 0 304 -90q139 106 317 106q111 0 202 -44t153.5 -122t104.5 -163t68 -185l-602 -319q20 -31 59.5 -49.5t71.5 -18.5q66 0 164 56.5 t178 140.5l109 -312q-86 -104 -198.5 -154t-301.5 -50q-254 0 -424 208q-86 -82 -169 -123.5t-197 -41.5q-174 0 -290 125.5t-116 287.5zM451 379q0 -47 33.5 -78t80.5 -31q31 0 78 14.5t74 41.5q-35 94 -35 135q-27 25 -121 24q-110 0 -110 -106zM1061 600q0 -18 4 -47 l285 147q-55 131 -131 131t-117 -71.5t-41 -159.5z" />
<glyph unicode="&#xe7;" horiz-adv-x="1107" d="M49 543q0 244 155.5 414.5t399.5 170.5q150 0 279 -82.5t170 -234.5l-260 -209q-35 168 -170 168q-55 0 -101.5 -58.5t-46.5 -152.5q0 -106 42 -170.5t99 -71.5q29 2 42.5 -3t35 3.5t29.5 9.5t26.5 13t24.5 17t26.5 21.5t28.5 22.5l209 -204q-154 -203 -370 -232 q72 -25 168 -100.5t116 -128.5l-188 -133q-57 96 -88 123q-100 88 -336 47l-41 164q16 8 51 19t64 17l26 7v2q-172 53 -281.5 208.5t-109.5 352.5z" />
<glyph unicode="&#xe8;" horiz-adv-x="1126" d="M25 547q0 244 156.5 427t400.5 183q111 0 201.5 -44t153 -122t104.5 -163t69 -185l-602 -319q20 -31 59 -49.5t72 -18.5q66 0 164 56.5t178 140.5l109 -312q-74 -82 -206 -132t-294 -50q-246 0 -405.5 178.5t-159.5 409.5zM195 1587h448q45 -156 182 -350h-327 q-92 133 -303 350zM412 553l284 147q-55 135 -135 131q-86 -6 -124.5 -95t-24.5 -183z" />
<glyph unicode="&#xe9;" horiz-adv-x="1140" d="M25 547q0 244 156.5 427t400.5 183q111 0 201.5 -44t153 -122t104.5 -163t69 -185l-602 -319q20 -31 59 -49.5t72 -18.5q66 0 164 56.5t178 140.5l109 -312q-74 -82 -206 -132t-294 -50q-246 0 -405.5 178.5t-159.5 409.5zM262 1188q125 201 178 391h451 q-197 -203 -303 -391h-326zM412 553l284 147q-55 135 -135 131q-86 -6 -124.5 -95t-24.5 -183z" />
<glyph unicode="&#xea;" horiz-adv-x="1153" d="M25 547q0 244 156.5 427t400.5 183q111 0 201.5 -44t153 -122t104.5 -163t69 -185l-602 -319q20 -31 59 -49.5t72 -18.5q66 0 164 56.5t178 140.5l109 -312q-74 -82 -206 -132t-294 -50q-246 0 -405.5 178.5t-159.5 409.5zM86 1196q231 211 381 399h178q96 -143 379 -401 h-354q-53 74 -109 125q-55 -49 -108 -125zM412 553l284 147q-55 135 -135 131q-86 -6 -124.5 -95t-24.5 -183z" />
<glyph unicode="&#xeb;" horiz-adv-x="1140" d="M25 547q0 244 156.5 427t400.5 183q111 0 201.5 -44t153 -122t104.5 -163t69 -185l-602 -319q20 -31 59 -49.5t72 -18.5q66 0 164 56.5t178 140.5l109 -312q-74 -82 -206 -132t-294 -50q-246 0 -405.5 178.5t-159.5 409.5zM154 1361.5q0 65.5 50 112t120 46.5 q72 0 121 -46.5t49 -112t-49.5 -111.5t-120.5 -46q-70 0 -120 46t-50 111.5zM412 553l284 147q-55 135 -135 131q-86 -6 -124.5 -95t-24.5 -183zM627 1361.5q0 65.5 49 112t120.5 46.5t121 -46.5t49.5 -112t-49.5 -111.5t-121 -46t-120.5 46t-49 111.5z" />
<glyph unicode="&#xec;" horiz-adv-x="557" d="M-98 1593h448q45 -156 182 -350h-327q-92 133 -303 350zM29 0q27 588 0 1010l446 118q-31 -467 -2 -1128h-444z" />
<glyph unicode="&#xed;" horiz-adv-x="583" d="M29 0q27 588 0 1010l446 118q-31 -467 -2 -1128h-444zM55 1174q125 201 178 391h451q-197 -203 -303 -391h-326z" />
<glyph unicode="&#xee;" horiz-adv-x="827" d="M-25 1198q229 209 383 399h177q98 -141 380 -399h-354q-70 86 -108 125q-61 -57 -109 -125h-369zM197 0q27 588 0 1010l446 118q-31 -481 0 -1128h-446z" />
<glyph unicode="&#xef;" horiz-adv-x="806" d="M-16 1400.5q0 65.5 50 112t119.5 46.5t120 -46.5t50.5 -112t-49.5 -111.5t-121 -46t-120.5 46t-49 111.5zM176 0q27 588 0 1010l447 118q-31 -467 -2 -1128h-445zM457 1400.5q0 65.5 50 112t119.5 46.5t120 -47.5t50.5 -110.5q0 -66 -50.5 -112t-119.5 -46q-72 0 -121 46 t-49 111.5z" />
<glyph unicode="&#xf1;" horiz-adv-x="1112" d="M66 1425q16 14 45.5 37t108.5 60t142 37q80 0 154 -43t98 -43q72 0 177 104l145 -143q-4 -6 -13.5 -18.5t-41 -42.5t-67.5 -53.5t-92 -41.5t-118 -18q-74 0 -117 12t-81 51q-16 14 -41 16q-80 4 -185 -84zM92 0q45 506 0 1042l459 142q-14 -90 -14 -137q47 37 148 68.5 t157 31.5q100 0 167.5 -46t98.5 -127t40 -164t3 -181q-8 -152 5 -340.5t48 -288.5l-497 2q20 393 14 602q0 43 -26.5 88t-63.5 45q-18 0 -49 -12t-43 -27q-12 -143 4 -698h-451z" />
<glyph unicode="&#xf2;" horiz-adv-x="1126" d="M31 549q0 268 157.5 424.5t393.5 156.5q231 0 391 -160.5t160 -420.5q0 -262 -160 -423t-391 -161q-233 0 -392 160t-159 424zM186 1608h449q45 -156 182 -351h-328q-92 134 -303 351zM442 549q0 -104 41 -169t97 -65q61 0 98 62.5t37 171t-38 171t-97 62.5 q-63 0 -100.5 -61t-37.5 -172z" />
<glyph unicode="&#xf3;" horiz-adv-x="1120" d="M31 549q0 268 157.5 424.5t393.5 156.5q231 0 391 -160.5t160 -420.5q0 -262 -160 -423t-391 -161q-233 0 -392 160t-159 424zM276 1194q125 201 179 391h450q-197 -203 -303 -391h-326zM442 549q0 -104 41 -169t97 -65q61 0 98 62.5t37 171t-38 171t-97 62.5 q-63 0 -100.5 -61t-37.5 -172z" />
<glyph unicode="&#xf4;" horiz-adv-x="1140" d="M31 549q0 268 157.5 424.5t393.5 156.5q231 0 391 -160.5t160 -420.5q0 -262 -160 -423t-391 -161q-233 0 -392 160t-159 424zM70 1214q231 211 381 400h178q96 -143 379 -402h-355q-53 74 -108 125q-55 -49 -109 -125zM442 549q0 -104 41 -169t97 -65q61 0 98 62.5 t37 171t-38 171t-97 62.5q-63 0 -100.5 -61t-37.5 -172z" />
<glyph unicode="&#xf5;" horiz-adv-x="1126" d="M31 549q0 268 157.5 424.5t393.5 156.5q231 0 391 -160.5t160 -420.5q0 -262 -160 -423t-391 -161q-233 0 -392 160t-159 424zM111 1401q16 14 45.5 36.5t108.5 59.5t143 37q80 0 153.5 -43t97.5 -43q72 0 177 104l145 -143q-4 -6 -13.5 -18.5t-41 -42t-67.5 -53t-92 -42 t-118 -18.5q-74 0 -117 12.5t-81 50.5q-16 14 -41 17q-80 4 -185 -84zM442 549q0 -104 41 -169t97 -65q61 0 98 62.5t37 171t-38 171t-97 62.5q-63 0 -100.5 -61t-37.5 -172z" />
<glyph unicode="&#xf6;" horiz-adv-x="1132" d="M31 549q0 268 157.5 424.5t393.5 156.5q231 0 391 -160.5t160 -420.5q0 -262 -160 -423t-391 -161q-233 0 -392 160t-159 424zM172 1357.5q0 65.5 50 112t120 46.5q72 0 121 -46.5t49 -112t-49 -111.5t-121 -46q-70 0 -120 46t-50 111.5zM442 549q0 -104 41 -169t97 -65 q61 0 98 62.5t37 171t-38 171t-97 62.5q-63 0 -100.5 -61t-37.5 -172zM645 1357.5q0 65.5 49 112t121 46.5t121 -46.5t49 -112t-49 -111.5t-121 -46t-121 46t-49 111.5z" />
<glyph unicode="&#xf7;" horiz-adv-x="806" d="M47 444v242h674v-242h-674zM254 172q0 59 42 101t101.5 42t101.5 -42t42 -101t-42 -101t-101.5 -42t-101.5 42t-42 101zM254 960.5q0 59.5 42 101.5t101.5 42t101.5 -42t42 -101.5t-42 -101.5t-101.5 -42t-101.5 42t-42 101.5z" />
<glyph unicode="&#xf8;" horiz-adv-x="1171" d="M-8 -238q23 166 168 398q-129 156 -129 389q0 268 157.5 424.5t393.5 156.5q104 0 198 -34q70 113 99 211h292q-45 -178 -170 -371q131 -154 132 -387q0 -262 -160 -423t-391 -161q-111 0 -207 37q-78 -127 -88 -240h-295zM442 549q0 -104 41 -169t97 -65q61 0 98 62.5 t37 171t-38 171t-97 62.5q-63 0 -100.5 -61t-37.5 -172z" />
<glyph unicode="&#xf9;" horiz-adv-x="1153" d="M63 1098h461q-2 -68 -10 -189t-10 -157q-12 -205 -4 -289q12 -106 69 -107q29 0 86.5 15.5t75.5 25.5q23 281 -4 701h442q-37 -453 5 -1055l-443 -68q6 37 10 111q-57 -43 -163.5 -71.5t-196.5 -28.5q-94 0 -162.5 49t-100.5 125t-44.5 147.5t-7.5 136.5q20 304 -3 654z M227 1612h449q45 -156 182 -350h-328q-92 133 -303 350z" />
<glyph unicode="&#xfa;" horiz-adv-x="1153" d="M63 1098h461q-2 -68 -10 -189t-10 -157q-12 -205 -4 -289q12 -106 69 -107q29 0 86.5 15.5t75.5 25.5q23 281 -4 701h442q-37 -453 5 -1055l-443 -68q6 37 10 111q-57 -43 -163.5 -71.5t-196.5 -28.5q-94 0 -162.5 49t-100.5 125t-44.5 147.5t-7.5 136.5q20 304 -3 654z M297 1217q125 201 178 391h451q-197 -203 -303 -391h-326z" />
<glyph unicode="&#xfb;" horiz-adv-x="1167" d="M63 1098h461q-2 -68 -10 -189t-10 -157q-12 -205 -4 -289q12 -106 69 -107q29 0 86.5 15.5t75.5 25.5q23 281 -4 701h442q-37 -453 5 -1055l-443 -68q6 37 10 111q-57 -43 -163.5 -71.5t-196.5 -28.5q-94 0 -162.5 49t-100.5 125t-44.5 147.5t-7.5 136.5q20 304 -3 654z M88 1204q231 211 381 400h178q96 -143 379 -402h-354q-53 74 -109 125q-55 -49 -108 -125z" />
<glyph unicode="&#xfc;" horiz-adv-x="1146" d="M63 1098h461q-2 -68 -10 -189t-10 -157q-12 -205 -4 -289q12 -106 69 -107q29 0 86.5 15.5t75.5 25.5q23 281 -4 701h442q-37 -453 5 -1055l-443 -68q6 37 10 111q-57 -43 -163.5 -71.5t-196.5 -28.5q-94 0 -162.5 49t-100.5 125t-44.5 147.5t-7.5 136.5q20 304 -3 654z M182 1394.5q0 65.5 50.5 111.5t119.5 46q72 0 121 -46t49 -111.5t-49 -111.5t-121 -46q-70 0 -120 46t-50 111.5zM655 1394.5q0 65.5 49.5 111.5t121 46t120.5 -46t49 -111.5t-49 -111.5t-120.5 -46t-121 46t-49.5 111.5z" />
<glyph unicode="&#xfd;" horiz-adv-x="1214" d="M447 1254q125 201 178 391h451q-197 -203 -303 -391h-326zM-2 1038l430 80q82 -272 213 -526q25 82 76 268.5t71 257.5l426 -78q-98 -238 -225 -615.5t-203 -643.5q-27 -90 -80 -147.5t-126.5 -79t-119.5 -26.5t-109.5 -5t-151.5 29.5t-142 60.5l78 307q10 -4 35 -12 t33 -10t25.5 -7.5t29.5 -7.5t30.5 -3t41.5 -1q27 0 48 14.5t30.5 25.5t26 44t20.5 39q-154 413 -457 1036z" />
<glyph unicode="&#xff;" horiz-adv-x="1189" d="M-2 1038l430 80q82 -272 213 -526q25 82 76 268.5t71 257.5l426 -78q-98 -238 -225 -615.5t-203 -643.5q-27 -90 -80 -147.5t-126.5 -79t-119.5 -26.5t-109.5 -5t-151.5 29.5t-142 60.5l78 307q10 -4 35 -12t33 -10t25.5 -7.5t29.5 -7.5t30.5 -3t41.5 -1q27 0 48 14.5 t30.5 25.5t26 44t20.5 39q-154 413 -457 1036zM211 1353.5q0 65.5 50 111.5t120 46q72 0 121 -46t49 -111.5t-49 -111.5t-121 -46q-70 0 -120 46t-50 111.5zM684 1353.5q0 65.5 49 111.5t121 46t121 -46t49 -111.5t-49 -111.5t-121 -46t-121 46t-49 111.5z" />
<glyph unicode="&#x152;" horiz-adv-x="1951" d="M29 739q0 336 202.5 552t487.5 216q104 0 186 -30v6h928v-377h-467q-6 -86 -6 -188h395l-74 -353h-321l6 -184h467v-381h-928v4q-88 -33 -186 -33q-281 0 -485.5 223t-204.5 545zM494 731q0 -168 66.5 -281.5t160.5 -113.5q92 0 154.5 112.5t62.5 282.5 q0 166 -65.5 280.5t-151.5 114.5q-96 0 -161.5 -112.5t-65.5 -282.5z" />
<glyph unicode="&#x153;" horiz-adv-x="1912" d="M31 549q0 268 157.5 424.5t393.5 156.5q193 0 340 -114q156 141 360 141q111 0 202 -44t153.5 -122t104.5 -163t68 -185l-602 -319q20 -31 59.5 -49.5t71.5 -18.5q66 0 164.5 56.5t177.5 140.5l109 -312q-160 -176 -473 -176q-213 0 -373 133q-152 -133 -362 -133 q-233 0 -392 160t-159 424zM442 549q0 -104 41 -169t97 -65q61 0 98 62.5t37 171t-38 171t-97 62.5q-63 0 -100.5 -61t-37.5 -172zM1112 553l285 147q-55 135 -135 131q-86 -6 -125 -95t-25 -183z" />
<glyph unicode="&#x178;" horiz-adv-x="1183" d="M-23 1483h486q41 -391 139 -654q94 252 139 654h465q-256 -600 -372 -1041q-16 -213 6 -442h-478q27 211 7 455q-103 338 -392 1028zM199 1738.5q0 65.5 50 111.5t120 46q72 0 121 -46t49 -111.5t-49.5 -111.5t-120.5 -46q-70 0 -120 46t-50 111.5zM672 1738.5 q0 65.5 49 111.5t120.5 46t121 -46t49.5 -111.5t-49.5 -111.5t-121 -46t-120.5 46t-49 111.5z" />
<glyph unicode="&#x2c6;" horiz-adv-x="1107" d="M82 1139q231 211 381 399h178q96 -143 379 -401h-354q-53 74 -109 125q-55 -49 -108 -125z" />
<glyph unicode="&#x2dc;" horiz-adv-x="1058" d="M61 1382q16 14 46 37t109 60t142 37q80 0 154 -43t98 -43q72 0 176 104l146 -143q-4 -6 -13.5 -18.5t-41 -42.5t-67.5 -53.5t-92 -41.5t-118 -18q-74 0 -117 12t-82 51q-16 14 -41 16q-80 4 -184 -84z" />
<glyph unicode="&#x2013;" horiz-adv-x="956" d="M6 444v242h889v-242h-889z" />
<glyph unicode="&#x2014;" horiz-adv-x="1339" d="M6 444v242h1243v-242h-1243z" />
<glyph unicode="&#x2018;" horiz-adv-x="528" d="M47 1071q0 84 73 220t142 208l209 -69q-135 -119 -143 -199q68 -10 112.5 -59.5t44.5 -116.5q0 -88 -71.5 -144.5t-161.5 -56.5q-94 0 -149.5 60.5t-55.5 156.5z" />
<glyph unicode="&#x2019;" horiz-adv-x="528" d="M47 1298q0 88 71.5 144.5t162.5 56.5q94 0 149 -60.5t55 -156.5q0 -84 -72.5 -220t-142.5 -208l-209 70q135 119 144 196q-68 12 -113 61t-45 117z" />
<glyph unicode="&#x201a;" horiz-adv-x="505" d="M-35 16q158 94 182 164q-57 23 -89.5 69t-32.5 103q0 80 62.5 134.5t154.5 54.5q94 0 156.5 -54.5t62.5 -134.5q0 -68 -15 -100q-27 -66 -92 -150t-166 -151z" />
<glyph unicode="&#x201c;" horiz-adv-x="1077" d="M47 1071q0 84 73 220t142 208l209 -69q-135 -119 -143 -199q68 -10 112.5 -59.5t44.5 -116.5q0 -88 -71.5 -144.5t-161.5 -56.5q-94 0 -149.5 60.5t-55.5 156.5zM543 1071q0 84 73.5 220t141.5 208l211 -69q-135 -119 -146 -199q70 -10 115 -59.5t45 -116.5 q0 -88 -71.5 -144.5t-161.5 -56.5q-96 0 -151.5 60.5t-55.5 156.5z" />
<glyph unicode="&#x201d;" horiz-adv-x="1077" d="M68 1298q0 88 71.5 144.5t161.5 56.5q94 0 149.5 -60.5t55.5 -156.5q0 -84 -73 -220t-142 -208l-209 70q135 119 143 196q-68 12 -112.5 61t-44.5 117zM563 1298q0 88 72 144.5t162 56.5q96 0 151.5 -60.5t55.5 -156.5q0 -84 -73 -220t-143 -208l-210 70q137 121 145 196 q-68 12 -114 61t-46 117z" />
<glyph unicode="&#x201e;" horiz-adv-x="890" d="M-35 16q158 94 182 164q-57 23 -89.5 69t-32.5 103q0 80 62.5 134.5t154.5 54.5q72 0 128 -34t79 -91q23 55 78 90t126 35q94 0 156.5 -54.5t62.5 -134.5q0 -68 -14 -100q-27 -66 -92.5 -150t-165.5 -151l-223 65q158 94 182 164q-74 29 -106 92l-7 -20q-27 -66 -92 -150 t-166 -151z" />
<glyph unicode="&#x2022;" horiz-adv-x="794" d="M104 661.5q0 145.5 87.5 248t210 102.5t209.5 -102.5t87 -248t-87 -249t-209.5 -103.5t-210 103.5t-87.5 249z" />
<glyph unicode="&#x2026;" horiz-adv-x="1499" d="M10 170q0 76 65.5 127t158 51t158 -51t65.5 -127q0 -74 -65.5 -126t-158 -52t-158 52t-65.5 126zM506 170q0 74 64.5 126t156.5 52t157.5 -51t65.5 -127q0 -74 -65.5 -126t-157.5 -52q-90 0 -155.5 52t-65.5 126zM1012 170q0 74 64.5 126t156.5 52t157.5 -51t65.5 -127 q0 -74 -65.5 -126t-157.5 -52q-90 0 -155.5 52t-65.5 126z" />
<glyph unicode="&#x2039;" horiz-adv-x="800" d="M-41 506q283 225 608 571l250 -203q-205 -190 -364 -370q141 -139 362 -303l-209 -246q-254 242 -647 551z" />
<glyph unicode="&#x203a;" horiz-adv-x="800" d="M-35 162q211 201 363 370q-129 129 -363 304l209 245q274 -256 647 -551q-285 -229 -606 -571z" />
<glyph unicode="&#x20ac;" horiz-adv-x="1435" d="M43 496l20 211h183q-4 31 -2 61h-197l23 211h206q45 236 267.5 389.5t480.5 153.5q145 0 367 -99l-127 -415q-8 4 -41 23.5t-41 23.5t-34 16t-38 15.5t-32.5 7.5t-41.5 4q-84 0 -163.5 -35t-106.5 -84h256l-21 -211h-325q-2 -14 4 -61h338l-21 -211h-204 q31 -47 106.5 -77t142.5 -30q113 0 215 74l144 -375q-180 -115 -357 -119q-248 -6 -475 149.5t-284 377.5h-242z" />
<glyph unicode="&#x2122;" horiz-adv-x="1544" d="M4 1239v244h877q129 -207 213 -309q131 162 223 309h158q-18 -362 0 -787h-273q6 117 4 201l-129 -158l-102 148v-191h-270q12 287 6 600v-57h-213q-6 -244 4 -543h-295q16 313 4 543h-207z" />
<glyph unicode="&#xe000;" horiz-adv-x="1120" d="M0 1120h1120v-1120h-1120v1120z" />
<glyph unicode="&#xfb01;" horiz-adv-x="1386" d="M-8 770l55 352h111q16 240 170.5 370t437.5 130q248 0 401.5 -113.5t153.5 -248.5q0 -90 -67.5 -154t-163.5 -64q-94 0 -157 59.5t-67 147.5q-4 0 -8 11q-20 25 -76 24q-86 0 -129 -55t-51 -107h221l-49 -352h-174q-12 -279 6 -770h-448q20 463 2 770h-168zM893 0 q20 403 0 866l448 172q-23 -672 -4 -1038h-444z" />
<glyph unicode="&#xfb02;" horiz-adv-x="1386" d="M-8 750l55 352h111q16 240 180 372t446 132q162 0 281 -78q86 37 248 65q-18 -678 0 -1593h-443q4 266 3 392t-4 434.5t-3 404.5q-2 -2 -3 0t-5 8q-20 25 -76 25q-86 0 -129 -55.5t-51 -106.5h221l-49 -352h-174q-10 -270 6 -750h-448q20 451 2 750h-168z" />
<glyph unicode="&#xfb03;" horiz-adv-x="2641" d="M2110 0q19 259 19 521q0 247 -17 497l444 121q-14 -307 -14 -592t14 -547h-446zM2122 1399q0 82 62.5 141t150.5 59t150.5 -59t62.5 -141q0 -84 -62.5 -143.5t-150.5 -59.5t-150.5 59.5t-62.5 143.5zM995 764l55 332h125q0 170 68 297q53 102 171 158.5t243 56.5 q141 0 284 -133l-78 -281q-82 51 -153 51q-57 0 -94 -40t-39 -91v-18h305l-51 -332h-252q14 -428 43 -764h-447q10 208 10 449q0 151 -4 315h-186zM0 764l55 332h125q0 170 68 297q53 102 171 158.5t243 56.5q141 0 284 -133l-78 -281q-82 51 -153 51q-57 0 -94 -40t-39 -91 v-18h305l-51 -332h-252q14 -428 43 -764h-447q10 208 10 449q0 151 -4 315h-186z" />
<glyph unicode="&#xfb04;" horiz-adv-x="2629" d="M2079 0q20 439 20.5 816t-20.5 691l447 121q-21 -362 -21 -781q0 -398 18 -847h-444zM995 764l55 332h125q0 170 68 297q53 102 171 158.5t243 56.5q141 0 284 -133l-78 -281q-82 51 -153 51q-57 0 -94 -40t-39 -91v-18h305l-51 -332h-252q14 -428 43 -764h-447 q10 208 10 449q0 151 -4 315h-186zM0 764l55 332h125q0 170 68 297q53 102 171 158.5t243 56.5q141 0 284 -133l-78 -281q-82 51 -153 51q-57 0 -94 -40t-39 -91v-18h305l-51 -332h-252q14 -428 43 -764h-447q10 208 10 449q0 151 -4 315h-186z" />
</font>
</defs>
</svg>
